<svg width="18" height="18" viewBox="0 0 18 18" fill="none" xmlns="http://www.w3.org/2000/svg">
<mask id="mask0_65_908" style="mask-type:alpha" maskUnits="userSpaceOnUse" x="-3" y="-3" width="21" height="21">
<rect x="-2.57143" y="-2.57143" width="20.5714" height="20.5714" fill="#D9D9D9"/>
</mask>
<g mask="url(#mask0_65_908)">
<path d="M18.9714 20.5714L11.7714 13.3714C11.2 13.8286 10.5429 14.1905 9.8 14.4571C9.05714 14.7238 8.26667 14.8571 7.42857 14.8571C5.35238 14.8571 3.59543 14.1383 2.15771 12.7006C0.719238 11.2621 0 9.50476 0 7.42857C0 5.35238 0.719238 3.59505 2.15771 2.15657C3.59543 0.718857 5.35238 0 7.42857 0C9.50476 0 11.2621 0.718857 12.7006 2.15657C14.1383 3.59505 14.8571 5.35238 14.8571 7.42857C14.8571 8.26667 14.7238 9.05714 14.4571 9.8C14.1905 10.5429 13.8286 11.2 13.3714 11.7714L20.5714 18.9714L18.9714 20.5714ZM7.42857 12.5714C8.85714 12.5714 10.0716 12.0716 11.072 11.072C12.0716 10.0716 12.5714 8.85714 12.5714 7.42857C12.5714 6 12.0716 4.78552 11.072 3.78514C10.0716 2.78552 8.85714 2.28571 7.42857 2.28571C6 2.28571 4.78552 2.78552 3.78514 3.78514C2.78552 4.78552 2.28571 6 2.28571 7.42857C2.28571 8.85714 2.78552 10.0716 3.78514 11.072C4.78552 12.0716 6 12.5714 7.42857 12.5714Z" fill="white"/>
</g>
</svg>
