<svg width="24" height="22" viewBox="0 0 24 22" fill="none" xmlns="http://www.w3.org/2000/svg">
<mask id="mask0_222_540" style="mask-type:alpha" maskUnits="userSpaceOnUse" x="-2" y="-2" width="28" height="28">
<rect x="-1.42393" y="-1.10017" width="26.5477" height="26.4002" fill="#D9D9D9"/>
</mask>
<g mask="url(#mask0_222_540)">
<path d="M3.99137 22.0002C3.67796 22.0002 3.41525 21.8947 3.20324 21.6839C2.99122 21.4731 2.88522 21.2118 2.88522 20.9002V11.6876L1.77906 12.5401C1.52096 12.7234 1.24442 12.7968 0.949449 12.7601C0.654474 12.7234 0.414808 12.5768 0.230449 12.3201C0.0460897 12.0634 -0.0276538 11.7884 0.00921795 11.4951C0.0460897 11.2018 0.184359 10.9634 0.424026 10.7801L2.88522 8.91007V6.60005C2.88522 6.28838 2.99122 6.02713 3.20324 5.81629C3.41525 5.60546 3.67796 5.50004 3.99137 5.50004C4.30478 5.50004 4.56749 5.60546 4.77951 5.81629C4.99152 6.02713 5.09752 6.28838 5.09752 6.60005V7.23255L11.0708 2.72252C11.1629 2.64919 11.2643 2.5896 11.3749 2.54377C11.4856 2.49794 11.6054 2.47502 11.7344 2.47502C11.8635 2.47502 11.9833 2.49794 12.0939 2.54377C12.2046 2.5896 12.306 2.64919 12.3981 2.72252L23.0449 10.7801C23.2845 10.9634 23.4228 11.2018 23.4597 11.4951C23.4965 11.7884 23.4228 12.0634 23.2384 12.3201C23.0541 12.5584 22.8144 12.6959 22.5194 12.7326C22.2245 12.7693 21.9572 12.6959 21.7175 12.5126L20.5837 11.6876V20.9002C20.5837 21.2118 20.4777 21.4731 20.2657 21.6839C20.0536 21.8947 19.7909 22.0002 19.4775 22.0002H3.99137ZM5.09752 19.8001H10.6283V16.5001C10.6283 16.1885 10.7343 15.9272 10.9463 15.7164C11.1583 15.5055 11.421 15.4001 11.7344 15.4001C12.0479 15.4001 12.3106 15.5055 12.5226 15.7164C12.7346 15.9272 12.8406 16.1885 12.8406 16.5001V19.8001H18.3714V10.0101L11.7344 4.97754L5.09752 10.0101V19.8001ZM4.32322 4.40003C3.91763 4.40003 3.59039 4.23045 3.34151 3.89128C3.09262 3.55211 3.07879 3.19002 3.30003 2.80502C3.595 2.29168 3.99598 1.87918 4.50297 1.56751C5.00995 1.25584 5.57686 1.10001 6.20368 1.10001C6.40647 1.10001 6.60005 1.05417 6.78441 0.962507C6.96877 0.87084 7.10704 0.724172 7.19922 0.522504C7.2914 0.357503 7.41584 0.229168 7.57254 0.137501C7.72925 0.0458337 7.909 0 8.11179 0C8.53582 0 8.85845 0.174168 9.07968 0.522504C9.30091 0.87084 9.31013 1.22834 9.10733 1.59501C8.81236 2.10835 8.41138 2.52085 7.90439 2.83252C7.3974 3.14419 6.8305 3.30003 6.20368 3.30003C6.00088 3.30003 5.80731 3.35044 5.62295 3.45128C5.43859 3.55211 5.30032 3.69419 5.20814 3.87753C5.11596 4.06086 4.98691 4.19378 4.82099 4.27628C4.65506 4.35878 4.48914 4.40003 4.32322 4.40003Z" fill="#1877F2"/>
</g>
</svg>
