<svg width="15" height="13" viewBox="0 0 15 13" fill="none" xmlns="http://www.w3.org/2000/svg">
<path d="M9.09 1.44444L10.4625 2.88889H13.5V11.5556H1.5V2.88889H4.5375L5.91 1.44444H9.09ZM9.75 0H5.25L3.8775 1.44444H1.5C0.675 1.44444 0 2.09444 0 2.88889V11.5556C0 12.35 0.675 13 1.5 13H13.5C14.325 13 15 12.35 15 11.5556V2.88889C15 2.09444 14.325 1.44444 13.5 1.44444H11.1225L9.75 0ZM7.5 5.05556C8.7375 5.05556 9.75 6.03056 9.75 7.22222C9.75 8.41389 8.7375 9.38889 7.5 9.38889C6.2625 9.38889 5.25 8.41389 5.25 7.22222C5.25 6.03056 6.2625 5.05556 7.5 5.05556ZM7.5 3.61111C5.43 3.61111 3.75 5.22889 3.75 7.22222C3.75 9.21556 5.43 10.8333 7.5 10.8333C9.57 10.8333 11.25 9.21556 11.25 7.22222C11.25 5.22889 9.57 3.61111 7.5 3.61111Z" fill="white"/>
</svg>
