<svg width="15" height="14" viewBox="0 0 15 14" fill="none" xmlns="http://www.w3.org/2000/svg">
<mask id="mask0_186_505" style="mask-type:alpha" maskUnits="userSpaceOnUse" x="-3" y="-4" width="21" height="21">
<rect x="-2.94364" y="-3.91666" width="20.5464" height="20.5464" fill="#D9D9D9"/>
</mask>
<g mask="url(#mask0_186_505)">
<path d="M7.32954 11.7286L3.77672 13.8688C3.61977 13.9687 3.45568 14.0115 3.28446 13.9972C3.11324 13.983 2.96342 13.9259 2.83501 13.826C2.70659 13.7261 2.60672 13.6013 2.53537 13.4515C2.46403 13.3017 2.44976 13.134 2.49257 12.9485L3.43428 8.90344L0.288111 6.18532C0.145427 6.05691 0.0562502 5.91066 0.0205793 5.74657C-0.0150915 5.58249 -0.00439026 5.42197 0.0526831 5.26502C0.109756 5.10807 0.195366 4.97965 0.309513 4.87977C0.42366 4.77989 0.580612 4.71569 0.780368 4.68715L4.93246 4.32331L6.53764 0.51366C6.60899 0.34244 6.71957 0.214025 6.86938 0.128415C7.0192 0.042805 7.17258 0 7.32954 0C7.48649 0 7.63987 0.042805 7.78969 0.128415C7.93951 0.214025 8.05009 0.34244 8.12143 0.51366L9.72662 4.32331L13.8787 4.68715C14.0785 4.71569 14.2354 4.77989 14.3496 4.87977C14.4637 4.97965 14.5493 5.10807 14.6064 5.26502C14.6635 5.42197 14.6742 5.58249 14.6385 5.74657C14.6028 5.91066 14.5136 6.05691 14.371 6.18532L11.2248 8.90344L12.1665 12.9485C12.2093 13.134 12.195 13.3017 12.1237 13.4515C12.0524 13.6013 11.9525 13.7261 11.8241 13.826C11.6956 13.9259 11.5458 13.983 11.3746 13.9972C11.2034 14.0115 11.0393 13.9687 10.8824 13.8688L7.32954 11.7286Z" fill="#F9B908"/>
</g>
</svg>
