<svg width="27" height="25" viewBox="0 0 27 25" fill="none" xmlns="http://www.w3.org/2000/svg">
<mask id="mask0_202_519" style="mask-type:alpha" maskUnits="userSpaceOnUse" x="-2" y="-2" width="31" height="31">
<rect x="-1.60913" y="-1.25" width="30" height="30" fill="#D9D9D9"/>
</mask>
<g mask="url(#mask0_202_519)">
<path d="M4.51042 25C4.15625 25 3.85937 24.8802 3.61979 24.6406C3.38021 24.401 3.26042 24.1042 3.26042 23.75V13.2813L2.01042 14.25C1.71875 14.4583 1.40625 14.5417 1.07292 14.5C0.739583 14.4583 0.46875 14.2917 0.260417 14C0.0520833 13.7083 -0.03125 13.3958 0.0104167 13.0625C0.0520833 12.7292 0.208333 12.4583 0.479167 12.25L3.26042 10.125V7.5C3.26042 7.14583 3.38021 6.84896 3.61979 6.60938C3.85937 6.36979 4.15625 6.25 4.51042 6.25C4.86458 6.25 5.16146 6.36979 5.40104 6.60938C5.64062 6.84896 5.76042 7.14583 5.76042 7.5V8.21875L12.5104 3.09375C12.6146 3.01042 12.7292 2.94271 12.8542 2.89063C12.9792 2.83854 13.1146 2.8125 13.2604 2.8125C13.4062 2.8125 13.5417 2.83854 13.6667 2.89063C13.7917 2.94271 13.9062 3.01042 14.0104 3.09375L26.0417 12.25C26.3125 12.4583 26.4687 12.7292 26.5104 13.0625C26.5521 13.3958 26.4687 13.7083 26.2604 14C26.0521 14.2708 25.7812 14.4271 25.4479 14.4688C25.1146 14.5104 24.8125 14.4271 24.5417 14.2188L23.2604 13.2813V23.75C23.2604 24.1042 23.1406 24.401 22.901 24.6406C22.6615 24.8802 22.3646 25 22.0104 25H4.51042ZM5.76042 22.5H12.0104V18.75C12.0104 18.3958 12.1302 18.099 12.3698 17.8594C12.6094 17.6198 12.9062 17.5 13.2604 17.5C13.6146 17.5 13.9115 17.6198 14.151 17.8594C14.3906 18.099 14.5104 18.3958 14.5104 18.75V22.5H20.7604V11.375L13.2604 5.65625L5.76042 11.375V22.5ZM4.88542 5C4.42708 5 4.05729 4.80729 3.77604 4.42188C3.49479 4.03646 3.47917 3.625 3.72917 3.1875C4.0625 2.60417 4.51562 2.13542 5.08854 1.78125C5.66146 1.42708 6.30208 1.25 7.01042 1.25C7.23958 1.25 7.45833 1.19792 7.66667 1.09375C7.875 0.989583 8.03125 0.822917 8.13542 0.59375C8.23958 0.40625 8.38021 0.260417 8.55729 0.15625C8.73438 0.0520833 8.9375 0 9.16667 0C9.64583 0 10.0104 0.197917 10.2604 0.59375C10.5104 0.989583 10.5208 1.39583 10.2917 1.8125C9.95833 2.39583 9.50521 2.86458 8.93229 3.21875C8.35938 3.57292 7.71875 3.75 7.01042 3.75C6.78125 3.75 6.5625 3.80729 6.35417 3.92188C6.14583 4.03646 5.98958 4.19792 5.88542 4.40625C5.78125 4.61458 5.63542 4.76563 5.44792 4.85938C5.26042 4.95313 5.07292 5 4.88542 5Z" fill="white"/>
</g>
</svg>
