<svg width="15" height="14" viewBox="0 0 15 14" fill="none" xmlns="http://www.w3.org/2000/svg">
<mask id="mask0_258_612" style="mask-type:alpha" maskUnits="userSpaceOnUse" x="-2" y="-2" width="19" height="19">
<rect x="-1.49976" y="-1.98779" width="18" height="18" fill="#D9D9D9"/>
</mask>
<g mask="url(#mask0_258_612)">
<path d="M6.4875 12.8625L5.19375 11.6813C3.86875 10.4688 2.67188 9.26563 1.60313 8.07188C0.534375 6.87813 0 5.5625 0 4.125C0 2.95 0.39375 1.96875 1.18125 1.18125C1.96875 0.39375 2.95 0 4.125 0C4.7875 0 5.4125 0.140625 6 0.421875C6.5875 0.703125 7.0875 1.0875 7.5 1.575C7.9125 1.0875 8.4125 0.703125 9 0.421875C9.5875 0.140625 10.2125 0 10.875 0C12.05 0 13.0313 0.39375 13.8188 1.18125C14.6063 1.96875 15 2.95 15 4.125C15 5.5625 14.4688 6.88125 13.4063 8.08125C12.3438 9.28125 11.1375 10.4875 9.7875 11.7L8.5125 12.8625C8.225 13.1375 7.8875 13.275 7.5 13.275C7.1125 13.275 6.775 13.1375 6.4875 12.8625ZM6.7875 3.075C6.425 2.5625 6.0375 2.17188 5.625 1.90313C5.2125 1.63438 4.7125 1.5 4.125 1.5C3.375 1.5 2.75 1.75 2.25 2.25C1.75 2.75 1.5 3.375 1.5 4.125C1.5 4.775 1.73125 5.46563 2.19375 6.19688C2.65625 6.92813 3.20938 7.6375 3.85313 8.325C4.49688 9.0125 5.15938 9.65625 5.84063 10.2563C6.52188 10.8563 7.075 11.35 7.5 11.7375C7.925 11.35 8.47813 10.8563 9.15938 10.2563C9.84063 9.65625 10.5031 9.0125 11.1469 8.325C11.7906 7.6375 12.3438 6.92813 12.8063 6.19688C13.2688 5.46563 13.5 4.775 13.5 4.125C13.5 3.375 13.25 2.75 12.75 2.25C12.25 1.75 11.625 1.5 10.875 1.5C10.2875 1.5 9.7875 1.63438 9.375 1.90313C8.9625 2.17188 8.575 2.5625 8.2125 3.075C8.125 3.2 8.01875 3.29375 7.89375 3.35625C7.76875 3.41875 7.6375 3.45 7.5 3.45C7.3625 3.45 7.23125 3.41875 7.10625 3.35625C6.98125 3.29375 6.875 3.2 6.7875 3.075Z" fill="black"/>
</g>
</svg>
