<svg width="22" height="22" viewBox="0 0 22 22" fill="none" xmlns="http://www.w3.org/2000/svg">
<path d="M11 2.6125C12.595 2.6125 13.8875 3.905 13.8875 5.5C13.8875 7.095 12.595 8.3875 11 8.3875C9.405 8.3875 8.1125 7.095 8.1125 5.5C8.1125 3.905 9.405 2.6125 11 2.6125ZM11 14.9875C15.0837 14.9875 19.3875 16.995 19.3875 17.875V19.3875H2.6125V17.875C2.6125 16.995 6.91625 14.9875 11 14.9875ZM11 0C7.96125 0 5.5 2.46125 5.5 5.5C5.5 8.53875 7.96125 11 11 11C14.0387 11 16.5 8.53875 16.5 5.5C16.5 2.46125 14.0387 0 11 0ZM11 12.375C7.32875 12.375 0 14.2175 0 17.875V22H22V17.875C22 14.2175 14.6713 12.375 11 12.375Z" fill="#1877F2"/>
</svg>
