<svg width="235" height="227" viewBox="0 0 235 227" fill="none" xmlns="http://www.w3.org/2000/svg">
<path d="M26.208 186.68H14.6608C12.9624 186.68 11.5857 188.057 11.5857 189.755C11.5857 191.453 12.9624 192.83 14.6607 192.83H26.208C27.9063 192.83 29.2831 191.453 29.2831 189.755C29.2831 188.057 27.9063 186.68 26.208 186.68Z" fill="#EBEBEB"/>
<path d="M16.3315 194.435H4.78429C3.08598 194.435 1.70923 195.812 1.70923 197.51C1.70923 199.208 3.08598 200.585 4.78428 200.585H16.3315C18.0298 200.585 19.4066 199.208 19.4066 197.51C19.4066 195.812 18.0299 194.435 16.3315 194.435Z" fill="#EBEBEB"/>
<path d="M66.9834 71.427H55.4361C53.7378 71.427 52.3611 72.8038 52.3611 74.5021C52.3611 76.2004 53.7378 77.5772 55.4361 77.5772H66.9834C68.6817 77.5772 70.0585 76.2004 70.0585 74.5021C70.0585 72.8038 68.6817 71.427 66.9834 71.427Z" fill="#EBEBEB"/>
<path d="M57.1126 79.182H45.5653C43.867 79.182 42.4902 80.5588 42.4902 82.2571C42.4902 83.9554 43.867 85.3321 45.5653 85.3321H57.1126C58.8109 85.3321 60.1876 83.9554 60.1876 82.2571C60.1876 80.5588 58.8109 79.182 57.1126 79.182Z" fill="#EBEBEB"/>
<path d="M47.28 71.427H35.7328C34.0345 71.427 32.6577 72.8038 32.6577 74.5021C32.6577 76.2004 34.0345 77.5772 35.7328 77.5772H47.28C48.9783 77.5772 50.3551 76.2004 50.3551 74.5021C50.3551 72.8038 48.9783 71.427 47.28 71.427Z" fill="#EBEBEB"/>
<path d="M229.761 194.435H218.213C216.515 194.435 215.138 195.812 215.138 197.51C215.138 199.208 216.515 200.585 218.213 200.585H229.761C231.459 200.585 232.836 199.208 232.836 197.51C232.836 195.812 231.459 194.435 229.761 194.435Z" fill="#EBEBEB"/>
<path d="M219.89 0.857399H208.343C206.644 0.857399 205.268 2.23415 205.268 3.93245C205.268 5.63076 206.644 7.00751 208.343 7.00751H219.89C221.588 7.00751 222.965 5.63076 222.965 3.93245C222.965 2.23415 221.588 0.857399 219.89 0.857399Z" fill="#EBEBEB"/>
<path d="M229.761 8.61235H218.213C216.515 8.61235 215.138 9.9891 215.138 11.6874C215.138 13.3857 216.515 14.7625 218.213 14.7625H229.761C231.459 14.7625 232.836 13.3857 232.836 11.6874C232.836 9.9891 231.459 8.61235 229.761 8.61235Z" fill="#EBEBEB"/>
<path d="M16.3315 0.857399H4.78428C3.08598 0.857399 1.70923 2.23415 1.70923 3.93245C1.70923 5.63076 3.08598 7.00751 4.78428 7.00751H16.3315C18.0299 7.00751 19.4066 5.63076 19.4066 3.93245C19.4066 2.23415 18.0299 0.857399 16.3315 0.857399Z" fill="#EBEBEB"/>
<path d="M78.3054 41.8416H1.71752C0.768961 41.8416 0 42.6106 0 43.5592C0 44.5077 0.768959 45.2767 1.71752 45.2767H78.3054C79.2539 45.2767 80.0229 44.5077 80.0229 43.5592C80.0229 42.6106 79.2539 41.8416 78.3054 41.8416Z" fill="#EBEBEB"/>
<path d="M11.6353 57.1724C11.6353 58.0727 10.9054 58.8025 10.0051 58.8025C9.16304 58.8025 8.45956 58.1612 8.38188 57.3228L7.47672 47.5526C7.36356 46.3311 8.32483 45.2767 9.55155 45.2767C10.7023 45.2767 11.6353 46.2096 11.6353 47.3604V57.1724Z" fill="#EBEBEB"/>
<path d="M68.3877 57.1724C68.3877 58.0727 69.1175 58.8025 70.0179 58.8025C70.8599 58.8025 71.5634 58.1612 71.6411 57.3228L72.5462 47.5526C72.6594 46.3311 71.6981 45.2767 70.4714 45.2767C69.3206 45.2767 68.3877 46.2096 68.3877 47.3604V57.1724Z" fill="#EBEBEB"/>
<path d="M7.47515 47.5493C7.36281 46.3294 8.323 45.2767 9.54807 45.2767C10.6978 45.2767 11.6298 46.2087 11.6298 47.3584V47.8739C11.6298 49.0105 10.7084 49.9319 9.57175 49.9319C8.50827 49.9319 7.61994 49.1216 7.52242 48.0626L7.47515 47.5493Z" fill="#DBDBDB"/>
<path d="M70.4694 45.2767C71.6945 45.2767 72.6546 46.3294 72.5423 47.5493L72.495 48.0626C72.3975 49.1216 71.5092 49.9319 70.4457 49.9319C69.3091 49.9319 68.3877 49.0105 68.3877 47.8739V47.3584C68.3877 46.2087 69.3197 45.2767 70.4694 45.2767Z" fill="#DBDBDB"/>
<path d="M23.1165 23.4792C19.9991 27.7027 16.7479 32.6001 15.8902 37.8864C15.8666 38.0313 15.9718 38.2495 15.9936 38.1043C16.6811 35.3364 19.3756 33.9256 21.5302 32.057C21.9457 31.6968 22.31 31.2537 22.6054 30.6956C23.6991 28.6291 23.5782 25.8096 23.3638 23.4957C23.3528 23.4023 23.1825 23.3968 23.1165 23.4792Z" fill="#EBEBEB"/>
<path d="M17.4225 33.7899C18.8171 30.5238 20.6938 27.4855 22.99 24.7763C22.99 24.7763 23.0285 24.7763 22.99 24.7763C22.398 25.5408 21.8354 26.3269 21.3033 27.133C20.897 27.7487 21.6888 28.3658 22.185 27.82C22.2396 27.7599 22.2938 27.6994 22.3475 27.6383C22.3681 27.6148 22.4133 27.5894 22.4162 27.6205C22.4168 27.6269 22.411 27.6369 22.4071 27.6421C21.4857 28.8703 20.4056 29.9707 19.1952 30.9148C19.1246 30.9698 19.066 31.0387 19.0237 31.1177C18.75 31.6286 18.4728 32.1394 18.1921 32.6471C18.1487 32.7255 18.2327 32.8132 18.3128 32.7731C18.1262 32.8762 17.9605 33.0182 17.8581 33.2053C17.7743 33.3583 17.6901 33.5114 17.6047 33.6644C17.5459 33.7698 17.3761 33.9013 17.4225 33.7899Z" fill="#A6A6A6"/>
<path d="M18.4832 32.6797C19.3263 32.1968 20.1311 31.65 20.8906 31.044C20.9012 31.0355 20.9171 31.0309 20.9307 31.0309C20.9451 31.0309 20.934 31.0361 20.9231 31.0454C20.2135 31.6562 19.439 32.1869 18.6135 32.6282C18.5504 32.662 18.4211 32.7152 18.4832 32.6797Z" fill="#A6A6A6"/>
<path d="M15.5062 38.0167C15.5086 38.0421 15.5112 38.0705 15.5318 38.0856C15.5421 38.0932 15.5547 38.0973 15.5676 38.0973C15.5805 38.0973 15.593 38.0932 15.6034 38.0856C15.6239 38.0705 15.6253 38.0419 15.6253 38.0165C15.6253 37.266 15.6253 36.5145 15.6253 35.7624C15.6253 33.7704 16.3723 32.0426 17.7248 30.5802C18.2117 30.044 18.6358 29.4539 18.9889 28.8215C19.8041 27.3114 20.3016 25.6505 20.4508 23.9409C20.6377 22.0503 19.9012 15.8067 19.1263 16.0211C18.7086 16.131 17.373 19.2253 17.0158 20.2476C16.4397 21.9353 16.0185 23.6718 15.7572 25.4359C15.1935 29.6062 15.1093 33.8273 15.5062 38.0167Z" fill="#EBEBEB"/>
<path d="M15.4726 30.4597C15.4832 30.45 15.4942 30.4387 15.4954 30.4243C15.6744 28.1832 16.0415 25.9612 16.5927 23.7815C16.9974 21.4868 17.7583 19.2697 18.8477 17.2103C18.879 17.1511 18.9859 17.0934 18.956 17.1533C18.2191 18.6417 17.6355 20.2008 17.2141 21.8064C17.1938 21.8837 17.3171 21.9404 17.3621 21.8744C17.4446 21.7535 17.4721 21.8744 17.4446 21.9239C17.3768 22.0473 17.3011 22.1662 17.2182 22.2798C17.1225 22.4109 17.0446 22.5553 17.0064 22.7131C16.6297 24.2685 16.3514 25.8919 16.1079 27.4924C16.1056 27.5073 16.1254 27.5148 16.1336 27.502C16.1396 27.4927 16.1336 27.4852 16.1265 27.4938C16.1032 27.5216 16.08 27.5873 16.0568 27.6349C16.0516 27.6455 16.0477 27.6568 16.046 27.6685C16.0385 27.7199 16.031 27.7714 16.0235 27.8228C15.8969 28.6918 16.8581 29.2108 17.4227 28.5381C18.1874 27.6269 18.8163 26.6045 19.2858 25.5018C18.6896 27.3037 17.5904 28.8926 16.1239 30.0844C15.8266 30.326 15.6167 30.6627 15.5626 31.042C15.5532 31.1078 15.5071 31.2072 15.4697 31.1522C15.4673 31.1488 15.466 31.145 15.466 31.1408C15.466 30.9402 15.466 30.7446 15.466 30.5493C15.466 30.5336 15.4593 30.5186 15.457 30.5032C15.4559 30.4952 15.4567 30.4871 15.4594 30.4795C15.4621 30.4719 15.4667 30.4651 15.4726 30.4597Z" fill="#A6A6A6"/>
<path d="M16.2298 27.1961C16.2235 27.1855 16.2282 27.1727 16.2353 27.1626C17.4299 25.4656 18.4736 23.6671 19.3543 21.7878C19.3594 21.7769 19.3722 21.77 19.3842 21.77C19.3974 21.77 19.3982 21.7783 19.3938 21.7907C18.6929 23.7644 17.6421 25.5957 16.2915 27.1966C16.2835 27.2062 16.2734 27.2154 16.2609 27.2148C16.2546 27.2145 16.2484 27.2126 16.243 27.2093C16.2376 27.2061 16.233 27.2015 16.2298 27.1961Z" fill="#A6A6A6"/>
<path d="M13.1908 31.5205C14.2408 32.7593 14.6794 34.3811 14.4239 35.9848C14.3696 36.3257 14.3053 36.6651 14.2311 37.0025C14.2299 37.0079 14.2293 37.0129 14.2293 37.0185C14.2305 37.1016 14.3618 37.1081 14.3828 37.0277C14.6769 35.8962 14.8512 34.7366 14.9026 33.5681C14.9044 33.5262 14.9234 33.4855 14.9234 33.4436C14.9234 33.402 14.9059 33.3609 14.907 33.3192C14.9509 31.5761 14.8141 29.833 14.4986 28.118C13.949 24.8643 12.7563 21.7425 10.4865 19.3242C10.4681 19.3083 10.4463 19.2967 10.4227 19.2905C10.3992 19.2842 10.3745 19.2835 10.3506 19.2882C10.3268 19.293 10.3043 19.3032 10.285 19.318C10.2656 19.3328 10.25 19.3519 10.2391 19.3737C9.32128 21.704 9.64006 24.4795 10.4205 26.7989C10.8433 28.0568 11.4489 29.2457 12.2177 30.3274C12.5249 30.7397 12.8594 31.1295 13.1908 31.5205Z" fill="#EBEBEB"/>
<path d="M10.7778 20.396C13.0232 23.9272 14.346 27.9657 14.6251 32.1411C14.6251 32.2125 14.5097 32.229 14.4987 32.1411C14.4029 31.4284 14.022 30.793 13.518 30.2801C12.9178 29.6691 12.3742 29.0038 11.8946 28.2924C11.8767 28.2658 11.8782 28.2256 11.899 28.2499C12.1002 28.497 12.3054 28.7409 12.5145 28.9812C13.0455 29.5916 13.9511 29.1172 13.765 28.3299C13.7344 28.2005 13.673 28.0819 13.5863 27.9812L13.5478 27.9366C13.5094 27.8926 13.5753 27.8267 13.6138 27.8706C13.6258 27.8853 13.6492 27.8736 13.6447 27.8552C13.3675 26.727 13.0268 25.6155 12.6243 24.5258C12.5849 24.4191 12.5224 24.3226 12.4438 24.2404C11.8971 23.6684 11.4157 23.037 11.0087 22.3581C11.0087 22.3251 11.0087 22.3581 11.0087 22.3581C11.3163 22.8153 11.6484 23.2556 12.0035 23.6771C12.0946 23.7822 12.2597 23.6763 12.2059 23.548C11.7666 22.5 11.2622 21.4803 10.6954 20.4949C10.6514 20.3905 10.7448 20.3465 10.7778 20.396Z" fill="#A6A6A6"/>
<path d="M11.1586 24.7059C11.1767 24.6713 11.2135 24.7163 11.2369 24.7474C11.926 25.6643 12.7014 26.5407 13.3334 27.4914C13.3378 27.4972 13.3397 27.5046 13.3386 27.5118C13.3376 27.519 13.3338 27.5255 13.3279 27.5299C13.3221 27.5342 13.3148 27.5361 13.3075 27.5351C13.3003 27.5341 13.2938 27.5302 13.2894 27.5244C12.469 26.6889 11.7558 25.7545 11.1663 24.7429C11.1601 24.7322 11.1529 24.7168 11.1586 24.7059Z" fill="#A6A6A6"/>
<path d="M13.4225 27.7088C13.4255 27.6934 13.4496 27.7072 13.4596 27.7192C13.4675 27.7286 13.4725 27.7408 13.469 27.7526C13.4669 27.7597 13.4633 27.7668 13.4567 27.7696C13.4459 27.7742 13.4382 27.7599 13.4382 27.7481C13.4382 27.739 13.4339 27.7306 13.4284 27.7234C13.4247 27.7187 13.4217 27.7132 13.4225 27.7088Z" fill="#A6A6A6"/>
<path d="M7.07894 26.2218C7.33297 28.1716 8.11822 30.014 9.34882 31.5475C9.86065 32.1469 10.4914 32.6335 11.201 32.9765C11.9638 33.35 12.777 33.784 13.5538 34.1048C13.62 34.1321 13.6724 34.1851 13.6976 34.2521C14.0274 35.1302 14.2793 36.0355 14.4504 36.9575C14.4556 36.9854 14.5675 36.9925 14.5746 36.9651C14.5753 36.9624 14.5754 36.9597 14.5751 36.957C14.0572 32.4135 11.1174 28.5349 7.35374 26.0514C7.32486 26.036 7.29242 26.0284 7.25969 26.0295C7.22697 26.0305 7.19509 26.0402 7.16726 26.0574C7.13942 26.0747 7.11662 26.099 7.10112 26.1278C7.08562 26.1566 7.07797 26.1891 7.07894 26.2218Z" fill="#EBEBEB"/>
<path d="M8.39709 27.5765C8.38682 27.5674 8.37553 27.557 8.376 27.5433C8.37623 27.5363 8.37866 27.5297 8.38292 27.5242C8.38719 27.5187 8.39308 27.5147 8.39975 27.5128C8.41291 27.5089 8.42567 27.5175 8.43666 27.5257C10.494 29.0597 12.1341 31.0848 13.2072 33.4162C13.2118 33.4283 13.212 33.4417 13.2077 33.454C13.2034 33.4662 13.1949 33.4766 13.1837 33.4832C13.1725 33.4897 13.1593 33.4922 13.1465 33.4899C13.1212 33.4856 13.1075 33.4598 13.095 33.4374C13.066 33.3855 13.0367 33.3338 13.0071 33.2825C12.738 32.8162 12.2694 32.5168 11.779 32.2948C11.2127 32.0385 10.6959 31.6797 10.2558 31.2342C10.5899 31.5324 10.959 31.7889 11.355 31.9982C11.6931 32.1672 12.0178 31.7533 11.8007 31.4438C11.7188 31.327 11.6359 31.2112 11.5522 31.0965C11.4919 31.0139 11.4085 30.9514 11.3136 30.9135C10.4488 30.5682 9.63629 30.1037 8.89964 29.5333C8.88803 29.5243 8.8684 29.5155 8.86969 29.5009C8.87172 29.4779 8.89382 29.4828 8.91361 29.4947C8.99829 29.5458 9.08324 29.5963 9.16847 29.6464C9.70083 29.9593 10.1617 29.3885 9.73457 28.9426C9.70745 28.9143 9.68025 28.8861 9.65296 28.858C9.6082 28.8118 9.55628 28.7732 9.49951 28.743C9.24279 28.6064 8.98649 28.4655 8.73437 28.3204C8.72353 28.3142 8.71686 28.3022 8.71686 28.2897C8.71686 28.2749 8.72612 28.2697 8.73995 28.2748C8.75566 28.2806 8.77132 28.2865 8.78693 28.2925C8.89994 28.3362 9.02221 28.1828 8.93823 28.0955C8.76841 27.9189 8.58636 27.7443 8.39709 27.5765Z" fill="#A6A6A6"/>
<path d="M8.45002 29.1354C8.45163 29.1263 8.45791 29.1321 8.46579 29.137C8.468 29.1384 8.47021 29.1397 8.47241 29.1411C8.4968 29.1565 8.48417 29.1763 8.46031 29.1602C8.4524 29.1548 8.44829 29.1454 8.44993 29.1359C8.44996 29.1358 8.44999 29.1356 8.45002 29.1354Z" fill="#A6A6A6"/>
<path d="M18.8691 37.9523C19.0546 40.0393 17.4103 41.8362 15.315 41.8362C13.2396 41.8362 11.6021 40.0717 11.7568 38.002L11.8494 36.7633C11.9335 35.8266 12.7184 35.109 13.6588 35.109H16.9542C17.8946 35.109 18.6795 35.8266 18.7635 36.7633L18.8691 37.9523Z" fill="#DBDBDB"/>
<path d="M18.6828 35.8622C18.7263 36.3463 18.345 36.7633 17.859 36.7633H12.7543C12.2683 36.7633 11.887 36.3463 11.9304 35.8622C11.9687 35.4357 12.3261 35.109 12.7543 35.109H17.859C18.2872 35.109 18.6446 35.4357 18.6828 35.8622Z" fill="#C7C7C7"/>
<path d="M18.2936 33.7514H12.3194C11.8504 33.7514 11.4702 34.1316 11.4702 34.6006C11.4702 35.0695 11.8504 35.4497 12.3194 35.4497H18.2936C18.7626 35.4497 19.1427 35.0695 19.1427 34.6006C19.1427 34.1316 18.7626 33.7514 18.2936 33.7514Z" fill="#DBDBDB"/>
<path d="M44.3643 38.9177V21.6436C44.3643 20.0378 43.0626 18.7361 41.4568 18.7361C39.8511 18.7361 38.5494 20.0378 38.5494 21.6436V38.9177C38.5494 40.5235 39.8511 41.8252 41.4568 41.8252C43.0626 41.8252 44.3643 40.5235 44.3643 38.9177Z" fill="#C7C7C7"/>
<path d="M39.819 20.0387H43.0947C43.7958 20.0387 44.3643 19.4703 44.3643 18.7691C44.3643 18.068 43.7958 17.4995 43.0947 17.4995H39.819C39.1178 17.4995 38.5494 18.068 38.5494 18.7691C38.5494 19.4703 39.1178 20.0387 39.819 20.0387Z" fill="#DBDBDB"/>
<path d="M39.0193 24.2267H43.8943C44.1539 24.2267 44.3643 24.0163 44.3643 23.7568C44.3643 23.4973 44.1539 23.2869 43.8943 23.2869H39.0193C38.7598 23.2869 38.5494 23.4973 38.5494 23.7568C38.5494 24.0163 38.7598 24.2267 39.0193 24.2267Z" fill="#DBDBDB"/>
<path d="M39.819 38.7968H43.0947C43.7958 38.7968 44.3643 38.2284 44.3643 37.5272C44.3643 36.8261 43.7958 36.2577 43.0947 36.2577H39.819C39.1178 36.2577 38.5494 36.8261 38.5494 37.5272C38.5494 38.2284 39.1178 38.7968 39.819 38.7968Z" fill="#DBDBDB"/>
<path d="M48.426 39.7944V16.9197C48.426 15.7981 47.5168 14.8889 46.3952 14.8889C45.2736 14.8889 44.3644 15.7981 44.3644 16.9197V39.7944C44.3644 40.9159 45.2736 41.8252 46.3952 41.8252C47.5168 41.8252 48.426 40.9159 48.426 39.7944Z" fill="#DBDBDB"/>
<path d="M47.6016 26.5625V18.6427C47.6016 17.9688 47.0553 17.4226 46.3814 17.4226C45.7076 17.4226 45.1613 17.9688 45.1613 18.6427V26.5625C45.1613 27.2364 45.7076 27.7827 46.3814 27.7827C47.0553 27.7827 47.6016 27.2364 47.6016 26.5625Z" fill="#EBEBEB"/>
<path d="M75.9234 37.4778L59.6557 21.3964C58.858 20.6079 57.5722 20.6153 56.7837 21.4129C55.9952 22.2105 56.0026 23.4963 56.8003 24.2848L73.068 40.3662C73.8656 41.1547 75.1514 41.1473 75.9399 40.3497C76.7284 39.5521 76.721 38.2663 75.9234 37.4778Z" fill="#C7C7C7"/>
<path d="M71.4424 34.1722L65.8101 28.6044C65.3309 28.1306 64.5583 28.1351 64.0846 28.6143C63.6109 29.0935 63.6153 29.866 64.0945 30.3398L69.7269 35.9076C70.2061 36.3814 70.9786 36.3769 71.4524 35.8977C71.9261 35.4185 71.9217 34.6459 71.4424 34.1722Z" fill="#DBDBDB"/>
<path d="M55.3235 38.3791V24.8203C55.3235 22.9141 53.7782 21.3688 51.8719 21.3688C49.9657 21.3688 48.4204 22.9141 48.4204 24.8203V38.3791C48.4204 40.2854 49.9657 41.8307 51.8719 41.8307C53.7782 41.8307 55.3235 40.2854 55.3235 38.3791Z" fill="#A6A6A6"/>
<path d="M49.374 39.6597H54.3699C54.8966 39.6597 55.3235 39.2328 55.3235 38.7062C55.3235 38.1795 54.8966 37.7526 54.3699 37.7526H49.374C48.8473 37.7526 48.4204 38.1795 48.4204 38.7062C48.4204 39.2328 48.8473 39.6597 49.374 39.6597Z" fill="#C7C7C7"/>
<path d="M48.797 36.505H54.9581C55.163 36.505 55.3291 36.3389 55.3291 36.134C55.3291 35.9291 55.163 35.763 54.9581 35.763H48.797C48.5921 35.763 48.426 35.9291 48.426 36.134C48.426 36.3389 48.5921 36.505 48.797 36.505Z" fill="#C7C7C7"/>
<path d="M31.9445 39.6507L37.6479 26.3628C38.1669 25.1536 37.6074 23.7527 36.3983 23.2337C35.1891 22.7147 33.7881 23.2742 33.2691 24.4833L27.5657 37.7712C27.0467 38.9804 27.6062 40.3813 28.8154 40.9003C30.0245 41.4193 31.4255 40.8598 31.9445 39.6507Z" fill="#A6A6A6"/>
<path d="M28.2519 38.4389L30.9842 39.6117C31.4389 39.8068 31.9657 39.5964 32.1608 39.1418C32.356 38.6871 32.1456 38.1604 31.6909 37.9652L28.9586 36.7924C28.5039 36.5973 27.9772 36.8077 27.782 37.2623C27.5869 37.717 27.7972 38.2438 28.2519 38.4389Z" fill="#C7C7C7"/>
<path d="M32.7599 27.9263L35.4921 29.0995C35.9467 29.2948 36.4735 29.0845 36.6687 28.6298C36.864 28.1752 36.6537 27.6484 36.199 27.4532L33.4669 26.2799C33.0123 26.0847 32.4855 26.295 32.2903 26.7496C32.095 27.2042 32.3053 27.7311 32.7599 27.9263Z" fill="#C7C7C7"/>
<path d="M31.4926 29.4748L35.2348 31.0817C35.4105 31.1572 35.6141 31.0759 35.6895 30.9002C35.765 30.7245 35.6837 30.5209 35.508 30.4454L31.7659 28.8385C31.5902 28.763 31.3865 28.8443 31.3111 29.02C31.2356 29.1957 31.3169 29.3993 31.4926 29.4748Z" fill="#C7C7C7"/>
<path d="M182.728 144.624C171.682 144.624 162.728 153.578 162.728 164.624V206.438C162.728 217.484 171.682 226.438 182.728 226.438H192.192C203.238 226.438 212.192 217.484 212.192 206.438V164.624C212.192 153.578 203.238 144.624 192.192 144.624H182.728ZM207.697 185.594C207.697 191.475 202.929 196.243 197.048 196.243H177.867C171.986 196.243 167.218 191.475 167.218 185.594C167.218 179.713 171.986 174.946 177.867 174.946H197.048C202.929 174.946 207.697 179.713 207.697 185.594ZM207.697 159.219C207.697 165.097 202.932 169.862 197.054 169.862H177.861C171.983 169.862 167.218 165.097 167.218 159.219C167.218 153.341 171.983 148.576 177.861 148.576H197.054C202.932 148.576 207.697 153.341 207.697 159.219Z" fill="#DBDBDB"/>
<path d="M234.551 215.257V155.806C234.551 149.63 229.544 144.624 223.369 144.624C217.193 144.624 212.187 149.63 212.187 155.806V215.257C212.187 221.432 217.193 226.438 223.369 226.438C229.544 226.438 234.551 221.432 234.551 215.257Z" fill="#EBEBEB"/>
<path d="M176.836 165.064V153.385C176.836 150.729 174.683 148.575 172.027 148.575C169.371 148.575 167.218 150.729 167.218 153.385V165.064C167.218 167.72 169.371 169.873 172.027 169.873C174.683 169.873 176.836 167.72 176.836 165.064Z" fill="#EBEBEB"/>
<path d="M207.834 211.151C207.834 216.835 203.226 221.443 197.543 221.443H177.625C171.941 221.443 167.333 216.835 167.333 211.151C167.333 205.467 171.941 200.86 177.625 200.86H197.543C203.226 200.86 207.834 205.467 207.834 211.151ZM167.608 211.151C167.608 216.683 172.093 221.168 177.625 221.168H197.543C203.075 221.168 207.559 216.683 207.559 211.151C207.559 205.619 203.075 201.134 197.543 201.134H177.625C172.093 201.134 167.608 205.619 167.608 211.151Z" fill="#EBEBEB"/>
<path d="M190.118 206.707H185.045C184.239 206.707 183.585 207.361 183.585 208.167C183.585 208.973 184.239 209.626 185.045 209.626H190.118C190.923 209.626 191.577 208.973 191.577 208.167C191.577 207.361 190.923 206.707 190.118 206.707Z" fill="#EBEBEB"/>
<path d="M176.836 191.434V179.755C176.836 177.099 174.683 174.946 172.027 174.946C169.371 174.946 167.218 177.099 167.218 179.755V191.434C167.218 194.09 169.371 196.243 172.027 196.243C174.683 196.243 176.836 194.09 176.836 191.434Z" fill="#EBEBEB"/>
<path d="M202.162 192.86V179.988C202.162 178.12 200.648 176.605 198.78 176.605C196.911 176.605 195.397 178.12 195.397 179.988V192.86C195.397 194.728 196.911 196.243 198.78 196.243C200.648 196.243 202.162 194.728 202.162 192.86Z" fill="#A6A6A6"/>
<path d="M197.51 193.088H200.038C201.208 193.088 202.157 192.14 202.157 190.969C202.157 189.799 201.208 188.851 200.038 188.851H197.51C196.34 188.851 195.391 189.799 195.391 190.969C195.391 192.14 196.34 193.088 197.51 193.088Z" fill="#DBDBDB"/>
<path d="M196.647 185.443H200.901C201.594 185.443 202.157 184.881 202.157 184.187C202.157 183.494 201.594 182.931 200.901 182.931H196.647C195.953 182.931 195.391 183.494 195.391 184.187C195.391 184.881 195.953 185.443 196.647 185.443Z" fill="#DBDBDB"/>
<path d="M187.905 153.44H187.235C182.697 153.44 179.018 157.118 179.018 161.656C179.018 166.194 182.697 169.873 187.235 169.873H187.905C192.443 169.873 196.122 166.194 196.122 161.656C196.122 157.118 192.443 153.44 187.905 153.44Z" fill="#EBEBEB"/>
<path d="M202.624 166.622V156.69C202.624 154.895 201.168 153.44 199.373 153.44C197.578 153.44 196.122 154.895 196.122 156.69V166.622C196.122 168.417 197.578 169.873 199.373 169.873C201.168 169.873 202.624 168.417 202.624 166.622Z" fill="#C7C7C7"/>
<path d="M179.018 161.656H196.122L184.209 162.034C183.249 162.064 182.287 162.025 181.332 161.917L179.018 161.656Z" fill="#C7C7C7"/>
<path d="M196.122 167.889H179.018L190.931 168.266C191.892 168.297 192.853 168.258 193.808 168.15L196.122 167.889Z" fill="#C7C7C7"/>
<path d="M180.196 157.4C180.003 157.345 180.043 157.061 180.243 157.061H189.851L180.249 157.407C180.231 157.407 180.213 157.405 180.196 157.4Z" fill="#C7C7C7"/>
<path d="M194.945 165.809C195.137 165.754 195.097 165.47 194.897 165.47H185.289L194.891 165.816C194.909 165.816 194.927 165.814 194.945 165.809Z" fill="#C7C7C7"/>
<path d="M183.124 155.237H195.342L193.303 155.44L183.124 155.237Z" fill="#C7C7C7"/>
<path d="M180.684 163.42H192.901L190.862 163.624L180.684 163.42Z" fill="#C7C7C7"/>
<path d="M188.197 158.628H196.078C196.107 158.628 196.136 158.633 196.163 158.644C196.411 158.741 196.33 159.111 196.064 159.095L188.197 158.628Z" fill="#EBEBEB"/>
<path d="M176.836 158.628H184.718C184.747 158.628 184.776 158.633 184.803 158.644C185.051 158.741 184.97 159.111 184.704 159.095L176.836 158.628Z" fill="#EBEBEB"/>
<path d="M187.01 166.015H179.123C179.094 166.015 179.065 166.02 179.037 166.031C178.79 166.128 178.871 166.498 179.137 166.482L187.01 166.015Z" fill="#EBEBEB"/>
<path d="M196.122 164.14H202.445C202.472 164.14 202.5 164.145 202.525 164.155C202.764 164.248 202.684 164.604 202.429 164.586L196.122 164.14Z" fill="#C7C7C7"/>
<path d="M198.343 161.656H202.566C202.783 161.656 202.871 161.375 202.691 161.252C202.648 161.222 202.595 161.209 202.542 161.214L198.343 161.656Z" fill="#C7C7C7"/>
<path d="M207.691 193.476V178.065C207.691 176.536 206.452 175.297 204.924 175.297C203.396 175.297 202.157 176.536 202.157 178.065V193.476C202.157 195.004 203.396 196.243 204.924 196.243C206.452 196.243 207.691 195.004 207.691 193.476Z" fill="#EBEBEB"/>
<path d="M204.927 179.43C204.698 179.43 204.475 179.363 204.285 179.236C204.096 179.109 203.948 178.929 203.86 178.718C203.773 178.507 203.75 178.275 203.795 178.051C203.839 177.827 203.949 177.622 204.111 177.46C204.272 177.299 204.478 177.189 204.701 177.144C204.925 177.1 205.157 177.123 205.368 177.21C205.579 177.297 205.759 177.445 205.886 177.635C206.013 177.825 206.081 178.048 206.081 178.276C206.081 178.582 205.959 178.876 205.743 179.092C205.526 179.309 205.233 179.43 204.927 179.43Z" fill="white"/>
<path d="M204.927 178.936C204.796 178.936 204.669 178.897 204.56 178.825C204.452 178.752 204.367 178.649 204.318 178.529C204.268 178.408 204.255 178.276 204.28 178.148C204.305 178.02 204.368 177.902 204.461 177.81C204.553 177.718 204.67 177.655 204.798 177.629C204.926 177.604 205.059 177.617 205.179 177.667C205.3 177.717 205.403 177.801 205.475 177.91C205.548 178.018 205.586 178.146 205.586 178.276C205.586 178.451 205.517 178.619 205.393 178.743C205.27 178.866 205.102 178.936 204.927 178.936Z" fill="#A6A6A6"/>
<path d="M204.71 192.94H205.149C206.556 192.94 207.697 191.799 207.697 190.392C207.697 188.985 206.556 187.845 205.149 187.845H204.71C203.303 187.845 202.162 188.985 202.162 190.392C202.162 191.799 203.303 192.94 204.71 192.94Z" fill="white"/>
<path d="M193.215 191.923H176.622C175.42 191.923 174.446 192.897 174.446 194.099C174.446 195.302 175.42 196.276 176.622 196.276H193.215C194.417 196.276 195.391 195.302 195.391 194.099C195.391 192.897 194.417 191.923 193.215 191.923Z" fill="#C7C7C7"/>
<path d="M191.258 194.099C191.257 193.871 191.324 193.647 191.45 193.457C191.576 193.266 191.756 193.117 191.967 193.029C192.178 192.941 192.41 192.917 192.634 192.961C192.858 193.005 193.064 193.115 193.226 193.276C193.388 193.437 193.499 193.643 193.544 193.867C193.589 194.091 193.566 194.323 193.479 194.534C193.392 194.746 193.244 194.926 193.054 195.053C192.864 195.18 192.641 195.248 192.412 195.248C192.107 195.248 191.814 195.127 191.598 194.912C191.382 194.697 191.26 194.405 191.258 194.099Z" fill="white"/>
<path d="M191.753 194.1C191.753 193.969 191.791 193.842 191.864 193.733C191.936 193.625 192.039 193.54 192.16 193.49C192.28 193.44 192.413 193.427 192.541 193.453C192.669 193.478 192.786 193.541 192.879 193.633C192.971 193.725 193.034 193.843 193.059 193.971C193.085 194.099 193.071 194.231 193.022 194.352C192.972 194.472 192.887 194.575 192.779 194.648C192.67 194.72 192.543 194.759 192.412 194.759C192.237 194.759 192.07 194.69 191.946 194.566C191.822 194.442 191.753 194.274 191.753 194.1Z" fill="#A6A6A6"/>
<path d="M179.92 196.27H180.662C181.864 196.27 182.838 195.296 182.838 194.094C182.838 192.892 181.864 191.918 180.662 191.918H179.92C178.718 191.918 177.743 192.892 177.743 194.094C177.743 195.296 178.718 196.27 179.92 196.27Z" fill="white"/>
<path d="M129.497 186.938C124.293 193.992 118.875 202.144 117.458 210.96C117.422 211.187 117.591 211.571 117.636 211.346C118.787 206.746 123.236 204.389 126.838 201.305C127.539 200.704 128.154 199.963 128.65 199.023C130.508 195.49 130.272 190.884 129.92 187.031C129.882 186.811 129.601 186.8 129.497 186.938Z" fill="#38A3A5"/>
<path d="M120.011 204.118C122.371 198.823 125.391 193.511 129.235 189.15C129.262 189.12 129.316 189.087 129.325 189.126C129.327 189.136 129.318 189.151 129.311 189.159C128.391 190.292 127.551 191.462 126.764 192.658C126.096 193.673 127.5 194.768 128.304 193.857C128.337 193.819 128.387 193.857 128.354 193.907C126.753 195.822 125.029 197.892 122.974 199.344C122.851 199.431 122.749 199.543 122.677 199.675C122.199 200.549 121.721 201.431 121.239 202.31C121.186 202.408 121.299 202.523 121.399 202.473C121.421 202.462 121.444 202.451 121.466 202.44C121.476 202.435 121.488 202.438 121.495 202.447C121.503 202.459 121.499 202.475 121.487 202.482C121.368 202.542 121.251 202.604 121.131 202.66C121.057 202.695 120.995 202.75 120.955 202.821L120.181 204.212C120.115 204.327 119.961 204.228 120.011 204.118Z" fill="#263238"/>
<path d="M121.754 202.296C121.756 202.27 121.781 202.254 121.803 202.242C123.209 201.455 124.55 200.559 125.814 199.562C125.874 199.513 125.834 199.637 125.776 199.687C124.574 200.713 123.262 201.604 121.864 202.342C121.841 202.354 121.816 202.367 121.792 202.357C121.78 202.352 121.769 202.344 121.763 202.333C121.756 202.322 121.753 202.309 121.754 202.296Z" fill="#263238"/>
<path d="M116.784 209.972C116.784 210.082 116.982 210.082 116.977 209.972C116.977 208.516 116.977 207.059 116.983 205.601C116.995 202.638 117.989 199.934 120.143 197.899C120.276 197.774 120.404 197.645 120.527 197.512C121.338 196.622 122.042 195.641 122.627 194.588C123.984 192.073 124.815 189.307 125.067 186.459C125.38 183.305 124.182 172.901 122.869 173.269C122.182 173.456 119.95 178.611 119.362 180.309C118.4 183.119 117.697 186.011 117.263 188.949C116.169 195.874 116.257 202.992 116.784 209.972Z" fill="#38A3A5"/>
<path d="M116.723 197.288C116.736 197.266 116.752 197.244 116.753 197.219C116.917 193.5 117.755 189.749 118.538 186.146C119.384 182.249 120.373 178.584 122.385 175.11C122.392 175.097 122.404 175.087 122.419 175.083C122.433 175.079 122.449 175.081 122.462 175.088C122.475 175.095 122.485 175.108 122.489 175.122C122.493 175.136 122.491 175.152 122.484 175.165C121.259 177.645 120.288 180.241 119.584 182.914C119.549 183.048 119.757 183.145 119.835 183.03C119.89 182.953 120.022 183.03 119.967 183.107C119.791 183.418 119.584 183.711 119.349 183.981C119.343 183.988 119.336 183.995 119.326 183.995C119.319 183.995 119.311 183.998 119.309 184.005C118.634 186.745 118.14 189.544 117.722 192.338C117.715 192.379 117.763 192.401 117.787 192.368C117.793 192.361 117.801 192.357 117.809 192.358C117.826 192.36 117.851 192.367 117.84 192.39C117.837 192.396 117.831 192.405 117.824 192.418C117.728 192.59 117.66 192.776 117.631 192.971C117.425 194.367 119.021 195.207 119.938 194.134C121.239 192.613 122.321 190.922 123.061 189.015C121.985 191.948 120.353 194.603 117.948 196.562C117.373 197.031 116.951 197.677 116.856 198.413C116.856 198.49 116.713 198.468 116.713 198.413C116.713 198.091 116.713 197.764 116.742 197.437C116.744 197.412 116.731 197.388 116.72 197.366C116.714 197.354 116.711 197.34 116.712 197.326C116.712 197.313 116.716 197.3 116.723 197.288Z" fill="#263238"/>
<path d="M117.971 191.857C119.966 189.032 121.708 186.036 123.175 182.905C123.194 182.864 123.228 182.816 123.262 182.845C123.277 182.859 123.266 182.88 123.259 182.899C122.085 186.197 120.328 189.258 118.07 191.934C118.026 191.983 117.933 191.917 117.971 191.857Z" fill="#263238"/>
<path d="M120.725 182.195C120.625 182.326 120.639 182.051 120.721 181.907C121.478 180.573 122.251 179.268 122.983 177.913C123.016 177.852 123.125 177.791 123.094 177.853C122.468 179.383 121.673 180.84 120.725 182.195Z" fill="#263238"/>
<path d="M112.853 198.677C114.266 200.39 114.826 202.62 114.531 204.822C114.423 205.63 114.282 206.434 114.108 207.232C114.104 207.248 114.104 207.265 114.106 207.281C114.128 207.423 114.322 207.436 114.358 207.297C114.85 205.409 115.142 203.473 115.23 201.523C115.233 201.455 115.261 201.389 115.261 201.321C115.261 201.253 115.236 201.186 115.237 201.118C115.313 198.216 115.094 195.314 114.586 192.456C113.674 187.037 111.679 181.843 107.903 177.781C107.871 177.754 107.834 177.735 107.794 177.725C107.754 177.715 107.713 177.714 107.672 177.722C107.632 177.731 107.594 177.748 107.562 177.774C107.529 177.799 107.503 177.832 107.485 177.869C105.957 181.744 106.49 186.366 107.787 190.235C108.495 192.329 109.504 194.308 110.783 196.111C111.425 197.003 112.154 197.829 112.853 198.677Z" fill="#38A3A5"/>
<path d="M108.305 179.56C108.341 179.565 108.363 179.599 108.382 179.631C111.945 185.43 114.4 192.304 114.729 199.144C114.729 199.265 114.531 199.298 114.515 199.177C114.346 197.985 113.725 196.916 112.889 196.049C111.899 195.024 111.005 193.908 110.218 192.717C110.188 192.672 110.189 192.567 110.222 192.61C110.561 193.024 110.906 193.433 111.257 193.837C112.137 194.847 113.647 194.058 113.333 192.756C113.279 192.536 113.172 192.334 113.026 192.16C113.006 192.136 112.985 192.112 112.965 192.087C112.871 191.978 113.009 191.912 113.069 191.983C113.093 192.008 113.134 191.985 113.126 191.952C112.648 190.062 112.065 188.201 111.38 186.377C111.32 186.217 111.233 186.068 111.122 185.938C110.259 184.929 109.326 184.039 108.706 182.822C108.699 182.809 108.704 182.793 108.716 182.785C108.729 182.778 108.745 182.781 108.754 182.793C109.297 183.533 109.794 184.279 110.387 184.97C110.549 185.154 110.825 184.975 110.73 184.749C110.005 183.022 109.174 181.34 108.243 179.714C108.225 179.682 108.205 179.647 108.218 179.612C108.224 179.595 108.237 179.581 108.252 179.571C108.268 179.562 108.287 179.558 108.305 179.56Z" fill="#263238"/>
<path d="M109 186.74C109.042 186.701 109.075 186.776 109.109 186.821C110.251 188.351 111.547 189.82 112.608 191.406C112.635 191.45 112.569 191.499 112.531 191.461C111.172 190.07 109.987 188.52 109.003 186.843C108.984 186.811 108.973 186.765 109 186.74Z" fill="#263238"/>
<path d="M112.789 191.763L112.839 191.813C112.853 191.827 112.855 191.845 112.849 191.858C112.83 191.901 112.772 191.851 112.739 191.818C112.701 191.785 112.756 191.73 112.789 191.763Z" fill="#263238"/>
<path d="M102.742 190.752C103.166 193.998 104.474 197.064 106.523 199.617C107.366 200.618 108.409 201.432 109.585 202.008C110.766 202.589 111.991 203.252 113.213 203.771C113.505 203.895 113.741 204.126 113.851 204.424C114.362 205.798 114.759 207.212 115.037 208.652C115.058 208.763 115.215 208.771 115.249 208.664C115.254 208.65 115.256 208.634 115.254 208.619C114.362 201.066 109.468 194.606 103.209 190.455C103.16 190.425 103.103 190.409 103.046 190.409C102.988 190.41 102.931 190.427 102.883 190.457C102.834 190.488 102.795 190.532 102.77 190.584C102.745 190.637 102.735 190.695 102.742 190.752Z" fill="#38A3A5"/>
<path d="M104.907 192.989C104.828 192.92 105.016 192.938 105.1 193.001C108.483 195.549 111.182 198.896 112.954 202.744C112.998 202.849 112.86 202.937 112.8 202.832C112.248 201.874 111.262 201.267 110.289 200.741C109.472 200.299 108.714 199.696 108.062 199.111C108.016 199.066 108.13 199.09 108.179 199.133C108.707 199.602 109.289 200.007 109.914 200.337C110.457 200.614 110.989 199.933 110.643 199.431C110.507 199.233 110.371 199.037 110.235 198.842C110.137 198.702 109.999 198.596 109.841 198.533C108.388 197.954 107.023 197.174 105.787 196.215C105.748 196.182 105.787 196.116 105.831 196.144C105.932 196.204 106.033 196.265 106.134 196.325C107.059 196.872 107.861 195.88 107.117 195.104C107.04 195.024 106.952 194.958 106.854 194.907C106.425 194.682 105.991 194.453 105.577 194.211C105.563 194.202 105.541 194.198 105.539 194.182C105.534 194.143 105.58 194.135 105.616 194.148C105.625 194.152 105.634 194.155 105.643 194.159C105.79 194.214 105.968 193.974 105.856 193.865C105.552 193.569 105.236 193.277 104.907 192.989Z" fill="#263238"/>
<path d="M105.045 195.605C105.107 195.644 105.167 195.686 105.225 195.73C105.262 195.759 105.297 195.831 105.254 195.814C105.165 195.775 105.08 195.727 105.001 195.671C104.957 195.643 105.001 195.572 105.045 195.605Z" fill="#263238"/>
<path d="M124.271 216.938C124.678 221.533 121.058 225.487 116.446 225.487C111.834 225.487 108.215 221.533 108.622 216.938L109.249 209.856C109.424 207.905 111.058 206.41 113.017 206.41H119.882C121.839 206.41 123.472 207.906 123.644 209.856L124.271 216.938Z" fill="#455A64"/>
<path d="M123.479 207.983C123.567 208.99 122.774 209.856 121.763 209.856H111.133C110.121 209.856 109.327 208.988 109.417 207.98C109.496 207.091 110.241 206.41 111.133 206.41H121.763C122.656 206.41 123.401 207.093 123.479 207.983Z" fill="#263238"/>
<path d="M122.454 203.997H110.439C109.497 203.997 108.733 204.762 108.733 205.704C108.733 206.646 109.497 207.411 110.439 207.411H122.454C123.396 207.411 124.16 206.646 124.16 205.704C124.16 204.762 123.396 203.997 122.454 203.997Z" fill="#455A64"/>
<path d="M117.919 166.938C115.484 168.378 113.028 169.774 110.565 171.159C108.103 172.544 105.619 173.907 103.151 175.264C100.684 176.622 98.2048 177.958 95.6821 179.277L91.9283 181.244C90.6697 181.882 89.4166 182.541 88.147 183.168C89.3616 182.442 90.5927 181.744 91.8129 181.03L95.5007 178.941C97.963 177.556 100.447 176.193 102.915 174.836C105.383 173.478 107.861 172.148 110.384 170.829C112.907 169.51 115.391 168.202 117.919 166.938Z" fill="#DBDBDB"/>
<path d="M90.241 166.938C92.5933 168.037 94.9236 169.224 97.243 170.4C99.5623 171.577 101.871 172.791 104.19 173.984C106.509 175.176 108.79 176.419 111.077 177.666L114.506 179.54C115.638 180.183 116.782 180.81 117.908 181.464C116.727 180.914 115.567 180.326 114.391 179.755L110.901 178.001C108.581 176.825 106.273 175.611 103.959 174.418C101.645 173.225 99.359 171.983 97.0726 170.736C94.7862 169.488 92.5108 168.235 90.241 166.938Z" fill="#DBDBDB"/>
<path d="M146.015 166.938C143.586 168.378 141.129 169.774 138.667 171.159C136.205 172.544 133.721 173.907 131.247 175.264C128.774 176.622 126.301 177.958 123.778 179.277L120.024 181.244C118.766 181.882 117.513 182.541 116.249 183.168C117.463 182.442 118.689 181.744 119.909 181.03L123.597 178.941C126.059 177.556 128.543 176.193 131.016 174.836C133.49 173.478 135.963 172.148 138.486 170.829C141.008 169.51 143.487 168.202 146.015 166.938Z" fill="#DBDBDB"/>
<path d="M118.348 166.938C120.7 168.037 123.031 169.224 125.355 170.4C127.68 171.577 129.983 172.791 132.297 173.984C134.611 175.176 136.903 176.419 139.189 177.666L142.613 179.54C143.751 180.183 144.888 180.81 146.015 181.464C144.839 180.914 143.674 180.326 142.503 179.755L139.013 178.001C136.688 176.825 134.385 175.611 132.072 174.418C129.758 173.225 127.466 171.983 125.18 170.736C122.893 169.488 120.607 168.235 118.348 166.938Z" fill="#DBDBDB"/>
<path d="M143.613 163.047C142.183 163.047 141.095 164.33 141.329 165.74L142.366 171.978L152.326 225.765C152.399 226.155 152.739 226.438 153.136 226.438C153.635 226.438 154.019 225.999 153.952 225.505L146.746 171.978L145.91 165.083C145.769 163.921 144.783 163.047 143.613 163.047Z" fill="#DBDBDB"/>
<path d="M145.91 165.083C145.769 163.921 144.783 163.047 143.613 163.047C142.183 163.047 141.095 164.33 141.329 165.74L142.058 170.124C142.236 171.194 143.161 171.978 144.245 171.978C145.575 171.978 146.605 170.815 146.445 169.494L145.91 165.083Z" fill="#C7C7C7"/>
<path d="M109.334 225.505C109.267 225.999 109.651 226.438 110.15 226.438C110.547 226.438 110.887 226.155 110.96 225.765L120.92 171.978L121.96 165.741C122.195 164.331 121.108 163.047 119.678 163.047C118.508 163.047 117.522 163.92 117.381 165.082L116.545 171.978L109.334 225.505Z" fill="#DBDBDB"/>
<path d="M119.678 163.047C118.508 163.047 117.522 163.92 117.381 165.082L116.846 169.497C116.686 170.816 117.716 171.978 119.044 171.978C120.127 171.978 121.051 171.195 121.229 170.128L121.96 165.741C122.195 164.331 121.108 163.047 119.678 163.047Z" fill="#C7C7C7"/>
<path d="M79.0833 225.505C79.0167 225.999 79.4009 226.438 79.8994 226.438C80.2963 226.438 80.6368 226.155 80.7091 225.765L90.6697 171.978L91.7098 165.741C91.945 164.331 90.8574 163.047 89.4276 163.047C88.2575 163.047 87.2716 163.92 87.1308 165.082L86.2948 171.978L79.0833 225.505Z" fill="#DBDBDB"/>
<path d="M86.5954 169.497C86.4355 170.816 87.4651 171.978 88.7938 171.978C89.8762 171.978 90.8001 171.195 90.9781 170.128L91.7097 165.741C91.9449 164.331 90.8573 163.047 89.4275 163.047C88.2574 163.047 87.2715 163.92 87.1307 165.082L86.5954 169.497Z" fill="#C7C7C7"/>
<path d="M82.4036 146.407C81.9299 157.77 91.0137 167.24 102.386 167.24H151.544C153.693 167.24 155.435 165.498 155.435 163.349C155.435 161.2 153.693 159.458 151.544 159.458H140.536C133.191 159.458 126.942 154.104 125.814 146.846L120.946 115.511C119.523 106.357 111.642 99.6054 102.378 99.6054C92.3048 99.6054 84.0235 107.549 83.604 117.613L82.4036 146.407Z" fill="#DBDBDB"/>
<path d="M81.6224 165.147C81.5748 166.288 82.4877 167.24 83.6305 167.24C84.7102 167.24 85.5969 166.387 85.6388 165.308L88.1135 101.599C88.1557 100.511 87.2848 99.6054 86.1956 99.6054C85.1667 99.6054 84.3208 100.417 84.278 101.445L81.6224 165.147Z" fill="#C7C7C7"/>
<path d="M63.0031 192.473H52.1209C51.4804 192.473 50.9612 192.992 50.9612 193.632C50.9612 194.273 51.4804 194.792 52.1209 194.792H63.0031C63.6436 194.792 64.1628 194.273 64.1628 193.632C64.1628 192.992 63.6436 192.473 63.0031 192.473Z" fill="#455A64"/>
<path d="M71.1789 225.601C71.2548 226.038 70.9179 226.438 70.4738 226.438C70.1363 226.438 69.8446 226.203 69.774 225.873L58.2709 172.159L57.6059 169.065L55.5174 159.32L54.7425 155.687L51.813 142.052L51.4234 140.231C51.0978 138.71 52.2575 137.275 53.8132 137.275C55.0016 137.275 56.0177 138.13 56.2211 139.301L56.6991 142.052L57.2432 145.184L57.6059 147.273L59.6889 159.32L60.3649 163.195L71.1789 225.601Z" fill="#455A64"/>
<path d="M53.8603 137.275C55.0214 137.275 56.0143 138.111 56.2131 139.255C56.4668 140.715 55.3426 142.052 53.8603 142.052H53.744C52.6178 142.052 51.6446 141.265 51.4089 140.163C51.0907 138.677 52.2239 137.275 53.744 137.275H53.8603Z" fill="#263238"/>
<path d="M60.2958 162.799C60.3414 163.06 60.3338 163.328 60.2734 163.587L58.9909 169.077C58.8185 169.815 57.7651 169.806 57.6059 169.065L55.5174 159.32L54.8423 156.156C54.7766 155.847 54.7803 155.528 54.8534 155.221L56.7522 147.247C56.8619 146.785 57.5248 146.806 57.6059 147.273L59.6889 159.32L60.2958 162.799Z" fill="#263238"/>
<path d="M61.3931 137.275C62.9488 137.275 64.1086 138.71 63.783 140.231L63.3933 142.052L59.6889 159.32L57.6059 169.065L45.4319 225.875C45.3615 226.204 45.071 226.438 44.7348 226.438C44.2924 226.438 43.9568 226.04 44.0323 225.604L55.5174 159.32L57.6059 147.273L58.5073 142.052L58.9852 139.301C59.1886 138.13 60.2048 137.275 61.3931 137.275Z" fill="#455A64"/>
<path d="M61.4623 137.275C62.9824 137.275 64.1156 138.677 63.7975 140.163C63.5618 141.265 62.5886 142.052 61.4623 142.052H61.3461C59.8638 142.052 58.7395 140.715 58.9933 139.255C59.1921 138.111 60.185 137.275 61.3461 137.275H61.4623Z" fill="#263238"/>
<path d="M181.449 192.473H170.567C169.926 192.473 169.407 192.992 169.407 193.632C169.407 194.273 169.926 194.792 170.567 194.792H181.449C182.089 194.792 182.609 194.273 182.609 193.632C182.609 192.992 182.089 192.473 181.449 192.473Z" fill="#455A64"/>
<path d="M189.625 225.601C189.701 226.038 189.364 226.438 188.92 226.438C188.582 226.438 188.291 226.203 188.22 225.873L176.717 172.159L176.052 169.065L173.963 159.32L173.188 155.687L170.259 142.052L169.869 140.231C169.544 138.71 170.704 137.275 172.259 137.275C173.448 137.275 174.464 138.13 174.667 139.301L175.145 142.052L175.689 145.184L176.052 147.273L178.135 159.32L178.811 163.195L189.625 225.601Z" fill="#455A64"/>
<path d="M172.306 137.275C173.467 137.275 174.46 138.111 174.659 139.255C174.913 140.715 173.789 142.052 172.306 142.052H172.19C171.064 142.052 170.091 141.265 169.855 140.163C169.537 138.677 170.67 137.275 172.19 137.275H172.306Z" fill="#263238"/>
<path d="M178.742 162.799C178.787 163.06 178.78 163.328 178.719 163.587L177.437 169.077C177.265 169.815 176.211 169.806 176.052 169.065L173.963 159.32L173.288 156.156C173.223 155.847 173.226 155.528 173.299 155.221L175.198 147.247C175.308 146.785 175.971 146.806 176.052 147.273L178.135 159.32L178.742 162.799Z" fill="#263238"/>
<path d="M179.839 137.275C181.395 137.275 182.555 138.71 182.229 140.231L181.839 142.052L178.135 159.32L176.052 169.065L163.878 225.875C163.808 226.204 163.517 226.438 163.181 226.438C162.738 226.438 162.403 226.04 162.478 225.604L173.963 159.32L176.052 147.273L176.953 142.052L177.431 139.301C177.635 138.13 178.651 137.275 179.839 137.275Z" fill="#455A64"/>
<path d="M179.908 137.275C181.428 137.275 182.561 138.677 182.243 140.163C182.008 141.265 181.034 142.052 179.908 142.052H179.792C178.31 142.052 177.185 140.715 177.439 139.255C177.638 138.111 178.631 137.275 179.792 137.275H179.908Z" fill="#263238"/>
<path d="M191.009 133.786H42.6483C41.6846 133.786 40.9033 134.567 40.9033 135.531C40.9033 136.494 41.6846 137.276 42.6483 137.276H191.009C191.973 137.276 192.754 136.494 192.754 135.531C192.754 134.567 191.973 133.786 191.009 133.786Z" fill="#455A64"/>
<path d="M194.175 127.119H39.4825C37.6416 127.119 36.1492 128.611 36.1492 130.452C36.1492 132.293 37.6416 133.786 39.4825 133.786H194.175C196.016 133.786 197.509 132.293 197.509 130.452C197.509 128.611 196.016 127.119 194.175 127.119Z" fill="#37474F"/>
<path d="M120.13 126.789H121.059C127.34 126.789 132.433 121.697 132.433 115.415C132.433 109.133 127.34 104.041 121.059 104.041H120.13C113.848 104.041 108.756 109.133 108.756 115.415C108.756 121.697 113.848 126.789 120.13 126.789Z" fill="#EBEBEB"/>
<path d="M99.7585 108.539V122.29C99.7585 124.775 101.773 126.789 104.257 126.789C106.742 126.789 108.756 124.775 108.756 122.29V108.539C108.756 106.055 106.742 104.041 104.257 104.041C101.773 104.041 99.7585 106.055 99.7585 108.539Z" fill="#C7C7C7"/>
<path d="M132.433 115.412H108.756L125.796 115.954C126.76 115.985 127.726 115.946 128.684 115.837L132.433 115.412Z" fill="#C7C7C7"/>
<path d="M108.756 124.041H132.433L115.392 124.583C114.428 124.614 113.463 124.575 112.504 124.466L108.756 124.041Z" fill="#C7C7C7"/>
<path d="M130.804 109.521C131.07 109.445 131.015 109.053 130.738 109.053H117.434L130.73 109.53C130.755 109.531 130.78 109.528 130.804 109.521Z" fill="#C7C7C7"/>
<path d="M110.384 121.162C110.119 121.085 110.174 120.694 110.45 120.694H123.754L110.459 121.171C110.434 121.172 110.409 121.169 110.384 121.162Z" fill="#C7C7C7"/>
<path d="M126.755 106.525H109.838L112.658 106.811L126.755 106.525Z" fill="#C7C7C7"/>
<path d="M130.13 117.852H113.219L116.038 118.138L130.13 117.852Z" fill="#C7C7C7"/>
<path d="M119.731 111.224H108.816C108.776 111.224 108.737 111.232 108.699 111.246C108.357 111.38 108.469 111.889 108.835 111.868L119.731 111.224Z" fill="#EBEBEB"/>
<path d="M135.456 111.224H124.541C124.501 111.224 124.461 111.232 124.424 111.246C124.082 111.38 124.193 111.889 124.56 111.868L135.456 111.224Z" fill="#DBDBDB"/>
<path d="M121.375 121.447H132.284C132.324 121.447 132.364 121.454 132.401 121.469C132.743 121.602 132.632 122.112 132.265 122.09L121.375 121.447Z" fill="#DBDBDB"/>
<path d="M108.756 118.853H100.004C99.9652 118.853 99.9271 118.86 99.8913 118.874C99.5601 119.003 99.6711 119.497 100.026 119.472L108.756 118.853Z" fill="#C7C7C7"/>
<path d="M105.683 115.412H99.838C99.5372 115.412 99.4174 115.023 99.666 114.854C99.7258 114.813 99.798 114.795 99.8698 114.803L105.683 115.412Z" fill="#C7C7C7"/>
<path d="M159.293 11.6627H78.4619C67.4162 11.6627 58.4619 20.617 58.4619 31.6627V152.154C58.4619 163.199 67.4162 172.154 78.4619 172.154H159.293C170.339 172.154 179.293 163.199 179.293 152.154V31.6627C179.293 20.617 170.339 11.6627 159.293 11.6627Z" fill="#38A3A5"/>
<g opacity="0.1">
<path d="M159.293 11.6627H78.4619C67.4162 11.6627 58.4619 20.617 58.4619 31.6627V152.154C58.4619 163.199 67.4162 172.154 78.4619 172.154H159.293C170.339 172.154 179.293 163.199 179.293 152.154V31.6627C179.293 20.617 170.339 11.6627 159.293 11.6627Z" fill="#020100"/>
</g>
<path d="M156.007 11.6627H75.1753C64.1296 11.6627 55.1753 20.617 55.1753 31.6627V152.154C55.1753 163.199 64.1296 172.154 75.1753 172.154H156.007C167.052 172.154 176.007 163.199 176.007 152.154V31.6627C176.007 20.617 167.052 11.6627 156.007 11.6627Z" fill="#38A3A5"/>
<path d="M149.137 18.3237L82.4745 19.1731C71.4297 19.3138 62.5902 28.3815 62.7309 39.4263L64.0635 144.014C64.2042 155.059 73.2719 163.898 84.3167 163.758L150.979 162.908C162.024 162.768 170.863 153.7 170.723 142.655L169.39 38.0672C169.249 27.0224 160.182 18.183 149.137 18.3237Z" fill="#EBEBEB"/>
<path d="M62.9092 37.614L60.6457 142.186C60.4067 153.229 69.1651 162.375 80.2082 162.614L146.86 164.057C157.904 164.296 167.05 155.537 167.289 144.494L169.552 39.9224C169.791 28.8793 161.033 19.7333 149.99 19.4943L83.3373 18.0515C72.2942 17.8125 63.1482 26.5709 62.9092 37.614Z" fill="#DBDBDB"/>
<path d="M148.422 18.7471H81.7541C70.7085 18.7471 61.7542 27.7014 61.7542 38.7471V143.343C61.7542 154.389 70.7084 163.343 81.7541 163.343H148.422C159.468 163.343 168.422 154.389 168.422 143.343V38.7471C168.422 27.7014 159.468 18.7471 148.422 18.7471Z" fill="white"/>
<path d="M85.4367 62.5564C79.23 62.7121 74.1991 57.7506 74.1477 51.5422C74.1477 51.3905 74.2707 51.2674 74.4225 51.2674C80.6335 51.3288 85.6045 56.3473 85.4367 62.5564ZM85.4367 62.5564C85.3665 59.857 85.2698 54.506 85.2299 51.7127C85.2291 51.6579 85.2954 51.6318 85.3342 51.6706C85.3724 51.7088 85.3468 51.7741 85.2927 51.7748C82.1814 51.8111 77.7887 51.8223 74.6386 51.838C74.567 51.8384 74.5317 51.7518 74.5824 51.7011C74.6329 51.6506 74.7193 51.6855 74.7193 51.7569C74.7182 54.9414 74.6919 59.3008 74.6551 62.4122C74.6544 62.4663 74.589 62.492 74.5507 62.4537C74.5119 62.4149 74.5379 62.3486 74.5928 62.3493C77.3869 62.3844 82.7642 62.4916 85.4367 62.5564Z" fill="#C7C7C7"/>
<path d="M91.29 53.4274C99.3638 53.0536 107.503 53.0536 115.577 53.4274C107.498 53.8066 99.3638 53.8011 91.29 53.4274Z" fill="#C7C7C7"/>
<path d="M91.29 56.082C111.999 55.7137 135.022 55.7247 155.748 56.082C135.017 56.4337 112.005 56.4447 91.29 56.082Z" fill="#C7C7C7"/>
<path d="M75.9836 57.8407C75.8073 57.5227 76.1298 57.2653 76.3963 57.5126C76.4016 57.5175 76.4069 57.5225 76.4123 57.5274C76.797 57.8847 77.1652 58.2529 77.5115 58.6267C78.088 59.1947 78.648 59.7759 79.1991 60.3653C79.3897 60.5692 79.2568 60.9017 78.9784 60.9199C78.7252 60.9365 78.548 60.6747 78.6599 60.4469C79.5998 58.535 80.6628 56.6859 81.8424 54.9113C82.4799 53.9513 83.1578 53.0133 83.8759 52.0973C84.4573 51.3548 85.3853 51.9139 84.9971 52.7733C84.53 53.8341 84.0133 54.8728 83.4582 55.8841C82.3506 57.9124 81.1056 59.8625 79.7319 61.7209L79.6421 61.8406C79.3491 62.2313 78.757 62.2122 78.4898 61.8034C77.9072 60.9405 77.3356 60.0721 76.786 59.1872C76.5222 58.7366 76.2364 58.2969 75.9836 57.8407Z" fill="#263238"/>
<path d="M85.4367 83.2106C79.23 83.3664 74.199 78.4049 74.1477 72.1965C74.1477 72.0447 74.2707 71.9217 74.4225 71.9217C80.6335 71.9831 85.6045 77.0016 85.4367 83.2106ZM85.4367 83.2106C85.3665 80.5128 85.2699 75.1663 85.23 72.3717C85.2292 72.3158 85.2971 72.2896 85.3361 72.3296C85.374 72.3685 85.3479 72.4339 85.2935 72.4345C82.1822 72.4707 77.7889 72.4768 74.6386 72.4923C74.567 72.4927 74.5317 72.406 74.5824 72.3554C74.6329 72.3049 74.7193 72.3398 74.7193 72.4112C74.7182 75.5958 74.6919 79.9601 74.6551 83.0665C74.6544 83.1206 74.589 83.1463 74.5507 83.108C74.5119 83.0692 74.5379 83.0029 74.5928 83.0036C77.3869 83.0386 82.7642 83.1458 85.4367 83.2106Z" fill="#C7C7C7"/>
<path d="M91.29 74.0651C99.3638 73.6914 107.503 73.6859 115.577 74.0651C107.498 74.4389 99.3638 74.4389 91.29 74.0651Z" fill="#C7C7C7"/>
<path d="M91.29 76.7142C111.999 76.3515 135.022 76.357 155.748 76.7142C135.017 77.0715 112.005 77.0825 91.29 76.7142Z" fill="#C7C7C7"/>
<path d="M75.9836 78.506C75.8049 78.1835 76.1421 77.9089 76.4123 78.1597C76.797 78.517 77.1652 78.8852 77.5115 79.2589C78.0876 79.8307 78.6471 80.4125 79.1978 81.0016C79.3883 81.2055 79.2547 81.5378 78.9762 81.5548C78.7238 81.5703 78.5482 81.3087 78.6605 81.0821C79.6021 79.1809 80.6649 77.3419 81.8424 75.5766C82.4799 74.6166 83.1578 73.6786 83.8759 72.7626C84.4577 72.0172 85.3865 72.5769 84.9971 73.4386C84.53 74.5048 84.0133 75.5381 83.4582 76.5549C82.3506 78.5814 81.1055 80.5297 79.7319 82.3862L79.6426 82.506C79.3501 82.8982 78.7563 82.879 78.4898 82.4686C77.9072 81.6112 77.3356 80.7429 76.786 79.8525C76.5222 79.4018 76.2364 78.9621 75.9836 78.506Z" fill="#263238"/>
<path d="M85.4367 103.826C79.23 103.982 74.1991 99.0207 74.1477 92.8123C74.1477 92.6696 74.2634 92.554 74.406 92.554H74.4225C80.6335 92.6153 85.6041 97.6339 85.4367 103.843V103.826ZM85.4367 103.826C85.3665 101.127 85.2698 95.776 85.2299 92.9827C85.2291 92.9279 85.2954 92.9018 85.3342 92.9406C85.3724 92.9788 85.3468 93.0442 85.2927 93.0448C82.1814 93.0812 77.7887 93.0924 74.6386 93.1081C74.567 93.1084 74.5317 93.0218 74.5824 92.9712C74.6329 92.9206 74.7193 92.9555 74.7193 93.027C74.7182 96.2115 74.6919 100.571 74.6551 103.682C74.6544 103.736 74.589 103.762 74.5507 103.724C74.5119 103.685 74.5379 103.619 74.5928 103.619C77.3869 103.654 82.7642 103.762 85.4367 103.826Z" fill="#C7C7C7"/>
<path d="M91.29 94.6974C99.3638 94.3237 107.503 94.3237 115.577 94.6974C107.498 95.0711 99.3638 95.0711 91.29 94.6974Z" fill="#C7C7C7"/>
<path d="M91.29 97.352C111.999 96.9838 135.022 96.9948 155.748 97.352C135.017 97.7038 112.005 97.7148 91.29 97.352Z" fill="#C7C7C7"/>
<path d="M85.4367 124.459C79.23 124.614 74.199 119.653 74.1477 113.445C74.1477 113.293 74.2707 113.17 74.4225 113.17C80.6334 113.231 85.6045 118.25 85.4367 124.459ZM85.4367 124.459C85.3665 121.761 85.2699 116.414 85.23 113.62C85.2292 113.564 85.2971 113.538 85.3361 113.578C85.374 113.617 85.3479 113.682 85.2935 113.683C82.1822 113.719 77.7889 113.725 74.6386 113.74C74.567 113.741 74.5317 113.654 74.5824 113.603C74.6329 113.553 74.7193 113.588 74.7193 113.659C74.7182 116.844 74.6919 121.208 74.6551 124.315C74.6544 124.369 74.589 124.394 74.5507 124.356C74.5119 124.317 74.5379 124.251 74.5928 124.252C77.3869 124.287 82.7642 124.394 85.4367 124.459Z" fill="#C7C7C7"/>
<path d="M91.29 115.335C99.3638 114.956 107.503 114.956 115.577 115.335C107.498 115.709 99.3638 115.709 91.29 115.335Z" fill="#C7C7C7"/>
<path d="M91.29 117.984C111.999 117.622 135.022 117.627 155.748 117.984C135.017 118.342 112.005 118.353 91.29 117.984Z" fill="#C7C7C7"/>
<path d="M85.4367 145.096C79.2335 145.252 74.1991 140.287 74.1477 134.082C74.1477 133.931 74.2707 133.808 74.4225 133.808C80.6335 133.869 85.6041 138.887 85.4367 145.096ZM85.4367 145.096C85.3665 142.398 85.2698 137.021 85.2299 134.253C85.2291 134.198 85.2954 134.172 85.3342 134.211C85.3724 134.249 85.3468 134.314 85.2927 134.315C82.1814 134.351 77.7887 134.362 74.6386 134.378C74.567 134.378 74.5317 134.292 74.5824 134.241C74.6329 134.191 74.7193 134.226 74.7193 134.297C74.7182 137.482 74.6919 141.841 74.6551 144.952C74.6544 145.006 74.589 145.032 74.5507 144.994C74.5119 144.955 74.5379 144.889 74.5928 144.889C77.3869 144.924 82.7642 145.032 85.4367 145.096Z" fill="#C7C7C7"/>
<path d="M91.29 135.973C99.3638 135.599 107.503 135.599 115.577 135.973C107.498 136.347 99.3638 136.347 91.29 135.973Z" fill="#C7C7C7"/>
<path d="M91.29 138.622C111.999 138.254 135.022 138.265 155.748 138.622C135.017 138.974 112.005 138.985 91.29 138.622Z" fill="#C7C7C7"/>
<path d="M105.058 34.1197C104.241 34.1197 103.579 34.7816 103.579 35.5981V39.0661C103.579 39.2017 103.525 39.3317 103.429 39.4276C103.334 39.5234 103.204 39.5773 103.068 39.5773C102.932 39.5773 102.802 39.5234 102.707 39.4276C102.611 39.3317 102.557 39.2017 102.557 39.0661V35.5926C102.557 34.7791 101.897 34.1197 101.084 34.1197C100.948 34.1182 100.818 34.0631 100.722 33.9664C100.626 33.8697 100.573 33.7391 100.573 33.603C100.572 33.5357 100.585 33.4689 100.61 33.4066C100.636 33.3442 100.673 33.2876 100.721 33.24C100.768 33.1923 100.825 33.1547 100.887 33.1293C100.95 33.1039 101.017 33.0912 101.084 33.0919H105.058C105.125 33.0912 105.192 33.1039 105.254 33.1293C105.316 33.1547 105.373 33.1923 105.421 33.24C105.468 33.2876 105.506 33.3442 105.531 33.4066C105.557 33.4689 105.569 33.5357 105.569 33.603C105.561 33.7366 105.505 33.8628 105.411 33.9579C105.317 34.053 105.191 34.1105 105.058 34.1197Z" fill="#38A3A5"/>
<path d="M109.936 39.1226C109.696 38.4867 109.087 38.0658 108.407 38.0658C107.728 38.0658 107.119 38.4867 106.879 39.1226L106.822 39.275C106.783 39.3714 106.716 39.4539 106.63 39.5117C106.544 39.5696 106.442 39.6001 106.338 39.5992C106.279 39.5991 106.219 39.5898 106.162 39.5718C106.037 39.5181 105.936 39.4197 105.879 39.2958C105.822 39.1719 105.814 39.0313 105.855 38.9012L107.91 33.4052C107.953 33.3096 108.022 33.2283 108.11 33.1708C108.198 33.1134 108.3 33.0822 108.405 33.0809C108.51 33.0822 108.612 33.1134 108.699 33.1708C108.787 33.2283 108.856 33.3096 108.899 33.4052L110.955 38.9012C110.996 39.0313 110.987 39.1719 110.93 39.2958C110.873 39.4197 110.772 39.5181 110.647 39.5718C110.59 39.5898 110.531 39.5991 110.471 39.5992C110.368 39.6005 110.267 39.5701 110.181 39.5121C110.096 39.4541 110.03 39.3714 109.993 39.275L109.936 39.1226ZM108.405 37.0436C108.769 37.0436 109.021 36.6796 108.892 36.3389C108.723 35.8888 108.086 35.8888 107.917 36.3389C107.789 36.6796 108.041 37.0436 108.405 37.0436Z" fill="#38A3A5"/>
<path d="M111.862 37.9834C111.902 37.9342 111.952 37.8936 112.008 37.8636C112.064 37.8337 112.126 37.8152 112.189 37.8091C112.252 37.8029 112.316 37.8093 112.377 37.8279C112.438 37.8465 112.494 37.8769 112.543 37.9174C113.042 38.3422 113.665 38.5931 114.319 38.6319C114.734 38.6416 115.141 38.5205 115.484 38.2857C115.599 38.2149 115.694 38.1175 115.763 38.0017C115.832 37.8859 115.872 37.7552 115.88 37.6206C115.882 37.514 115.853 37.409 115.797 37.3184C115.725 37.207 115.629 37.1132 115.517 37.0435C115.123 36.8225 114.693 36.6736 114.247 36.6039C113.834 36.5352 113.431 36.4133 113.049 36.2411C112.697 36.0863 112.396 35.8348 112.181 35.5156C112.041 35.2856 111.968 35.0209 111.972 34.7517C111.981 34.4832 112.053 34.2205 112.182 33.9848C112.31 33.7491 112.493 33.5468 112.714 33.3942C113.187 33.0687 113.75 32.8978 114.324 32.905C115.059 32.9424 115.766 33.201 116.352 33.647C116.456 33.7182 116.527 33.8274 116.551 33.9508C116.574 34.0742 116.548 34.202 116.479 34.3065C116.446 34.3602 116.402 34.4068 116.351 34.4432C116.299 34.4797 116.241 34.5054 116.179 34.5188C116.118 34.5321 116.054 34.5328 115.992 34.5209C115.93 34.509 115.871 34.4847 115.819 34.4494C115.394 34.101 114.872 33.8918 114.324 33.8503C113.951 33.845 113.586 33.9565 113.28 34.1691C113.178 34.2304 113.093 34.3155 113.032 34.417C112.971 34.5185 112.935 34.6333 112.928 34.7517C112.922 34.8444 112.945 34.9367 112.994 35.0155C113.059 35.112 113.143 35.1942 113.241 35.2573C113.601 35.465 113.996 35.603 114.407 35.664C114.85 35.7413 115.281 35.8723 115.693 36.0543C116.069 36.2206 116.39 36.4891 116.621 36.8292C116.768 37.0672 116.846 37.3411 116.847 37.6206C116.838 37.9073 116.76 38.1875 116.62 38.438C116.481 38.6886 116.283 38.902 116.044 39.0606C115.544 39.4218 114.941 39.6143 114.324 39.6102C113.45 39.571 112.614 39.2445 111.944 38.6814C111.893 38.6412 111.85 38.5911 111.818 38.5342C111.786 38.4772 111.765 38.4145 111.758 38.3496C111.75 38.2847 111.755 38.2189 111.773 38.156C111.791 38.0932 111.821 38.0345 111.862 37.9834Z" fill="#38A3A5"/>
<path d="M118.27 39.0881V33.647C118.27 33.5114 118.324 33.3814 118.42 33.2856C118.516 33.1897 118.646 33.1359 118.781 33.1359C118.917 33.1359 119.047 33.1897 119.143 33.2856C119.239 33.3814 119.293 33.5114 119.293 33.647C119.293 34.6311 120.483 35.1231 121.178 34.4259L122.304 33.2953C122.352 33.2467 122.408 33.2081 122.47 33.1818C122.533 33.1555 122.599 33.1419 122.667 33.1419C122.735 33.1419 122.802 33.1555 122.864 33.1818C122.926 33.2081 122.983 33.2467 123.03 33.2953C123.125 33.3919 123.179 33.5222 123.179 33.658C123.179 33.7938 123.125 33.9241 123.03 34.0207C121.86 35.1845 121.733 37.035 122.734 38.3472L123.052 38.7638C123.095 38.815 123.128 38.8746 123.148 38.9389C123.168 39.0031 123.174 39.0708 123.167 39.1377C123.16 39.2045 123.139 39.2692 123.106 39.3278C123.073 39.3864 123.028 39.4376 122.975 39.4783C122.886 39.5577 122.77 39.6009 122.651 39.5993C122.578 39.5977 122.506 39.5801 122.44 39.5479C122.375 39.5156 122.317 39.4693 122.271 39.4124L120.881 37.5925C120.553 37.1639 119.922 37.1254 119.545 37.5111C119.383 37.6765 119.293 37.8986 119.293 38.1299V39.0881C119.293 39.2237 119.239 39.3537 119.143 39.4495C119.047 39.5454 118.917 39.5993 118.781 39.5993C118.646 39.5993 118.516 39.5454 118.42 39.4495C118.324 39.3537 118.27 39.2237 118.27 39.0881Z" fill="#38A3A5"/>
<path d="M124.624 37.9834C124.663 37.9338 124.712 37.8926 124.768 37.8624C124.824 37.8321 124.885 37.8133 124.948 37.8072C125.011 37.801 125.075 37.8076 125.135 37.8265C125.195 37.8455 125.252 37.8764 125.3 37.9174C125.799 38.3415 126.422 38.5923 127.075 38.6319C127.49 38.6416 127.898 38.5205 128.24 38.2857C128.356 38.2159 128.453 38.1189 128.523 38.003C128.593 37.8871 128.634 37.7558 128.641 37.6206C128.644 37.5132 128.614 37.4075 128.553 37.3184C128.482 37.2083 128.389 37.1146 128.279 37.0435C127.883 36.8216 127.452 36.6727 127.004 36.6039C126.59 36.5352 126.187 36.4133 125.805 36.2411C125.454 36.0875 125.154 35.8356 124.943 35.5156C124.798 35.2872 124.724 35.0218 124.728 34.7517C124.737 34.4832 124.809 34.2205 124.938 33.9848C125.067 33.7491 125.249 33.5468 125.47 33.3942C125.944 33.0687 126.506 32.8978 127.081 32.905C127.816 32.9414 128.523 33.2001 129.109 33.647C129.215 33.7199 129.288 33.832 129.312 33.9588C129.335 34.0856 129.308 34.2166 129.235 34.323C129.162 34.4294 129.05 34.5025 128.923 34.5262C128.796 34.5499 128.665 34.5223 128.559 34.4494C128.134 34.101 127.612 33.8918 127.064 33.8503C126.691 33.845 126.326 33.9565 126.02 34.1691C125.919 34.2314 125.835 34.3168 125.774 34.418C125.713 34.5193 125.676 34.6337 125.668 34.7517C125.664 34.8441 125.687 34.9357 125.734 35.0155C125.802 35.1119 125.887 35.1941 125.987 35.2573C126.344 35.4651 126.738 35.6031 127.146 35.664C127.588 35.742 128.017 35.873 128.427 36.0543C128.803 36.2206 129.125 36.4891 129.356 36.8292C129.505 37.0661 129.583 37.3407 129.581 37.6206C129.572 37.9073 129.494 38.1875 129.355 38.438C129.215 38.6886 129.018 38.902 128.779 39.0606C128.279 39.4225 127.676 39.615 127.059 39.6102C126.185 39.5686 125.349 39.2424 124.679 38.6814C124.629 38.6396 124.587 38.5883 124.557 38.5303C124.527 38.4724 124.509 38.409 124.504 38.344C124.499 38.2789 124.507 38.2135 124.528 38.1516C124.548 38.0897 124.581 38.0325 124.624 37.9834Z" fill="#38A3A5"/>
<path d="M132.642 8.73328H96.2199C91.8095 8.73328 88.2341 12.3086 88.2341 16.7191C88.2341 21.1295 91.8095 24.7049 96.2199 24.7049H132.642C137.053 24.7049 140.628 21.1295 140.628 16.7191C140.628 12.3086 137.053 8.73328 132.642 8.73328Z" fill="#C7C7C7"/>
<path d="M131.205 3.42734C130.764 1.42563 128.99 0 126.94 0H101.64C99.503 0 97.6797 1.54726 97.332 3.65623C96.8935 6.31557 98.9452 8.73327 101.64 8.73327H126.94C129.73 8.73327 131.805 6.15222 131.205 3.42734ZM114.429 6.26553C114.049 6.26553 113.678 6.15303 113.363 5.94227C113.047 5.7315 112.802 5.43193 112.656 5.08144C112.511 4.73094 112.473 4.34527 112.547 3.97319C112.621 3.60111 112.804 3.25933 113.072 2.99108C113.341 2.72282 113.682 2.54014 114.054 2.46612C114.426 2.39211 114.812 2.4301 115.163 2.57528C115.513 2.72045 115.813 2.96631 116.023 3.28174C116.234 3.59718 116.347 3.96803 116.347 4.3474C116.347 4.59949 116.298 4.84925 116.202 5.08229C116.106 5.31534 115.965 5.52708 115.787 5.70534C115.608 5.8836 115.397 6.02486 115.163 6.121C114.93 6.21714 114.681 6.26626 114.429 6.26553Z" fill="#C7C7C7"/>
<path d="M132.109 7.54579C132.245 8.15511 131.781 8.73325 131.157 8.73325H97.6459C97.0433 8.73325 96.5848 8.19225 96.6836 7.59776C96.7618 7.12715 97.1689 6.78214 97.6459 6.78214H131.157C131.614 6.78214 132.01 7.09957 132.109 7.54579Z" fill="#A6A6A6"/>
<path d="M0 226.438C75.1314 226.103 159.419 226.098 234.551 226.438C159.419 226.779 75.1314 226.774 0 226.438Z" fill="#263238"/>
<path d="M126.407 226.541C125.322 226.897 94.3076 226.501 93.138 225.732C92.6933 225.452 92.4842 220.929 92.3909 215.459V215.285C92.3686 214.16 92.3553 212.995 92.3508 211.821C92.3508 211.657 92.3508 211.496 92.3508 211.336L92.984 204.539C93.4732 199.287 97.9068 195.286 103.182 195.337C109.256 195.395 113.917 200.743 113.145 206.768L112.554 211.385L112.528 212.017L112.403 215.317C112.403 215.523 112.521 215.709 112.708 215.796C114.566 216.659 124.32 221.209 125.402 222.094C126.598 223.072 127.497 226.199 126.407 226.541Z" fill="#AD6359"/>
<path d="M126.407 226.541C125.322 226.897 94.3076 226.501 93.138 225.732C92.6933 225.452 92.4842 220.929 92.3909 215.459V215.285C92.3686 214.16 92.3553 212.995 92.3508 211.821C92.3508 211.554 92.568 211.337 92.8356 211.338L111.922 211.384C112.267 211.385 112.542 211.672 112.528 212.017L112.403 215.317C112.403 215.523 112.521 215.709 112.708 215.796C114.566 216.659 124.32 221.209 125.402 222.094C126.598 223.072 127.497 226.199 126.407 226.541Z" fill="#EBEBEB"/>
<path d="M126.411 226.541C125.851 226.723 117.428 226.706 109.192 226.541C107.533 226.506 105.888 226.47 104.3 226.425C98.4255 226.265 93.5737 226.025 93.1245 225.732C92.6753 225.438 92.4708 221.053 92.3818 215.686C92.3818 215.61 92.3818 215.534 92.3818 215.459C92.3818 215.393 92.3818 215.351 92.3818 215.303C92.3818 215.291 92.3918 215.281 92.4041 215.281L112.184 215.316C112.297 215.316 112.39 215.409 112.39 215.523C112.39 215.603 112.433 215.674 112.506 215.708C113.731 216.276 124.267 221.172 125.393 222.09C126.589 223.063 127.497 226.194 126.411 226.541Z" fill="#38A3A5"/>
<path d="M126.074 225.336C120.848 225.14 99.7509 224.847 94.57 225.051C94.5255 225.051 94.5255 225.082 94.57 225.087C99.7465 225.394 120.844 225.532 126.074 225.42C126.185 225.42 126.185 225.34 126.074 225.336Z" fill="#263238"/>
<path d="M114.722 215.446C114.673 215.393 114.591 215.394 114.52 215.381C112.49 215.002 110.027 215.302 108.463 216.735C108.4 216.793 108.463 216.878 108.552 216.86C110.524 216.25 112.556 215.854 114.613 215.677C114.65 215.679 114.685 215.666 114.712 215.641C114.74 215.617 114.756 215.582 114.758 215.546C114.759 215.509 114.747 215.473 114.722 215.446Z" fill="#263238"/>
<path d="M116.195 216.361C116.145 216.308 116.063 216.31 115.992 216.297C113.962 215.918 111.5 216.213 109.939 217.651C109.877 217.709 109.939 217.798 110.024 217.776C111.998 217.166 114.031 216.77 116.09 216.593C116.126 216.594 116.162 216.581 116.189 216.556C116.215 216.531 116.231 216.496 116.232 216.459C116.233 216.423 116.22 216.387 116.195 216.361Z" fill="#263238"/>
<path d="M117.671 217.274C117.622 217.22 117.54 217.222 117.469 217.208C115.434 216.83 112.976 217.129 111.411 218.563C111.349 218.621 111.411 218.705 111.496 218.687C113.469 218.076 115.503 217.679 117.562 217.505C117.598 217.506 117.634 217.493 117.661 217.469C117.688 217.444 117.704 217.41 117.706 217.373C117.708 217.337 117.695 217.301 117.671 217.274Z" fill="#263238"/>
<path d="M105.132 223.83C106.317 224.62 105.737 226.465 104.314 226.425C98.4389 226.265 93.5871 226.025 93.1379 225.732C92.6888 225.438 92.4842 221.053 92.3953 215.686C92.3953 215.61 92.3953 215.534 92.3953 215.459C92.3953 215.391 92.3953 215.348 92.3953 215.298C92.3953 215.289 92.4028 215.281 92.4122 215.281C92.4156 215.281 92.4187 215.282 92.4216 215.284C94.4799 216.729 100.432 220.701 105.132 223.83Z" fill="#263238"/>
<path d="M114.282 205.124C113.907 210.912 109.097 215.388 103.296 215.388C96.823 215.388 91.7365 209.85 92.2837 203.4C93.5956 187.938 95.6901 162.935 95.5705 162.307C95.3482 161.141 94.0274 155.863 92.2707 148.965C91.7193 146.804 91.1234 144.491 90.4919 142.09C88.8242 135.601 86.9875 128.508 85.3866 122.336C85.2219 121.703 85.0597 121.091 84.9004 120.5C83.3056 114.584 87.7376 108.327 93.8648 108.327C97.5603 108.327 100.847 110.653 102.041 114.15C106.266 126.536 115.739 154.944 116.219 162.084C116.599 167.67 115.181 191.269 114.282 205.124Z" fill="#263238"/>
<path d="M112.603 211.576C109.192 211.505 110.175 211.479 106.764 211.443C105.12 211.443 94.4828 211.34 92.6453 211.582C92.5839 211.59 92.5002 211.648 92.5597 211.665C94.1207 211.923 105.092 211.826 106.764 211.808C110.175 211.772 109.192 211.745 112.603 211.674C112.616 211.674 112.628 211.669 112.638 211.66C112.647 211.651 112.652 211.638 112.652 211.625C112.652 211.612 112.647 211.6 112.638 211.591C112.628 211.582 112.616 211.576 112.603 211.576Z" fill="#37474F"/>
<path d="M99.7731 159.127C99.0393 155.898 97.9453 152.736 96.9892 149.565C95.0532 143.126 93.1039 136.691 91.1412 130.26C90.1628 127.045 85.6223 115.011 85.1731 113.41C84.9908 112.761 84.893 113.117 85.1287 113.944C85.6001 115.612 93.3559 139.466 95.3215 146.003C96.3058 149.282 97.2916 152.558 98.2789 155.832C98.7774 157.39 99.1813 158.978 99.4885 160.586C99.7515 162.268 99.8172 163.975 99.6842 165.673C99.4707 169.088 99.0749 172.504 98.7636 175.901L97.8164 186.13C97.1878 192.931 96.5652 199.731 95.9486 206.529C95.873 207.392 95.7974 208.25 95.7307 209.113C95.7307 209.402 96.1443 209.38 96.1754 209.113C96.9092 202.389 97.4739 195.642 98.101 188.909C98.728 182.176 99.3551 175.51 99.9777 168.808C100.138 167.127 100.316 165.442 100.316 163.752C100.307 162.195 100.125 160.644 99.7731 159.127Z" fill="#37474F"/>
<path d="M90.5135 108.329C94.4299 108.328 97.6183 110.532 97.0816 114.412C96.1059 121.464 83.8534 117.891 81.902 111.044C80.7233 106.908 85.4128 108.33 89.7134 108.329L90.5135 108.329Z" fill="#37474F"/>
<path d="M103.313 226.848C102.223 227.204 71.2089 226.919 70.0393 226.159C69.5946 225.879 69.3634 221.356 69.2522 215.886V215.712C69.2255 214.587 69.2077 213.427 69.1988 212.248C69.1988 212.088 69.1988 211.923 69.1988 211.763C69.1779 209.582 69.2062 207.378 69.2581 205.331C69.3959 199.897 73.9254 195.7 79.361 195.735C85.1656 195.772 89.7927 200.597 89.5871 206.398L89.3978 211.741V212.373L89.2821 215.672C89.2821 215.878 89.4005 216.065 89.5875 216.151C91.4484 217.008 101.218 221.524 102.308 222.401C103.513 223.37 104.398 226.497 103.313 226.848Z" fill="#AD6359"/>
<path d="M103.313 226.848C102.223 227.204 71.2091 226.919 70.0395 226.159C69.5948 225.879 69.3635 221.356 69.2523 215.886V215.712C69.2257 214.587 69.2079 213.427 69.199 212.248C69.199 211.98 69.4159 211.763 69.6837 211.763L88.7664 211.742C89.1151 211.741 89.3979 212.024 89.3979 212.373L89.2823 215.672C89.2823 215.878 89.4006 216.065 89.5877 216.151C91.4486 217.008 101.218 221.524 102.308 222.401C103.513 223.37 104.398 226.497 103.313 226.848Z" fill="#EBEBEB"/>
<path d="M103.313 226.848C102.223 227.204 71.2089 226.919 70.0393 226.159C69.5946 225.879 69.3634 221.356 69.2522 215.886C69.2522 215.79 69.3298 215.712 69.4256 215.712L89.0583 215.673C89.172 215.673 89.2644 215.765 89.2644 215.878C89.2644 215.959 89.3076 216.03 89.3806 216.064C90.6077 216.628 101.155 221.488 102.29 222.401C103.495 223.37 104.398 226.497 103.313 226.848Z" fill="#38A3A5"/>
<path d="M102.979 225.643C97.7539 225.465 76.6567 225.251 71.4757 225.474C71.4313 225.474 71.4313 225.505 71.4757 225.505C76.6522 225.794 97.7495 225.838 102.979 225.727C103.082 225.723 103.082 225.647 102.979 225.643Z" fill="#263238"/>
<path d="M91.5529 215.799C91.5217 215.752 91.4608 215.742 91.406 215.732C89.3668 215.356 86.8953 215.66 85.3287 217.082C85.2709 217.14 85.351 217.224 85.4177 217.207C87.3621 216.595 89.3661 216.194 91.3957 216.009C91.4512 216.004 91.5131 215.999 91.5474 215.955C91.5647 215.933 91.5745 215.906 91.5755 215.878C91.5765 215.85 91.5686 215.822 91.5529 215.799Z" fill="#263238"/>
<path d="M93.0621 216.704C93.012 216.65 92.9285 216.652 92.8564 216.639C90.8222 216.265 88.365 216.574 86.8051 217.994C86.7472 218.052 86.8273 218.136 86.894 218.118C88.8668 217.511 90.8988 217.116 92.9555 216.94C92.9926 216.941 93.0287 216.927 93.0558 216.902C93.0829 216.876 93.0988 216.841 93.1 216.804C93.1012 216.767 93.0875 216.731 93.0621 216.704Z" fill="#263238"/>
<path d="M94.4907 217.578C94.4595 217.564 94.4241 217.563 94.3904 217.557C92.3452 217.167 89.8563 217.467 88.286 218.901C88.2237 218.954 88.286 219.043 88.3705 219.021C90.3428 218.409 92.3748 218.009 94.432 217.829C94.4492 217.83 94.4664 217.827 94.4825 217.821C94.4986 217.815 94.5134 217.806 94.526 217.794C94.5386 217.782 94.5488 217.768 94.5559 217.752C94.563 217.737 94.567 217.72 94.5676 217.702C94.5682 217.685 94.5654 217.668 94.5593 217.652C94.5533 217.636 94.5441 217.621 94.5323 217.608C94.5205 217.596 94.5064 217.586 94.4907 217.578Z" fill="#263238"/>
<path d="M86.1578 108.337C93.567 108.332 99.4871 114.72 97.4998 121.858C97.4736 121.952 97.4472 122.046 97.4206 122.14C97.1091 123.26 96.2865 124.155 95.2681 124.716C95.0849 124.816 94.8863 124.927 94.6721 125.048C92.9271 126.032 91.8708 127.886 91.8126 129.889C91.7288 132.775 91.5982 137.288 91.4614 142.094C91.2213 151.18 90.9722 161.315 91.0167 163.463C91.1481 168.989 90.6283 191.604 90.2904 205.206C90.1448 211.064 85.3655 215.737 79.5063 215.763C73.1506 215.791 68.1316 210.379 68.6383 204.043C69.8218 189.244 71.6938 165.515 71.6938 163.49C71.6494 158.753 72.77 137.829 73.6328 122.576C73.6861 121.629 73.7385 120.728 73.7895 119.874C74.1803 113.338 79.6107 108.341 86.1578 108.337Z" fill="#263238"/>
<path d="M89.3053 211.765C89.2918 211.747 89.2651 211.745 89.2424 211.745C85.8736 211.692 86.8334 211.657 83.4343 211.643C81.794 211.643 71.1543 211.587 69.3192 211.839C69.2584 211.848 69.1738 211.91 69.2345 211.919C70.7955 212.172 81.7666 212.026 83.4387 212.003C86.8378 211.955 85.8736 211.932 89.2424 211.849C89.2651 211.848 89.2918 211.847 89.3053 211.829C89.3122 211.819 89.3159 211.808 89.3159 211.797C89.3159 211.785 89.3122 211.774 89.3053 211.765Z" fill="#37474F"/>
<path d="M76.4923 111.569C76.0832 124.021 75.6518 134.067 75.0959 146.524C74.54 158.98 73.7885 171.508 72.7478 183.973C72.1653 190.937 71.6183 200.734 70.8667 207.685C70.8667 207.73 70.9334 207.747 70.9379 207.685C72.5611 195.327 73.4638 180.046 74.2643 167.608C75.0648 155.169 75.5985 142.704 76.0209 130.252C76.2566 123.207 76.439 118.578 76.648 111.533C76.6524 111.458 76.4968 111.467 76.4923 111.569Z" fill="#37474F"/>
<path d="M77.3506 119.663C77.9021 119.521 78.4891 119.476 79.0494 119.387C79.4941 119.316 79.9389 119.236 80.3836 119.138C81.2426 118.983 82.0567 118.64 82.7672 118.133C83.879 117.244 85.1598 112.854 85.3155 112.574C85.5823 112.089 85.6623 112.512 85.6623 112.574C85.6623 113.086 84.4927 116.946 84.0391 117.666C83.212 119 81.7266 119.516 80.2457 119.703C79.8232 119.756 79.3963 119.787 78.9694 119.81C78.4476 119.857 77.9226 119.858 77.4006 119.814C77.3673 119.811 77.3299 119.809 77.3093 119.783C77.2989 119.77 77.2932 119.753 77.2932 119.736C77.2932 119.719 77.2989 119.703 77.3093 119.69C77.3197 119.676 77.3342 119.667 77.3506 119.663Z" fill="#37474F"/>
<path d="M96.8067 123.994C94.6332 124.783 92.5322 125.76 90.5273 126.912C90.5124 126.921 90.5012 126.935 90.496 126.951C90.4907 126.968 90.4918 126.986 90.4989 127.002C90.506 127.018 90.5188 127.031 90.5346 127.038C90.5505 127.045 90.5685 127.046 90.5851 127.041C92.673 126.163 94.8041 125.286 96.8462 124.277C96.9028 124.249 96.967 124.217 96.9801 124.155C96.9868 124.124 96.9824 124.092 96.9677 124.063C96.953 124.035 96.9289 124.013 96.8995 124C96.8702 123.987 96.8374 123.985 96.8067 123.994Z" fill="#37474F"/>
<path d="M97.4427 109.47C97.4427 109.399 97.3092 109.381 97.3092 109.47C97.3102 111.833 97.1915 114.194 96.9535 116.545C96.8556 117.639 95.9796 123.661 94.0851 123.216C93.7693 123.145 93.6092 122.829 93.5603 122.353C93.5666 121.729 93.6502 121.107 93.8093 120.503C94.0184 119.24 94.1873 117.973 94.2985 116.701C94.5153 114.339 94.49 111.961 94.2231 109.604C94.22 109.577 94.2177 109.547 94.1962 109.53C94.1853 109.522 94.1721 109.518 94.1584 109.518C94.1448 109.518 94.1315 109.522 94.1207 109.53C94.0993 109.547 94.0986 109.577 94.0991 109.604C94.1535 112.884 93.96 116.163 93.5203 119.414C93.2846 120.979 92.493 123.341 94.134 123.585C95.775 123.83 96.8868 119.872 97.0913 118.791C97.6116 115.712 97.7297 112.579 97.4427 109.47Z" fill="#37474F"/>
<path d="M94.1386 123.385C93.9611 123.791 93.8125 124.208 93.6938 124.635C93.5734 124.964 93.5132 125.312 93.516 125.662C93.516 125.729 93.6138 125.733 93.6494 125.689C93.8477 125.38 93.9976 125.042 94.0941 124.688C94.2364 124.301 94.3876 123.919 94.5388 123.527C94.5577 123.474 94.5547 123.416 94.5305 123.365C94.5063 123.314 94.4629 123.275 94.4098 123.256C94.3568 123.237 94.2984 123.24 94.2475 123.264C94.1966 123.289 94.1574 123.332 94.1386 123.385Z" fill="#37474F"/>
<path d="M96.202 84.1924C95.5483 94.1452 96.0063 104.316 97.2826 106.157C99.2616 109.016 112.252 115.131 116.623 116.247C118.055 116.612 121.297 107.095 120.341 105.837C119.385 104.578 105.221 99.0548 104.514 98.4011C104.136 98.0498 102.081 89.867 100.347 84.317C98.7369 79.1583 96.4021 81.1684 96.202 84.1924Z" fill="#AD6359"/>
<path d="M105.492 111.987C108.803 113.645 112.767 111.967 114.008 108.478C115.111 105.376 113.645 101.95 110.65 100.586C108.086 99.418 105.441 98.1967 104.869 97.8719C104.371 97.5961 101.779 87.4833 100.422 83.0984C99.5329 80.2167 96.8068 78.7847 95.7795 84.5215C95.1791 87.8791 94.6721 104.125 96.8379 106.82C97.7504 107.952 101.835 110.157 105.492 111.987Z" fill="#455A64"/>
<path d="M109.733 113.384C109.733 113.378 109.735 113.372 109.736 113.366C109.912 112.463 111.212 108.903 111.549 108.038C111.879 107.192 113.259 103.82 113.669 102.816C113.688 102.769 113.716 102.698 113.762 102.719C113.786 102.73 113.769 102.757 113.759 102.782C113.413 103.729 112.247 107.285 111.923 108.158C111.595 109.04 110.259 112.583 109.784 113.385C109.78 113.39 109.778 113.396 109.774 113.4C109.772 113.402 109.769 113.404 109.766 113.406C109.763 113.407 109.76 113.407 109.757 113.407C109.754 113.408 109.751 113.407 109.748 113.406C109.745 113.405 109.742 113.403 109.74 113.401C109.738 113.398 109.736 113.396 109.735 113.393C109.734 113.39 109.733 113.387 109.733 113.384Z" fill="#263238"/>
<path opacity="0.1" d="M104.107 101.107C105.426 105.688 99.8308 110.549 96.8556 106.824C94.6898 104.125 95.1924 87.8791 95.7972 84.5215C96.3127 81.624 98.7526 82.5057 99.5668 85.3339L104.107 101.107Z" fill="#020100"/>
<path d="M73.7261 108.256C73.775 108.336 100.903 111.645 101.201 111.418C101.312 111.333 101.983 87.0875 99.1371 80.6481C97.963 77.9798 93.2001 76.5834 90.5407 79.4029C77.5417 93.1623 73.6638 108.149 73.7261 108.256Z" fill="#EBEBEB"/>
<path d="M128.489 100.552L83.5882 116.479C80.3822 117.616 78.7051 121.137 79.8423 124.343C80.9795 127.549 84.5003 129.226 87.7063 128.089L132.608 112.162C135.814 111.025 137.491 107.504 136.353 104.298C135.216 101.092 131.695 99.4149 128.489 100.552Z" fill="#38A3A5"/>
<path opacity="0.2" d="M128.489 100.552L83.5882 116.479C80.3822 117.616 78.7051 121.137 79.8423 124.343C80.9795 127.549 84.5003 129.226 87.7063 128.089L132.608 112.162C135.814 111.025 137.491 107.504 136.353 104.298C135.216 101.092 131.695 99.4149 128.489 100.552Z" fill="#020100"/>
<g opacity="0.1">
<path d="M133.447 101.376C116.628 107.487 97.7096 114.197 80.7971 120.054C97.6162 113.944 116.534 107.233 133.447 101.376Z" fill="black"/>
<path d="M134.265 103.68C117.446 109.786 98.5322 116.497 81.6331 122.349C98.4522 116.239 117.37 109.532 134.283 103.671L134.265 103.68Z" fill="black"/>
<path d="M135.079 105.979C118.26 112.089 99.3417 118.8 82.4292 124.657C99.2483 118.547 118.171 111.836 135.079 105.979Z" fill="black"/>
<path d="M135.888 108.283C119.069 114.393 100.151 121.104 83.2385 126.961C100.058 120.85 118.976 114.144 135.888 108.283Z" fill="black"/>
</g>
<path d="M75.194 126.146C76.3651 129.448 74.5234 133.68 71.2606 132.404C69.9535 131.893 68.7395 130.802 67.9937 128.699C67.2482 126.598 67.503 124.986 68.1953 123.765C69.9241 120.717 74.0226 122.843 75.194 126.146Z" fill="#FF9ABB"/>
<path d="M73.4018 120.853L77.0427 131.118C77.365 132.026 78.3627 132.502 79.2713 132.179C80.1799 131.857 80.6551 130.859 80.3329 129.951L76.692 119.686C76.3697 118.778 75.3719 118.303 74.4634 118.625C73.5548 118.947 73.0795 119.945 73.4018 120.853Z" fill="#A6A6A6"/>
<path d="M77.0319 119.561L80.6728 129.825C80.9951 130.734 81.9929 131.209 82.9014 130.887C83.81 130.565 84.2853 129.567 83.963 128.658L80.3221 118.394C79.9998 117.485 79.002 117.01 78.0935 117.332C77.1849 117.654 76.7097 118.652 77.0319 119.561Z" fill="#A6A6A6"/>
<path d="M133.838 99.1112C134.098 98.7447 134.595 98.5261 135.04 98.5892L144.182 99.8864C145.566 100.075 146.167 101.74 145.227 102.773L138.865 109.635C138.596 109.924 138.189 110.04 137.808 109.936L137.46 109.84C136.912 109.689 136.704 109.011 137.04 108.553C137.341 108.141 137.133 107.652 136.64 107.516C136.094 107.366 135.876 106.689 136.211 106.232C136.514 105.82 136.313 105.332 135.818 105.202C135.271 105.058 135.039 104.41 135.368 103.95C135.387 103.924 135.406 103.898 135.424 103.872C135.712 103.469 135.545 103.017 135.066 102.891L135.028 102.881C134.465 102.732 134.251 102.029 134.59 101.555C134.886 101.141 134.682 100.676 134.19 100.547C133.631 100.4 133.393 99.7389 133.727 99.2679C133.764 99.2149 133.802 99.1625 133.838 99.1112Z" fill="#38A3A5"/>
<path opacity="0.8" d="M133.838 99.1112C134.098 98.7447 134.595 98.5261 135.04 98.5892L144.182 99.8864C145.566 100.075 146.167 101.74 145.227 102.773L138.865 109.635C138.596 109.924 138.189 110.04 137.808 109.936L137.46 109.84C136.912 109.689 136.704 109.011 137.04 108.553C137.341 108.141 137.133 107.652 136.64 107.516C136.094 107.366 135.876 106.689 136.211 106.232C136.514 105.82 136.313 105.332 135.818 105.202C135.271 105.058 135.039 104.41 135.368 103.95C135.387 103.924 135.406 103.898 135.424 103.872C135.712 103.469 135.545 103.017 135.066 102.891L135.028 102.881C134.465 102.732 134.251 102.029 134.59 101.555C134.886 101.141 134.682 100.676 134.19 100.547C133.631 100.4 133.393 99.7389 133.727 99.2679C133.764 99.2149 133.802 99.1625 133.838 99.1112Z" fill="white"/>
<path d="M144.692 101.324C144.459 100.669 145.005 100.001 145.693 100.096C146.435 100.199 146.755 101.093 146.247 101.644C145.774 102.157 144.925 101.982 144.692 101.324Z" fill="#263238"/>
<path d="M88.1793 81.0083C82.0555 86.456 73.7438 96.4888 74.1174 99.0637C75.0513 105.508 79.832 113.624 82.3357 116.625C83.7944 118.378 93.418 111.124 92.195 109.51C90.2739 106.953 85.6978 98.8902 85.1774 97.8407C84.8973 97.2804 89.1443 89.5957 91.4568 84.3303C93.9739 78.6024 91.1677 78.3578 88.1793 81.0083Z" fill="#AD6359"/>
<path d="M94.1179 113C94.3099 113.237 96.4202 114.145 96.6957 114.277C97.9498 114.878 102.415 118.351 103.495 116.692C104.576 115.033 98.2077 110.235 96.033 109.386C94.9579 108.966 93.4913 108.604 92.2832 108.346C91.5468 108.189 91.0288 109.074 91.4932 109.667C92.2638 110.651 93.1849 111.845 94.1179 113Z" fill="#AD6359"/>
<path d="M85.8195 112.635C83.8175 114.858 83.8055 118.312 85.9692 120.377C88.2228 122.528 90.791 124.506 93.8316 125.364C93.8698 125.376 93.9081 125.387 93.9466 125.397C94.915 125.65 95.9821 125.554 96.9829 125.562C97.1493 125.563 97.3018 125.555 97.441 125.539C98.2219 125.449 99.7537 125.099 100.493 124.833C101.682 124.404 102.45 124.532 103.687 124.273C104.182 124.169 104.638 123.926 104.878 123.425C105.67 121.789 101.943 121.073 100.133 119.423C98.102 117.575 95.9041 115.065 94.0631 112.845C91.8989 110.235 88.0889 110.116 85.8195 112.635Z" fill="#AD6359"/>
<path d="M93.0179 118.524C94.2184 119.648 95.4948 120.688 96.838 121.637C98.3628 122.574 99.9544 123.398 101.6 124.102C101.612 124.107 101.626 124.109 101.638 124.117C101.643 124.12 101.648 124.125 101.652 124.131C101.655 124.137 101.658 124.144 101.658 124.15C101.659 124.157 101.658 124.164 101.655 124.17C101.653 124.177 101.649 124.182 101.644 124.187C101.639 124.192 101.633 124.195 101.626 124.197C101.62 124.199 101.613 124.199 101.606 124.198C101.593 124.196 101.581 124.188 101.568 124.184C98.2454 123.141 95.2715 121.209 92.969 118.596C92.9156 118.52 92.9556 118.471 93.0179 118.524Z" fill="#263238"/>
<path d="M90.3808 120.699C91.6469 121.685 93.8806 123.408 98.5893 125.083C98.5977 125.086 98.6035 125.095 98.6035 125.104C98.6035 125.114 98.5966 125.118 98.5869 125.116C95.4874 124.455 92.6324 122.946 90.3407 120.757C90.2562 120.69 90.2963 120.632 90.3808 120.699Z" fill="#263238"/>
<path d="M88.9798 121.891C91.1998 123.489 92.7947 124.219 95.4507 125.292C95.4585 125.295 95.4638 125.304 95.4638 125.313C95.4638 125.322 95.4573 125.322 95.4485 125.32C92.3074 124.432 91.2663 123.729 88.9264 121.958C88.8375 121.9 88.8953 121.829 88.9798 121.891Z" fill="#263238"/>
<path d="M75.9885 109.335C77.9089 113.127 82.7225 114.216 86.2288 111.814C89.453 109.606 90.3657 105.25 88.2992 101.933L88.0756 101.574C86.6437 99.2757 86.5211 96.3995 87.7012 93.9625C89.7606 89.7095 92.16 84.5023 92.9334 82.169C94.1564 78.4868 92.044 78.0376 88.9043 80.4702C81.7889 86.0291 72.5966 96.7512 72.1741 98.9748C71.8582 100.636 73.9336 105.279 75.9885 109.335Z" fill="#455A64"/>
<path d="M79.8765 113.223C80.5347 112.565 83.67 110.337 84.4571 109.79C85.2442 109.243 88.4595 107.153 89.2911 106.597C89.3356 106.566 89.389 106.619 89.3445 106.651C88.5529 107.215 85.4799 109.563 84.6972 110.115C83.9337 110.653 80.8975 112.769 79.9691 113.232C79.9247 113.254 79.8415 113.258 79.8765 113.223Z" fill="#263238"/>
<path d="M90.6943 87.7183C90.6957 87.7216 90.6958 87.7253 90.6944 87.7287C89.4672 90.76 87.7917 93.88 86.4139 96.849C86.1257 97.4777 86.1635 98.194 86.5134 98.7906C87.7861 100.96 89.2668 103.235 90.5275 105.361L91.8067 107.487C91.9213 107.677 91.8627 107.924 91.6749 108.042L91.9811 107.801C91.985 107.798 91.9906 107.801 91.9906 107.806C91.9906 107.811 91.9832 107.814 91.9799 107.809L90.3585 105.445C88.8109 103.106 87.0943 100.553 85.6846 98.1565C85.5753 97.9127 85.5882 97.6517 85.6764 97.3995C85.7678 97.1383 85.876 96.8831 86.0003 96.6355C87.3749 93.7534 89.1739 90.5308 90.67 87.7172C90.6753 87.7071 90.6898 87.7079 90.6943 87.7183Z" fill="#263238"/>
<path d="M90.2603 88.9023C90.345 88.8017 90.4318 88.8747 90.3471 88.9753C90.2625 89.0759 90.1757 89.0029 90.2603 88.9023Z" fill="#263238"/>
<path d="M116.387 112.214C116.554 111.914 117.844 110.494 117.863 110.151C117.894 109.582 118.062 109.034 118.495 108.674C118.813 108.41 120.934 106.933 121.164 106.59C121.277 106.421 121.423 106.271 121.608 106.148C121.68 106.1 121.75 106.061 121.82 106.029C122.44 105.74 124.615 105.138 125.26 104.907C127.265 104.139 128.05 109.25 129.339 110.83C129.485 111.008 129.726 111.056 129.95 111L130.38 110.892C131.025 110.73 131.724 111.807 131.539 112.445C131.148 113.668 130.894 114.482 130.329 115.051C130.083 115.315 129.759 115.493 129.404 115.558C128.974 115.636 128.435 116.049 128.36 116.479C128.28 116.935 128.074 117.44 127.59 117.786C126.977 118.224 125.924 118.75 125.407 119.296C125.314 119.394 125.206 119.485 125.077 119.565C124.262 120.08 122.997 120.54 122.123 120.947C122.047 120.982 121.966 121.012 121.88 121.033C119.878 121.531 114.795 115.073 116.387 112.214Z" fill="#AD6359"/>
<path d="M130.738 112.186C130.547 111.527 130.923 110.837 131.58 110.642L132.592 110.341C132.778 110.285 132.972 110.257 133.167 110.257C136.48 110.199 139.197 113.459 136.933 114.184C135.664 114.591 134.041 113.635 132.599 113.436C131.833 113.33 130.955 112.928 130.738 112.186Z" fill="#AD6359"/>
<path d="M123.029 119.318C123.053 119.345 123.071 119.416 123.04 119.396C120.759 117.62 119.073 115.19 118.206 112.432C118.184 112.343 118.318 112.263 118.362 112.356C119.573 114.89 121.145 117.235 123.029 119.318Z" fill="#263238"/>
<path d="M125.854 117.626C125.881 117.655 125.913 117.715 125.874 117.713C125.863 117.713 125.847 117.703 125.839 117.696C123.656 115.962 121.677 113.137 121.096 110.037C121.065 109.873 121.119 109.526 121.159 109.688C121.654 111.775 124.044 115.672 125.854 117.626Z" fill="#263238"/>
<path d="M124.152 107.34C124.77 110.391 126.305 112.939 128.257 115.345C128.284 115.376 128.235 115.407 128.208 115.389C126.936 114.5 125.851 112.828 125.095 111.471C124.418 110.276 124.052 108.93 124.029 107.559C124.027 107.44 124.127 107.224 124.152 107.34Z" fill="#263238"/>
<path d="M94.2764 77.5084C92.9422 78.0465 93.0534 79.8075 93.9651 81.9822C94.8767 84.1569 96.2998 85.6911 97.7629 85.5755C99.226 85.4599 99.773 83.3919 99.9065 82.2046C100.009 81.2707 99.6663 79.3851 98.0564 78.4645C96.4466 77.544 95.0368 77.2015 94.2764 77.5084Z" fill="#455A64"/>
<path d="M97.3938 84.7439C95.7928 84.4993 93.9384 80.9371 93.6804 78.7313C93.6804 78.5801 94.3786 77.3483 95.1836 75.8096C95.95 74.3193 97.8939 73.7707 99.2564 74.7463L99.6703 75.0426C101.051 76.0309 101.304 77.963 100.518 79.4681C100.357 79.7779 100.205 80.0928 100.062 80.4124C100.013 80.5358 99.974 80.6632 99.9461 80.7931C99.9402 80.8208 99.939 80.8491 99.9387 80.8774C99.9384 80.8964 99.9357 80.9138 99.9311 80.9323C99.7168 81.8118 98.9257 84.9772 97.3938 84.7439Z" fill="#AD6359"/>
<path d="M99.9386 80.8521C99.9379 80.8554 99.9375 80.8544 99.9375 80.8578C99.9375 80.889 99.9081 80.9164 99.8779 80.9084C99.675 80.8543 99.4764 80.7851 99.2838 80.7014C96.6922 79.5838 96.4745 76.7553 96.6781 74.7962C96.7639 73.9705 97.7065 73.6224 98.381 74.1063L98.8372 74.4335C100.682 75.7565 101.003 78.3432 100.08 80.4168C100.018 80.5569 99.9711 80.7027 99.9386 80.8521Z" fill="#263238"/>
<path d="M97.6918 65.839C96.4466 68.0004 96.1353 74.9913 97.4428 76.868C99.3373 79.5852 103.224 80.6925 105.714 78.2377C108.143 75.8585 108.383 66.7374 106.857 64.9541C104.598 62.3302 99.524 62.6504 97.6918 65.839Z" fill="#AD6359"/>
<path d="M103.303 71.773C103.299 71.7387 103.259 71.7192 103.259 71.7538C103.259 72.2209 103.163 72.7535 102.738 72.8929C102.731 72.8952 102.726 72.902 102.726 72.9093C102.726 72.918 102.733 72.9228 102.741 72.9219C103.235 72.8674 103.355 72.2186 103.303 71.773Z" fill="#263238"/>
<path d="M102.899 71.2023C102.148 71.1045 102.01 72.621 102.713 72.7099C103.415 72.7989 103.535 71.2824 102.899 71.2023Z" fill="#263238"/>
<path d="M105.952 71.9244C105.961 71.8888 106.003 71.8729 105.999 71.9094C105.946 72.3721 105.959 72.9133 106.357 73.1092C106.364 73.1125 106.368 73.1197 106.368 73.1272C106.368 73.1361 106.362 73.1398 106.353 73.1376C105.875 73.0129 105.842 72.3554 105.952 71.9244Z" fill="#263238"/>
<path d="M106.43 71.4113C107.191 71.4113 107.115 72.9412 106.43 72.9323C105.745 72.9234 105.794 71.4024 106.43 71.4113Z" fill="#263238"/>
<path d="M102.259 70.0149C102.374 70.0037 102.489 69.9892 102.603 69.9713C102.786 69.9425 102.974 69.9335 103.153 69.8826C103.207 69.8672 103.259 69.8473 103.31 69.8231C103.437 69.7626 103.557 69.6555 103.557 69.5146C103.557 69.4432 103.534 69.3738 103.491 69.3167C103.394 69.213 103.271 69.1367 103.136 69.0953C102.866 69.0131 102.565 69.07 102.31 69.1913C102.178 69.2541 102.058 69.3416 101.957 69.4502C101.911 69.5025 101.882 69.5676 101.874 69.6367C101.866 69.7059 101.88 69.7757 101.913 69.8371C101.945 69.8984 101.996 69.9482 102.058 69.98C102.12 70.0118 102.19 70.024 102.259 70.0149Z" fill="#263238"/>
<path d="M107.191 70.2062C107.085 70.1745 106.98 70.1399 106.876 70.1025C106.693 70.0368 106.502 69.9888 106.331 69.8969C106.281 69.8703 106.234 69.8397 106.19 69.8054C106.084 69.7239 105.991 69.6059 106.008 69.4735C106.025 69.341 106.144 69.2476 106.268 69.1987C106.337 69.1717 106.41 69.1541 106.484 69.1467C106.625 69.1327 106.768 69.156 106.897 69.2145C107.177 69.2958 107.416 69.4781 107.569 69.7259C107.596 69.7833 107.606 69.847 107.599 69.9099C107.591 69.9728 107.567 70.0325 107.527 70.0823C107.488 70.132 107.436 70.17 107.377 70.1918C107.317 70.2137 107.253 70.2187 107.191 70.2062Z" fill="#263238"/>
<path d="M102.931 74.4754C103.032 74.6722 103.174 74.8458 103.346 74.9851C103.518 75.1244 103.717 75.2265 103.931 75.2848C104.118 75.337 104.311 75.3625 104.505 75.3604C104.542 75.3651 104.579 75.3651 104.616 75.3604H104.718C104.744 75.3579 104.769 75.347 104.788 75.3294C104.795 75.3229 104.801 75.3155 104.807 75.3076C104.825 75.2805 104.825 75.2462 104.825 75.2136V75.1692C104.826 75.1579 104.828 75.1465 104.829 75.1348C104.873 74.752 105.652 74.8918 105.661 74.5066C105.763 72.8738 105.701 71.2349 105.474 69.6147C105.474 69.6029 105.47 69.5916 105.461 69.5832C105.453 69.5749 105.442 69.5702 105.43 69.5702C105.418 69.5702 105.407 69.5749 105.398 69.5832C105.39 69.5916 105.385 69.6029 105.385 69.6147C105.3 70.8775 105.398 72.1465 105.398 73.4192C105.398 73.7544 105.028 73.962 104.704 73.8752C104.669 73.8659 104.64 73.8757 104.636 73.9113C104.629 73.97 104.626 74.0756 104.626 74.2008C104.624 74.7267 104.226 75.1274 103.74 74.9284C103.5 74.8306 103.28 74.6921 103.089 74.5191C103.03 74.4654 102.886 74.4087 102.931 74.4754Z" fill="#263238"/>
<path d="M95.9529 70.4863C95.8818 69.8415 95.5971 64.367 95.8907 63.6733C96.1842 62.9795 96.8335 63.4287 96.8512 63.3931C96.8631 63.3693 96.9208 63.0951 97.0786 62.8667C97.2378 62.6364 97.536 62.537 97.8114 62.5873C98.0215 62.6256 98.272 62.5476 98.3946 62.3728C98.5006 62.2218 98.6492 62.0714 98.8391 62.0234C98.9794 62.0046 99.1222 62.0221 99.2538 62.0743C99.4295 62.144 99.6868 62.1045 99.8187 61.9691C99.8414 61.9458 99.8653 61.9234 99.8902 61.9022C100.023 61.789 100.181 61.71 100.351 61.6721C100.5 61.6554 100.649 61.6871 100.778 61.7624C100.927 61.8491 101.201 61.8515 101.319 61.7258C101.435 61.6014 101.588 61.4881 101.77 61.4675C101.915 61.451 102.044 61.4961 102.151 61.563C102.339 61.6801 102.646 61.6827 102.841 61.5776C102.845 61.5753 102.849 61.573 102.854 61.5708C103.135 61.4247 103.503 61.4709 103.718 61.7033C103.841 61.8358 104.126 61.9078 104.287 61.8261C104.293 61.8231 104.299 61.8201 104.305 61.8171C104.455 61.7447 104.619 61.7073 104.785 61.7077C104.807 61.7105 104.828 61.7146 104.848 61.7197C105.111 61.7861 105.78 61.9374 106.043 62.0012C106.312 62.0662 107.029 62.2865 107.267 62.426C107.287 62.438 107.308 62.452 107.329 62.4681C107.726 62.7807 107.841 65.2114 107.823 67.0949C107.821 67.2895 107.301 67.3449 107.106 67.3377C106.626 67.32 106.301 68.3561 105.43 68.0315C104.558 67.7069 103.402 66.6973 102.112 66.7507C100.823 66.8041 99.7864 68.0849 99.0348 69.9349C98.2032 72.0206 96.1219 72.0117 95.9529 70.4863Z" fill="#263238"/>
<path d="M102.01 73.884C101.648 73.803 101.315 73.622 101.051 73.3615C100.786 73.1009 100.6 72.7713 100.513 72.4102C100.427 72.049 100.443 71.6709 100.561 71.3187C100.679 70.9666 100.893 70.6546 101.18 70.4183C101.466 70.1819 101.813 70.0308 102.182 69.982C102.55 69.9332 102.924 69.9887 103.262 70.1422C103.6 70.2957 103.889 70.5411 104.094 70.8504C104.3 71.1597 104.414 71.5204 104.425 71.8916C104.432 72.1929 104.37 72.4919 104.245 72.7659C104.119 73.04 103.933 73.282 103.701 73.4738C103.468 73.6656 103.195 73.8022 102.903 73.8732C102.61 73.9443 102.305 73.9479 102.01 73.884ZM102.819 70.2684C102.673 70.2379 102.524 70.2245 102.375 70.2284C101.939 70.2461 101.527 70.4289 101.221 70.7396C100.915 71.0503 100.739 71.4657 100.728 71.9014C100.718 72.3372 100.873 72.7607 101.163 73.0861C101.453 73.4114 101.856 73.6142 102.291 73.6533C102.725 73.6923 103.157 73.5648 103.501 73.2965C103.845 73.0282 104.073 72.6392 104.14 72.2085C104.208 71.7779 104.109 71.3377 103.863 70.9774C103.618 70.6171 103.245 70.3636 102.819 70.2684Z" fill="#38A3A5"/>
<path d="M106.537 74.3331C105.799 74.1641 105.296 73.2569 105.403 72.2252C105.446 71.7328 105.642 71.2661 105.964 70.891C106.098 70.7275 106.269 70.5982 106.463 70.514C106.657 70.4297 106.869 70.3928 107.08 70.4063C107.289 70.435 107.488 70.514 107.66 70.6363C107.832 70.7587 107.971 70.9208 108.067 71.1089C108.305 71.5429 108.402 72.0405 108.343 72.532C108.227 73.6216 107.476 74.4354 106.666 74.3509L106.537 74.3331ZM107.244 70.7169C107.183 70.6939 107.118 70.6864 107.053 70.6864C106.884 70.6769 106.714 70.7083 106.56 70.778C106.405 70.8477 106.269 70.9535 106.164 71.0867C105.877 71.4184 105.705 71.8328 105.67 72.2696C105.568 73.2124 106.03 74.0485 106.693 74.1063C107.356 74.1641 107.978 73.4659 108.08 72.5231C108.131 72.0875 108.047 71.6469 107.84 71.2601C107.772 71.1212 107.676 70.9983 107.557 70.8994C107.463 70.8214 107.357 70.7598 107.244 70.7169Z" fill="#38A3A5"/>
<path d="M104.453 72.0451C104.387 72.0797 104.302 72.0624 104.261 72.0003C104.221 71.9402 104.237 71.8589 104.3 71.8243C104.632 71.6423 105.193 71.4887 105.581 71.8709C105.634 71.9228 105.622 72.0079 105.563 72.0522C105.504 72.0962 105.422 72.0826 105.366 72.0344C105.071 71.777 104.654 71.9395 104.453 72.0451Z" fill="#38A3A5"/>
<path d="M95.5657 71.5954C95.5232 71.655 95.4409 71.6715 95.3801 71.6306C95.3204 71.5904 95.304 71.51 95.346 71.4515C95.5383 71.1838 96.0498 70.5428 96.5488 70.513C97.0873 70.4809 99.9681 71.0515 100.63 71.1848C100.702 71.1994 100.748 71.2698 100.734 71.3423C100.719 71.4148 100.649 71.4618 100.576 71.4472C99.4861 71.2281 96.9805 70.7543 96.5666 70.7799C96.1888 70.8032 95.7736 71.304 95.5657 71.5954Z" fill="#38A3A5"/>
<path d="M97.8623 72.4469C97.8672 71.9136 97.7687 71.3808 97.5027 70.9185C97.0953 70.2102 96.4016 69.2632 95.6951 69.4768C94.5922 69.8103 95.0814 73.2124 96.1398 73.8884C96.271 73.9846 96.4203 74.0531 96.5788 74.0898C96.7373 74.1265 96.9015 74.1307 97.0617 74.102C97.2218 74.0733 97.3744 74.0124 97.5102 73.9229C97.7753 73.7483 97.8535 73.4127 97.8564 73.0952L97.8623 72.4469Z" fill="#AD6359"/>
<path d="M95.8863 70.4578C95.8715 70.453 95.8567 70.4418 95.8523 70.4567C95.8495 70.4663 95.8682 70.4803 95.8765 70.486C96.5319 70.9333 96.8173 71.6362 96.969 72.3861C96.9744 72.413 96.894 72.4433 96.8753 72.4231C96.8096 72.3524 96.7293 72.2969 96.6399 72.2605C96.5505 72.2241 96.4543 72.2076 96.3579 72.2122C96.2667 72.2166 96.1775 72.2398 96.0958 72.2803C96.0866 72.2848 96.0723 72.286 96.0703 72.2961C96.0654 72.3214 96.0985 72.3342 96.1243 72.3329C96.2627 72.3259 96.4007 72.358 96.5222 72.426C96.6561 72.5009 96.7633 72.6157 96.8289 72.7544C96.9369 72.9862 97.0189 73.2294 97.0735 73.4792C97.1002 73.5637 97.2381 73.5504 97.2292 73.4792C97.2292 73.4645 97.2308 73.4499 97.2337 73.4354C97.4476 72.3926 96.9529 70.8041 95.8863 70.4578Z" fill="#263238"/>
</svg>
