<svg width="20" height="20" viewBox="0 0 20 20" fill="none" xmlns="http://www.w3.org/2000/svg">
<mask id="mask0_46_229" style="mask-type:alpha" maskUnits="userSpaceOnUse" x="-3" y="-2" width="25" height="24">
<rect x="-2.04248" y="-2" width="24" height="24" fill="#D9D9D9"/>
</mask>
<g mask="url(#mask0_46_229)">
<path fill-rule="evenodd" clip-rule="evenodd" d="M0.957407 8C0.674074 8 0.436574 7.9 0.244907 7.7C0.0532407 7.5 -0.0259259 7.26667 0.00740741 7C0.124074 5.9 0.411574 4.84583 0.869907 3.8375C1.32824 2.82917 1.93241 1.925 2.68241 1.125C2.86574 0.941667 3.09907 0.85 3.38241 0.85C3.66574 0.85 3.90741 0.95 4.10741 1.15C4.29074 1.33333 4.38241 1.55833 4.38241 1.825C4.38241 2.09167 4.29074 2.33333 4.10741 2.55C3.52407 3.18333 3.05324 3.87083 2.69491 4.6125C2.33657 5.35417 2.10741 6.15 2.00741 7C1.97407 7.28333 1.86157 7.52083 1.66991 7.7125C1.47824 7.90417 1.24074 8 0.957407 8ZM18.9574 8C18.6907 8 18.4574 7.90417 18.2574 7.7125C18.0574 7.52083 17.9407 7.28333 17.9074 7C17.8074 6.15 17.5782 5.35417 17.2199 4.6125C16.8616 3.87083 16.3907 3.18333 15.8074 2.55C15.6241 2.33333 15.5324 2.09167 15.5324 1.825C15.5324 1.55833 15.6324 1.33333 15.8324 1.15C16.0324 0.95 16.2699 0.85 16.5449 0.85C16.8199 0.85 17.0491 0.941667 17.2324 1.125C17.9824 1.925 18.5866 2.82917 19.0449 3.8375C19.5032 4.84583 19.7907 5.9 19.9074 7C19.9407 7.26667 19.8616 7.5 19.6699 7.7C19.4782 7.9 19.2407 8 18.9574 8Z" fill="#F80A0A"/>
<path fill-rule="evenodd" clip-rule="evenodd" d="M2.95741 17C2.67407 17 2.43657 16.9042 2.24491 16.7125C2.05324 16.5208 1.95741 16.2833 1.95741 16C1.95741 15.7167 2.05324 15.4792 2.24491 15.2875C2.43657 15.0958 2.67407 15 2.95741 15H3.95741V8C3.95741 6.61667 4.37407 5.3875 5.20741 4.3125C6.04074 3.2375 7.12407 2.53333 8.45741 2.2V1.5C8.45741 1.08333 8.60324 0.729167 8.89491 0.4375C9.18657 0.145833 9.54074 0 9.95741 0C10.3741 0 10.7282 0.145833 11.0199 0.4375C11.3116 0.729167 11.4574 1.08333 11.4574 1.5V2.2C12.7907 2.53333 13.8741 3.2375 14.7074 4.3125C15.5407 5.3875 15.9574 6.61667 15.9574 8V15H16.9574C17.2407 15 17.4782 15.0958 17.6699 15.2875C17.8616 15.4792 17.9574 15.7167 17.9574 16C17.9574 16.2833 17.8616 16.5208 17.6699 16.7125C17.4782 16.9042 17.2407 17 16.9574 17H2.95741ZM13.9574 15H5.95741V8C5.95741 6.9 6.34907 5.95833 7.13241 5.175C7.91574 4.39167 8.85741 4 9.95741 4C11.0574 4 11.9991 4.39167 12.7824 5.175C13.5657 5.95833 13.9574 6.9 13.9574 8V15Z" fill="black"/>
<path d="M9.95741 20C9.40741 20 8.93657 19.8042 8.54491 19.4125C8.15324 19.0208 7.95741 18.55 7.95741 18H11.9574C11.9574 18.55 11.7616 19.0208 11.3699 19.4125C10.9782 19.8042 10.5074 20 9.95741 20Z" fill="black"/>
</g>
</svg>
