<svg width="17" height="19" viewBox="0 0 17 19" fill="none" xmlns="http://www.w3.org/2000/svg">
<mask id="mask0_46_241" style="mask-type:alpha" maskUnits="userSpaceOnUse" x="-2" y="-1" width="21" height="21">
<rect x="-1.96626" y="-0.862022" width="20.6906" height="20.6906" fill="#D9D9D9"/>
</mask>
<g mask="url(#mask0_46_241)">
<path fill-rule="evenodd" clip-rule="evenodd" d="M6.43918 18.8263C6.6547 18.9196 6.8846 18.9663 7.12886 18.9663H12.6463C13.063 18.9663 13.4366 18.8334 13.7671 18.5676C14.0976 18.3018 14.2987 17.9606 14.3706 17.5439L15.1465 12.8454C15.2183 12.4718 15.1716 12.109 15.0064 11.757C14.8411 11.405 14.5861 11.1499 14.2412 10.9919L11.0514 9.44007C10.9796 9.41133 10.9149 9.38259 10.8575 9.35386C10.8 9.32512 10.7353 9.31075 10.6635 9.31075H10.1031V5.60369C10.1031 5.00022 9.89478 4.49014 9.4781 4.07345C9.06142 3.65677 8.55134 3.44843 7.94786 3.44843C7.34439 3.44843 6.83431 3.65677 6.41762 4.07345C6.00094 4.49014 5.7926 5.00022 5.7926 5.60369V12.6299L4.11149 12.2419C3.82412 12.1701 3.51879 12.1988 3.1955 12.3281C2.87221 12.4574 2.61717 12.6802 2.43038 12.9963C2.22922 13.3411 2.1466 13.729 2.18252 14.1601C2.21845 14.5912 2.38009 14.9504 2.66746 15.2377L5.87881 18.4491C6.03686 18.6071 6.22365 18.7329 6.43918 18.8263ZM12.6463 17.2421H7.12886L3.85286 13.9661L7.51681 14.742V5.60369C7.51681 5.47438 7.55632 5.37021 7.63535 5.29118C7.71437 5.21215 7.81855 5.17264 7.94786 5.17264C8.07718 5.17264 8.18135 5.21215 8.26038 5.29118C8.3394 5.37021 8.37892 5.47438 8.37892 5.60369V10.7763H9.8876L13.4653 12.5437L12.6463 17.2421Z" fill="#F9B908"/>
<path d="M0.706167 5.17264C0.433166 5.17264 0.232008 5.08643 0.102692 4.91401C-0.0266239 4.74159 -0.0338081 4.54043 0.0811394 4.31053C0.62714 3.20416 1.62215 2.20915 3.06618 1.32549C4.51021 0.44183 6.28112 0 8.37892 0C9.77265 0 11.091 0.229895 12.3338 0.689685C13.5767 1.14948 14.701 1.78887 15.7068 2.60787V1.50869C15.7068 1.3219 15.7679 1.16744 15.89 1.0453C16.0121 0.923172 16.1666 0.862107 16.3534 0.862107C16.5402 0.862107 16.6947 0.923172 16.8168 1.0453C16.9389 1.16744 17 1.3219 17 1.50869V4.31053C17 4.5548 16.9174 4.75955 16.7521 4.92478C16.5869 5.09002 16.3821 5.17264 16.1379 5.17264H13.336C13.1492 5.17264 12.9948 5.11157 12.8726 4.98944C12.7505 4.86731 12.6894 4.71285 12.6894 4.52606C12.6894 4.33927 12.7505 4.18481 12.8726 4.06268C12.9948 3.94055 13.1492 3.87948 13.336 3.87948H15.1896C14.27 3.07485 13.2319 2.44264 12.0752 1.98285C10.9185 1.52305 9.68644 1.29316 8.37892 1.29316C6.46791 1.29316 4.91612 1.67033 3.72354 2.42467C2.53096 3.17902 1.71914 3.96569 1.28809 4.78469C1.23061 4.89964 1.15877 4.99303 1.07256 5.06488C0.986351 5.13672 0.86422 5.17264 0.706167 5.17264Z" fill="#020100"/>
</g>
</svg>
