<svg width="14" height="20" viewBox="0 0 14 20" fill="none" xmlns="http://www.w3.org/2000/svg">
<mask id="mask0_186_495" style="mask-type:alpha" maskUnits="userSpaceOnUse" x="-5" y="-2" width="24" height="24">
<rect x="-5" y="-2" width="24" height="24" fill="#D9D9D9"/>
</mask>
<g mask="url(#mask0_186_495)">
<path d="M7 14.475C8.65 13.1417 9.89583 11.8583 10.7375 10.625C11.5792 9.39167 12 8.23333 12 7.15C12 6.21667 11.8292 5.42083 11.4875 4.7625C11.1458 4.10417 10.725 3.57083 10.225 3.1625C9.725 2.75417 9.18333 2.45833 8.6 2.275C8.01667 2.09167 7.48333 2 7 2C6.51667 2 5.98333 2.09167 5.4 2.275C4.81667 2.45833 4.275 2.75417 3.775 3.1625C3.275 3.57083 2.85417 4.10417 2.5125 4.7625C2.17083 5.42083 2 6.21667 2 7.15C2 8.23333 2.42083 9.39167 3.2625 10.625C4.10417 11.8583 5.35 13.1417 7 14.475ZM7 16.65C6.85 16.65 6.70833 16.6292 6.575 16.5875C6.44167 16.5458 6.31667 16.4833 6.2 16.4C4.11667 14.7833 2.5625 13.2083 1.5375 11.675C0.5125 10.1417 0 8.63333 0 7.15C0 5.96667 0.2125 4.92917 0.6375 4.0375C1.0625 3.14583 1.60833 2.4 2.275 1.8C2.94167 1.2 3.69167 0.75 4.525 0.45C5.35833 0.15 6.18333 0 7 0C7.81667 0 8.64167 0.15 9.475 0.45C10.3083 0.75 11.0583 1.2 11.725 1.8C12.3917 2.4 12.9375 3.14583 13.3625 4.0375C13.7875 4.92917 14 5.96667 14 7.15C14 8.63333 13.4875 10.1417 12.4625 11.675C11.4375 13.2083 9.88333 14.7833 7.8 16.4C7.7 16.4833 7.57917 16.5458 7.4375 16.5875C7.29583 16.6292 7.15 16.65 7 16.65ZM7 9C7.55 9 8.02083 8.80417 8.4125 8.4125C8.80417 8.02083 9 7.55 9 7C9 6.45 8.80417 5.97917 8.4125 5.5875C8.02083 5.19583 7.55 5 7 5C6.45 5 5.97917 5.19583 5.5875 5.5875C5.19583 5.97917 5 6.45 5 7C5 7.55 5.19583 8.02083 5.5875 8.4125C5.97917 8.80417 6.45 9 7 9ZM1 20C0.716667 20 0.479167 19.9042 0.2875 19.7125C0.0958333 19.5208 0 19.2833 0 19C0 18.7167 0.0958333 18.4792 0.2875 18.2875C0.479167 18.0958 0.716667 18 1 18H13C13.2833 18 13.5208 18.0958 13.7125 18.2875C13.9042 18.4792 14 18.7167 14 19C14 19.2833 13.9042 19.5208 13.7125 19.7125C13.5208 19.9042 13.2833 20 13 20H1Z" fill="white"/>
</g>
</svg>
