<svg width="17" height="17" viewBox="0 0 17 17" fill="none" xmlns="http://www.w3.org/2000/svg">
<mask id="mask0_46_235" style="mask-type:alpha" maskUnits="userSpaceOnUse" x="0" y="-1" width="19" height="19">
<rect y="-0.806833" width="18.6011" height="18.6011" fill="#D9D9D9"/>
</mask>
<g mask="url(#mask0_46_235)">
<path fill-rule="evenodd" clip-rule="evenodd" d="M15.4266 15.6532C14.6839 16.396 13.7958 16.8384 12.7624 16.9805C12.5945 17.0063 12.4492 16.9611 12.3265 16.8449C12.2038 16.7286 12.1424 16.5801 12.1424 16.3992C12.1424 16.2571 12.1941 16.1312 12.2974 16.0214C12.4008 15.9116 12.5235 15.8438 12.6656 15.8179C13.4277 15.7017 14.0768 15.3755 14.6129 14.8394C15.1489 14.3034 15.4751 13.6543 15.5913 12.8922C15.6172 12.7501 15.6818 12.6273 15.7851 12.524C15.8884 12.4207 16.0112 12.369 16.1533 12.369C16.3341 12.369 16.4859 12.4304 16.6086 12.5531C16.7313 12.6758 16.7797 12.8211 16.7539 12.989C16.6118 14.0224 16.1694 14.9105 15.4266 15.6532ZM0.739571 4.46355C0.629774 4.56689 0.503829 4.61856 0.361738 4.61856C0.180894 4.61856 0.0323439 4.5572 -0.0839126 4.43448C-0.200169 4.31177 -0.24538 4.16645 -0.219545 3.99852C-0.0774539 2.96513 0.364967 2.07706 1.10772 1.33431C1.85047 0.591558 2.73854 0.149137 3.77193 0.00704585C3.93986 -0.0187889 4.08518 0.0264219 4.20789 0.142679C4.33061 0.258935 4.39197 0.407485 4.39197 0.588329C4.39197 0.73042 4.3403 0.856365 4.23696 0.966163C4.13362 1.07596 4.0109 1.14378 3.86881 1.16961C3.1196 1.28587 2.47373 1.61526 1.9312 2.15779C1.38867 2.70032 1.05928 3.34619 0.94302 4.0954C0.917185 4.23749 0.849369 4.36021 0.739571 4.46355Z" fill="black"/>
<path fill-rule="evenodd" clip-rule="evenodd" d="M1.69869 15.0623C0.406948 13.7705 -0.238921 12.2204 -0.238921 10.412C-0.238921 8.60357 0.406948 7.05349 1.69869 5.76175L4.43072 3.01034C4.80532 2.63574 5.26066 2.44843 5.79673 2.44843C6.3328 2.44843 6.78814 2.63574 7.16275 3.01034C7.21442 3.06201 7.26286 3.11368 7.30807 3.16535C7.35328 3.21702 7.3888 3.26869 7.41464 3.32036L9.37162 1.36337C9.74623 0.988768 10.2016 0.801466 10.7376 0.801466C11.2737 0.801466 11.729 0.988768 12.1037 1.36337C12.1682 1.42796 12.2199 1.48609 12.2587 1.53776L12.3749 1.69277C12.7495 1.43442 13.1693 1.32462 13.6344 1.36337C14.0994 1.40212 14.4998 1.58943 14.8357 1.92528C15.1328 2.22238 15.3136 2.56146 15.3782 2.94252C15.4428 3.32359 15.3976 3.70142 15.2426 4.07603C15.3201 4.11478 15.3944 4.15999 15.4654 4.21166C15.5364 4.26333 15.6043 4.32146 15.6689 4.38604C16.0435 4.76065 16.2308 5.21599 16.2308 5.75206C16.2308 6.28813 16.0435 6.74347 15.6689 7.11807L15.3588 7.42809C15.4105 7.45393 15.4622 7.48945 15.5138 7.53466C15.5655 7.57987 15.6172 7.62831 15.6689 7.67998C16.0435 8.05458 16.2308 8.50992 16.2308 9.04599C16.2308 9.58207 16.0435 10.0374 15.6689 10.412L10.9992 15.0623C9.70747 16.354 8.15739 16.9999 6.34895 16.9999C4.54051 16.9999 2.99043 16.354 1.69869 15.0623ZM6.07769 4.65731L4.15945 6.57554C4.01736 6.71763 3.93986 6.89525 3.92694 7.10839C3.91402 7.32152 3.95923 7.53789 4.06257 7.75748C4.2305 8.10625 4.308 8.47117 4.29508 8.85223C4.28217 9.2333 4.17883 9.59176 3.98507 9.92761C3.89465 10.0826 3.85589 10.2473 3.86881 10.4217C3.88173 10.5961 3.93986 10.7349 4.0432 10.8383C4.23696 11.032 4.45978 11.1257 4.71167 11.1192C4.96356 11.1128 5.15409 10.9997 5.28327 10.7802C5.59328 10.2505 5.77413 9.68863 5.8258 9.09443C5.87747 8.50023 5.7935 7.91895 5.57391 7.35059L10.4567 2.46781C10.5342 2.39031 10.6278 2.35155 10.7376 2.35155C10.8474 2.35155 10.9346 2.39031 10.9992 2.46781C11.0767 2.54531 11.1155 2.63574 11.1155 2.73907C11.1155 2.84241 11.0767 2.93284 10.9992 3.01034L7.99592 6.03301C7.84091 6.18802 7.7634 6.36886 7.7634 6.57554C7.7634 6.78222 7.84091 6.96306 7.99592 7.11807C8.13801 7.27308 8.31885 7.35059 8.53845 7.35059C8.75804 7.35059 8.93889 7.27954 9.08098 7.13745L13.2081 3.01034C13.2856 2.93284 13.376 2.89408 13.4794 2.89408C13.5827 2.89408 13.6731 2.93284 13.7506 3.01034C13.8281 3.08785 13.8669 3.17827 13.8669 3.28161C13.8669 3.38494 13.8281 3.47537 13.7506 3.55287L9.64289 7.6606C9.48788 7.81561 9.41037 7.99968 9.41037 8.21282C9.41037 8.42596 9.48788 8.61003 9.64289 8.76504C9.79789 8.92005 9.97874 8.99755 10.1854 8.99755C10.3921 8.99755 10.5729 8.92005 10.7279 8.76504L14.0219 5.4711C14.0994 5.3936 14.1898 5.35808 14.2931 5.36454C14.3965 5.37099 14.4869 5.40652 14.5644 5.4711C14.6419 5.54861 14.6807 5.64226 14.6807 5.75206C14.6807 5.86186 14.6419 5.95551 14.5644 6.03301L10.7473 9.8501C10.5923 10.0051 10.5148 10.186 10.5148 10.3926C10.5148 10.5993 10.5923 10.7866 10.7473 10.9545C10.8894 11.1095 11.0703 11.1838 11.2899 11.1774C11.5094 11.1709 11.6903 11.0966 11.8324 10.9545L14.0219 8.76504C14.0994 8.68754 14.1898 8.64878 14.2931 8.64878C14.3965 8.64878 14.4869 8.68754 14.5644 8.76504C14.6419 8.84255 14.6807 8.93297 14.6807 9.03631C14.6807 9.13965 14.6419 9.23007 14.5644 9.30757L9.91415 13.9772C9.42329 14.4681 8.86784 14.8362 8.24781 15.0816C7.62777 15.3271 6.99482 15.4498 6.34895 15.4498C5.70308 15.4498 5.07013 15.3271 4.45009 15.0816C3.83006 14.8362 3.27461 14.4681 2.78375 13.9772C2.29289 13.4863 1.92474 12.9309 1.67931 12.3109C1.43388 11.6908 1.31117 11.0579 1.31117 10.412C1.31117 9.76614 1.43388 9.13319 1.67931 8.51315C1.92474 7.89312 2.29289 7.33767 2.78375 6.84681L5.53515 4.11478C5.61266 4.05019 5.70308 4.01467 5.80642 4.00821C5.90976 4.00175 6.00018 4.03727 6.07769 4.11478C6.15519 4.19228 6.19394 4.2827 6.19394 4.38604C6.19394 4.48938 6.15519 4.5798 6.07769 4.65731Z" fill="#F9B908"/>
</g>
</svg>
