<svg width="20" height="18" viewBox="0 0 20 18" fill="none" xmlns="http://www.w3.org/2000/svg">
<mask id="mask0_186_499" style="mask-type:alpha" maskUnits="userSpaceOnUse" x="-2" y="-3" width="24" height="25">
<rect x="-2" y="-2.6499" width="24" height="24" fill="#D9D9D9"/>
</mask>
<g mask="url(#mask0_186_499)">
<path d="M8.65 17.15L6.925 15.575C5.15833 13.9583 3.5625 12.3542 2.1375 10.7625C0.7125 9.17083 0 7.41667 0 5.5C0 3.93333 0.525 2.625 1.575 1.575C2.625 0.525 3.93333 0 5.5 0C6.38333 0 7.21667 0.1875 8 0.5625C8.78333 0.9375 9.45 1.45 10 2.1C10.55 1.45 11.2167 0.9375 12 0.5625C12.7833 0.1875 13.6167 0 14.5 0C16.0667 0 17.375 0.525 18.425 1.575C19.475 2.625 20 3.93333 20 5.5C20 7.41667 19.2917 9.175 17.875 10.775C16.4583 12.375 14.85 13.9833 13.05 15.6L11.35 17.15C10.9667 17.5167 10.5167 17.7 10 17.7C9.48333 17.7 9.03333 17.5167 8.65 17.15ZM9.05 4.1C8.56667 3.41667 8.05 2.89583 7.5 2.5375C6.95 2.17917 6.28333 2 5.5 2C4.5 2 3.66667 2.33333 3 3C2.33333 3.66667 2 4.5 2 5.5C2 6.36667 2.30833 7.2875 2.925 8.2625C3.54167 9.2375 4.27917 10.1833 5.1375 11.1C5.99583 12.0167 6.87917 12.875 7.7875 13.675C8.69583 14.475 9.43333 15.1333 10 15.65C10.5667 15.1333 11.3042 14.475 12.2125 13.675C13.1208 12.875 14.0042 12.0167 14.8625 11.1C15.7208 10.1833 16.4583 9.2375 17.075 8.2625C17.6917 7.2875 18 6.36667 18 5.5C18 4.5 17.6667 3.66667 17 3C16.3333 2.33333 15.5 2 14.5 2C13.7167 2 13.05 2.17917 12.5 2.5375C11.95 2.89583 11.4333 3.41667 10.95 4.1C10.8333 4.26667 10.6917 4.39167 10.525 4.475C10.3583 4.55833 10.1833 4.6 10 4.6C9.81667 4.6 9.64167 4.55833 9.475 4.475C9.30833 4.39167 9.16667 4.26667 9.05 4.1Z" fill="white"/>
</g>
</svg>
