<svg width="256" height="21" viewBox="0 0 256 21" fill="none" xmlns="http://www.w3.org/2000/svg">
<path d="M243.329 14.8784L239.685 11.235C239.276 10.8255 238.614 10.8255 238.205 11.235C237.795 11.6445 237.795 12.306 238.205 12.7155L242.594 17.1044C243.003 17.5139 243.665 17.5139 244.074 17.1044L255.183 5.99549C255.593 5.58599 255.593 4.92449 255.183 4.51499C254.774 4.1055 254.112 4.1055 253.703 4.51499L243.329 14.8784Z" fill="white"/>
<path d="M134.894 2.93994H118.094C116.929 2.93994 116.005 3.87443 116.005 5.03993L115.994 17.6399C115.994 18.8054 116.929 19.7399 118.094 19.7399H134.894C136.06 19.7399 136.994 18.8054 136.994 17.6399V5.03993C136.994 3.87443 136.06 2.93994 134.894 2.93994ZM134.894 17.6399H118.094V11.3399H134.894V17.6399ZM134.894 7.13992H118.094V5.03993H134.894V7.13992Z" fill="white"/>
<mask id="mask0_183_2353" style="mask-type:alpha" maskUnits="userSpaceOnUse" x="-6" y="-3" width="26" height="27">
<rect x="-5.25" y="-2.10002" width="25.1999" height="25.1999" fill="#D9D9D9"/>
</mask>
<g mask="url(#mask0_183_2353)">
<path d="M7.34997 15.1987C9.08246 13.7987 10.3906 12.4512 11.2743 11.1562C12.1581 9.86121 12.5999 8.64496 12.5999 7.50747C12.5999 6.52747 12.4206 5.69185 12.0618 5.0006C11.7031 4.30936 11.2612 3.74936 10.7362 3.32061C10.2112 2.89186 9.64246 2.58124 9.02996 2.38874C8.41746 2.19624 7.85746 2.09999 7.34997 2.09999C6.84247 2.09999 6.28247 2.19624 5.66997 2.38874C5.05748 2.58124 4.48873 2.89186 3.96373 3.32061C3.43873 3.74936 2.99686 4.30936 2.63811 5.0006C2.27936 5.69185 2.09999 6.52747 2.09999 7.50747C2.09999 8.64496 2.54186 9.86121 3.42561 11.1562C4.30936 12.4512 5.61747 13.7987 7.34997 15.1987ZM7.34997 17.4824C7.19247 17.4824 7.04372 17.4605 6.90372 17.4168C6.76372 17.373 6.63247 17.3074 6.50997 17.2199C4.32248 15.5224 2.69061 13.8687 1.61437 12.2587C0.538123 10.6487 0 9.06496 0 7.50747C0 6.26497 0.223124 5.1756 0.669372 4.23936C1.11562 3.30311 1.68874 2.51999 2.38874 1.88999C3.08874 1.25999 3.87623 0.787497 4.75123 0.472498C5.62622 0.157499 6.49247 0 7.34997 0C8.20746 0 9.07371 0.157499 9.94871 0.472498C10.8237 0.787497 11.6112 1.25999 12.3112 1.88999C13.0112 2.51999 13.5843 3.30311 14.0306 4.23936C14.4768 5.1756 14.6999 6.26497 14.6999 7.50747C14.6999 9.06496 14.1618 10.6487 13.0856 12.2587C12.0093 13.8687 10.3775 15.5224 8.18996 17.2199C8.08496 17.3074 7.95809 17.373 7.80934 17.4168C7.66059 17.4605 7.50747 17.4824 7.34997 17.4824ZM7.34997 9.44996C7.92746 9.44996 8.42184 9.24433 8.83309 8.83309C9.24433 8.42184 9.44996 7.92746 9.44996 7.34997C9.44996 6.77247 9.24433 6.2781 8.83309 5.86685C8.42184 5.4556 7.92746 5.24998 7.34997 5.24998C6.77247 5.24998 6.2781 5.4556 5.86685 5.86685C5.4556 6.2781 5.24998 6.77247 5.24998 7.34997C5.24998 7.92746 5.4556 8.42184 5.86685 8.83309C6.2781 9.24433 6.77247 9.44996 7.34997 9.44996ZM1.05 20.9999C0.752497 20.9999 0.503123 20.8993 0.301874 20.698C0.100625 20.4968 0 20.2474 0 19.9499C0 19.6524 0.100625 19.403 0.301874 19.2018C0.503123 19.0005 0.752497 18.8999 1.05 18.8999H13.6499C13.9474 18.8999 14.1968 19.0005 14.3981 19.2018C14.5993 19.403 14.6999 19.6524 14.6999 19.9499C14.6999 20.2474 14.5993 20.4968 14.3981 20.698C14.1968 20.8993 13.9474 20.9999 13.6499 20.9999H1.05Z" fill="#1877F2"/>
</g>
<line x1="20.7824" y1="12.4256" x2="105.888" y2="12.4256" stroke="#A6A6A6" stroke-dasharray="2 2"/>
<line x1="144.937" y1="12.4256" x2="230.043" y2="12.4256" stroke="#A6A6A6" stroke-dasharray="2 2"/>
</svg>
