<svg width="6" height="12" viewBox="0 0 6 12" fill="none" xmlns="http://www.w3.org/2000/svg">
<mask id="mask0_170_1994" style="mask-type:alpha" maskUnits="userSpaceOnUse" x="-6" y="-2" width="17" height="16">
<rect x="-5.00561" y="-1.98002" width="15.8402" height="15.8402" fill="#D9D9D9"/>
</mask>
<g mask="url(#mask0_170_1994)">
<path d="M2.93092 11.8801C2.74392 11.8801 2.58716 11.8169 2.46066 11.6904C2.33416 11.5639 2.27091 11.4071 2.27091 11.2201V10.4611C1.77591 10.3511 1.3414 10.1586 0.967398 9.8836C0.593395 9.60859 0.290892 9.22359 0.0598895 8.72859C-0.0171113 8.57458 -0.0198613 8.41233 0.0516394 8.24183C0.12314 8.07133 0.252391 7.94758 0.439393 7.87058C0.593395 7.80458 0.752896 7.80733 0.917898 7.87883C1.0829 7.95033 1.2094 8.06858 1.2974 8.23358C1.4844 8.56358 1.72091 8.81384 2.00691 8.98434C2.29291 9.15484 2.64491 9.24009 3.06292 9.24009C3.51392 9.24009 3.89618 9.13834 4.20968 8.93484C4.52318 8.73134 4.67993 8.41508 4.67993 7.98608C4.67993 7.60107 4.55893 7.29582 4.31693 7.07032C4.07493 6.84482 3.51392 6.58906 2.63391 6.30306C1.68791 6.00606 1.0389 5.65131 0.686896 5.2388C0.334892 4.8263 0.15889 4.32304 0.15889 3.72904C0.15889 3.01403 0.389893 2.45852 0.851897 2.06252C1.3139 1.66652 1.78691 1.44101 2.27091 1.38601V0.660006C2.27091 0.473005 2.33416 0.316253 2.46066 0.189752C2.58716 0.0632506 2.74392 0 2.93092 0C3.11792 0 3.27467 0.0632506 3.40117 0.189752C3.52767 0.316253 3.59092 0.473005 3.59092 0.660006V1.38601C4.00893 1.45201 4.37193 1.58677 4.67993 1.79027C4.98794 1.99377 5.24094 2.24402 5.43894 2.54102C5.53794 2.68403 5.55719 2.84353 5.49669 3.01953C5.43619 3.19553 5.31244 3.32203 5.12544 3.39903C4.97144 3.46503 4.81194 3.46778 4.64693 3.40728C4.48193 3.34678 4.32793 3.23953 4.18493 3.08553C4.04193 2.93153 3.87418 2.81328 3.68167 2.73078C3.48917 2.64828 3.24992 2.60703 2.96392 2.60703C2.47991 2.60703 2.11141 2.71428 1.85841 2.92878C1.6054 3.14328 1.4789 3.41003 1.4789 3.72904C1.4789 4.09204 1.6439 4.37804 1.97391 4.58704C2.30391 4.79605 2.87592 5.01605 3.68992 5.24705C4.44893 5.46705 5.02369 5.81631 5.41419 6.29481C5.8047 6.77332 5.99995 7.32607 5.99995 7.95308C5.99995 8.73408 5.76895 9.32809 5.30694 9.7351C4.84494 10.1421 4.27293 10.3951 3.59092 10.4941V11.2201C3.59092 11.4071 3.52767 11.5639 3.40117 11.6904C3.27467 11.8169 3.11792 11.8801 2.93092 11.8801Z" fill="#18C0C1"/>
</g>
</svg>
