<svg width="120" height="24" viewBox="0 0 120 24" fill="none" xmlns="http://www.w3.org/2000/svg">
<mask id="mask0_8_58" style="mask-type:alpha" maskUnits="userSpaceOnUse" x="0" y="0" width="24" height="24">
<rect width="24" height="24" fill="#D9D9D9"/>
</mask>
<g mask="url(#mask0_8_58)">
<path d="M12 16.475C13.65 15.1417 14.8958 13.8583 15.7375 12.625C16.5792 11.3917 17 10.2333 17 9.15C17 8.21667 16.8292 7.42083 16.4875 6.7625C16.1458 6.10417 15.725 5.57083 15.225 5.1625C14.725 4.75417 14.1833 4.45833 13.6 4.275C13.0167 4.09167 12.4833 4 12 4C11.5167 4 10.9833 4.09167 10.4 4.275C9.81667 4.45833 9.275 4.75417 8.775 5.1625C8.275 5.57083 7.85417 6.10417 7.5125 6.7625C7.17083 7.42083 7 8.21667 7 9.15C7 10.2333 7.42083 11.3917 8.2625 12.625C9.10417 13.8583 10.35 15.1417 12 16.475ZM12 18.65C11.85 18.65 11.7083 18.6292 11.575 18.5875C11.4417 18.5458 11.3167 18.4833 11.2 18.4C9.11667 16.7833 7.5625 15.2083 6.5375 13.675C5.5125 12.1417 5 10.6333 5 9.15C5 7.96667 5.2125 6.92917 5.6375 6.0375C6.0625 5.14583 6.60833 4.4 7.275 3.8C7.94167 3.2 8.69167 2.75 9.525 2.45C10.3583 2.15 11.1833 2 12 2C12.8167 2 13.6417 2.15 14.475 2.45C15.3083 2.75 16.0583 3.2 16.725 3.8C17.3917 4.4 17.9375 5.14583 18.3625 6.0375C18.7875 6.92917 19 7.96667 19 9.15C19 10.6333 18.4875 12.1417 17.4625 13.675C16.4375 15.2083 14.8833 16.7833 12.8 18.4C12.7 18.4833 12.5792 18.5458 12.4375 18.5875C12.2958 18.6292 12.15 18.65 12 18.65ZM12 11C12.55 11 13.0208 10.8042 13.4125 10.4125C13.8042 10.0208 14 9.55 14 9C14 8.45 13.8042 7.97917 13.4125 7.5875C13.0208 7.19583 12.55 7 12 7C11.45 7 10.9792 7.19583 10.5875 7.5875C10.1958 7.97917 10 8.45 10 9C10 9.55 10.1958 10.0208 10.5875 10.4125C10.9792 10.8042 11.45 11 12 11ZM6 22C5.71667 22 5.47917 21.9042 5.2875 21.7125C5.09583 21.5208 5 21.2833 5 21C5 20.7167 5.09583 20.4792 5.2875 20.2875C5.47917 20.0958 5.71667 20 6 20H18C18.2833 20 18.5208 20.0958 18.7125 20.2875C18.9042 20.4792 19 20.7167 19 21C19 21.2833 18.9042 21.5208 18.7125 21.7125C18.5208 21.9042 18.2833 22 18 22H6Z" fill="white"/>
</g>
<mask id="mask1_8_58" style="mask-type:alpha" maskUnits="userSpaceOnUse" x="48" y="0" width="24" height="24">
<rect x="48" width="24" height="24" fill="#D9D9D9"/>
</mask>
<g mask="url(#mask1_8_58)">
<path d="M60 16.475C61.65 15.1417 62.8958 13.8583 63.7375 12.625C64.5792 11.3917 65 10.2333 65 9.15C65 8.21667 64.8292 7.42083 64.4875 6.7625C64.1458 6.10417 63.725 5.57083 63.225 5.1625C62.725 4.75417 62.1833 4.45833 61.6 4.275C61.0167 4.09167 60.4833 4 60 4C59.5167 4 58.9833 4.09167 58.4 4.275C57.8167 4.45833 57.275 4.75417 56.775 5.1625C56.275 5.57083 55.8542 6.10417 55.5125 6.7625C55.1708 7.42083 55 8.21667 55 9.15C55 10.2333 55.4208 11.3917 56.2625 12.625C57.1042 13.8583 58.35 15.1417 60 16.475ZM60 18.65C59.85 18.65 59.7083 18.6292 59.575 18.5875C59.4417 18.5458 59.3167 18.4833 59.2 18.4C57.1167 16.7833 55.5625 15.2083 54.5375 13.675C53.5125 12.1417 53 10.6333 53 9.15C53 7.96667 53.2125 6.92917 53.6375 6.0375C54.0625 5.14583 54.6083 4.4 55.275 3.8C55.9417 3.2 56.6917 2.75 57.525 2.45C58.3583 2.15 59.1833 2 60 2C60.8167 2 61.6417 2.15 62.475 2.45C63.3083 2.75 64.0583 3.2 64.725 3.8C65.3917 4.4 65.9375 5.14583 66.3625 6.0375C66.7875 6.92917 67 7.96667 67 9.15C67 10.6333 66.4875 12.1417 65.4625 13.675C64.4375 15.2083 62.8833 16.7833 60.8 18.4C60.7 18.4833 60.5792 18.5458 60.4375 18.5875C60.2958 18.6292 60.15 18.65 60 18.65ZM60 11C60.55 11 61.0208 10.8042 61.4125 10.4125C61.8042 10.0208 62 9.55 62 9C62 8.45 61.8042 7.97917 61.4125 7.5875C61.0208 7.19583 60.55 7 60 7C59.45 7 58.9792 7.19583 58.5875 7.5875C58.1958 7.97917 58 8.45 58 9C58 9.55 58.1958 10.0208 58.5875 10.4125C58.9792 10.8042 59.45 11 60 11ZM54 22C53.7167 22 53.4792 21.9042 53.2875 21.7125C53.0958 21.5208 53 21.2833 53 21C53 20.7167 53.0958 20.4792 53.2875 20.2875C53.4792 20.0958 53.7167 20 54 20H66C66.2833 20 66.5208 20.0958 66.7125 20.2875C66.9042 20.4792 67 20.7167 67 21C67 21.2833 66.9042 21.5208 66.7125 21.7125C66.5208 21.9042 66.2833 22 66 22H54Z" fill="white"/>
</g>
</svg>
