<svg width="129" height="6" viewBox="0 0 129 6" fill="none" xmlns="http://www.w3.org/2000/svg">
<circle cx="2.8855" cy="2.8855" r="2.8855" transform="matrix(1 0 0 -1 0 5.771)" fill="black"/>
<circle cx="2.8855" cy="2.8855" r="2.8855" transform="matrix(1 0 0 -1 8.17557 5.771)" fill="black"/>
<circle cx="2.8855" cy="2.8855" r="2.8855" transform="matrix(1 0 0 -1 16.3511 5.771)" fill="black"/>
<circle cx="2.8855" cy="2.8855" r="2.8855" transform="matrix(1 0 0 -1 24.5267 5.771)" fill="black"/>
<circle cx="2.8855" cy="2.8855" r="2.8855" transform="matrix(1 0 0 -1 32.7023 5.771)" fill="black"/>
<circle cx="2.8855" cy="2.8855" r="2.8855" transform="matrix(1 0 0 -1 40.8779 5.771)" fill="black"/>
<circle cx="2.8855" cy="2.8855" r="2.8855" transform="matrix(1 0 0 -1 49.0534 5.771)" fill="black"/>
<circle cx="2.8855" cy="2.8855" r="2.8855" transform="matrix(1 0 0 -1 57.229 5.771)" fill="black"/>
<circle cx="2.8855" cy="2.8855" r="2.8855" transform="matrix(1 0 0 -1 66 5.771)" fill="black"/>
<circle cx="2.8855" cy="2.8855" r="2.8855" transform="matrix(1 0 0 -1 74.1756 5.771)" fill="black"/>
<circle cx="2.8855" cy="2.8855" r="2.8855" transform="matrix(1 0 0 -1 82.3511 5.771)" fill="black"/>
<circle cx="2.8855" cy="2.8855" r="2.8855" transform="matrix(1 0 0 -1 90.5267 5.771)" fill="black"/>
<circle cx="2.8855" cy="2.8855" r="2.8855" transform="matrix(1 0 0 -1 98.7023 5.771)" fill="black"/>
<circle cx="2.8855" cy="2.8855" r="2.8855" transform="matrix(1 0 0 -1 106.878 5.771)" fill="black"/>
<circle cx="2.8855" cy="2.8855" r="2.8855" transform="matrix(1 0 0 -1 115.053 5.771)" fill="black"/>
<circle cx="2.8855" cy="2.8855" r="2.8855" transform="matrix(1 0 0 -1 123.229 5.771)" fill="black"/>
</svg>
