<svg width="256" height="244" viewBox="0 0 256 244" fill="none" xmlns="http://www.w3.org/2000/svg">
<path d="M127.741 244C198.291 244 255.482 210.982 255.482 170.252C255.482 129.522 198.291 96.5038 127.741 96.5038C57.1916 96.5038 0 129.522 0 170.252C0 210.982 57.1916 244 127.741 244Z" fill="#F5F5F5"/>
<path d="M165.124 150.4L218.962 181.477C221.523 182.956 225.681 182.956 228.242 181.477L235.743 177.035C238.31 175.556 238.31 173.156 235.743 171.677L181.734 140.488C179.173 139.009 175.031 139.031 172.481 140.542L165.097 144.989C162.547 146.521 162.563 148.922 165.124 150.4Z" fill="#E0E0E0"/>
<path d="M93.7443 150.4L39.9067 181.477C37.3402 182.956 33.1877 182.956 30.6266 181.477L23.1253 177.035C20.5642 175.556 20.5642 173.156 23.1253 171.677L77.1558 140.483C79.717 139.004 83.8587 139.025 86.4091 140.536L93.7925 144.983C96.3162 146.521 96.3055 148.921 93.7443 150.4Z" fill="#E0E0E0"/>
<path d="M127.843 221.614C146.444 221.614 161.524 213.417 161.524 203.306C161.524 193.194 146.444 184.997 127.843 184.997C109.242 184.997 94.1622 193.194 94.1622 203.306C94.1622 213.417 109.242 221.614 127.843 221.614Z" fill="#E0E0E0"/>
<path d="M180.078 201.505C198.68 201.505 213.759 193.308 213.759 183.197C213.759 173.085 198.68 164.888 180.078 164.888C161.477 164.888 146.398 173.085 146.398 183.197C146.398 193.308 161.477 201.505 180.078 201.505Z" fill="#E0E0E0"/>
<path d="M81.1155 200.252C99.7168 200.252 114.796 192.055 114.796 181.943C114.796 171.832 99.7168 163.635 81.1155 163.635C62.5142 163.635 47.4349 171.832 47.4349 181.943C47.4349 192.055 62.5142 200.252 81.1155 200.252Z" fill="#E0E0E0"/>
<path d="M127.843 125.437C139.375 125.437 148.723 120.356 148.723 114.089C148.723 107.821 139.375 102.741 127.843 102.741C116.311 102.741 106.963 107.821 106.963 114.089C106.963 120.356 116.311 125.437 127.843 125.437Z" fill="#E0E0E0"/>
<path d="M230.658 168.843L226.999 166.732C226.999 166.732 226.104 158.904 226.704 152.844C227.54 144.324 233.043 134.09 239.601 136.48C246.159 138.87 236.611 147.593 234.468 154.789C232.325 161.984 230.658 168.843 230.658 168.843Z" fill="#38A3A5"/>
<path opacity="0.15" d="M230.658 168.843L226.999 166.732C226.999 166.732 226.104 158.904 226.704 152.844C227.54 144.324 233.043 134.09 239.601 136.48C246.159 138.87 236.611 147.593 234.468 154.789C232.325 161.984 230.658 168.843 230.658 168.843Z" fill="black"/>
<path d="M228.735 167.953C228.764 167.953 228.792 167.946 228.819 167.935C228.845 167.923 228.869 167.906 228.889 167.885C228.909 167.864 228.924 167.84 228.935 167.813C228.945 167.786 228.95 167.757 228.949 167.728C228.306 148.798 237.731 139.277 237.827 139.181C237.869 139.139 237.892 139.083 237.892 139.025C237.892 138.967 237.869 138.911 237.827 138.87C237.786 138.829 237.73 138.805 237.672 138.805C237.614 138.805 237.558 138.829 237.517 138.87C237.42 138.961 227.872 148.621 228.51 167.739C228.51 167.768 228.516 167.797 228.527 167.824C228.539 167.85 228.555 167.874 228.576 167.894C228.597 167.914 228.622 167.93 228.65 167.94C228.677 167.95 228.706 167.955 228.735 167.953Z" fill="white"/>
<path d="M232.957 170.161L230.353 168.655C230.232 164.58 230.979 160.525 232.544 156.76C234.838 151.081 240.528 146.366 243.389 147.357C246.25 148.348 246.175 150.379 244.782 152.506C243.389 154.633 234.902 159.707 232.957 170.161Z" fill="#38A3A5"/>
<path d="M231.58 169.587C231.638 169.586 231.693 169.563 231.734 169.522C231.775 169.481 231.798 169.426 231.8 169.368C231.746 157.398 242.982 149.307 243.1 149.227C243.147 149.193 243.179 149.141 243.189 149.083C243.199 149.026 243.185 148.966 243.151 148.919C243.117 148.871 243.065 148.839 243.007 148.83C242.949 148.82 242.89 148.834 242.843 148.868C242.725 148.948 231.301 157.173 231.355 169.368C231.355 169.397 231.361 169.426 231.372 169.453C231.383 169.48 231.4 169.505 231.421 169.525C231.442 169.546 231.467 169.562 231.494 169.572C231.521 169.583 231.551 169.588 231.58 169.587Z" fill="white"/>
<path d="M34.3557 162.386L38.0474 160.243C38.0474 160.243 40.2496 151.102 39.3709 142.878C38.1385 131.32 30.5301 126.97 27.6367 127.966C24.7434 128.963 23.8861 132.328 28.7084 139.218C31.516 143.306 34.988 151.745 34.3557 162.386Z" fill="#38A3A5"/>
<g opacity="0.15">
<path d="M34.3557 162.386L38.0474 160.243C38.0474 160.243 40.2496 151.102 39.3709 142.878C38.1385 131.32 30.5301 126.97 27.6367 127.966C24.7434 128.963 23.8861 132.328 28.7084 139.218C31.516 143.306 34.988 151.745 34.3557 162.386Z" fill="black"/>
</g>
<path d="M35.8828 157.896H35.8507C35.8179 157.89 35.7865 157.878 35.7585 157.86C35.7305 157.842 35.7063 157.819 35.6873 157.791C35.6684 157.764 35.6551 157.733 35.6482 157.701C35.6413 157.668 35.6409 157.634 35.6471 157.602C37.6724 146.934 33.9486 134.953 29.3353 129.965C29.3115 129.941 29.2926 129.913 29.2797 129.883C29.2667 129.852 29.2601 129.819 29.2601 129.785C29.2601 129.752 29.2667 129.719 29.2797 129.688C29.2926 129.657 29.3115 129.629 29.3353 129.606C29.3842 129.559 29.4495 129.532 29.5175 129.532C29.5854 129.532 29.6507 129.559 29.6996 129.606C34.3986 134.685 38.1921 146.864 36.1293 157.682C36.1185 157.74 36.0882 157.793 36.0434 157.832C35.9987 157.871 35.9421 157.894 35.8828 157.896Z" fill="white"/>
<path d="M24.6738 167.98C24.0897 168.275 22.5305 166.946 22.1019 166.624C21.3642 166.066 20.7814 165.328 20.4088 164.481C19.9922 163.514 19.8873 162.441 20.1087 161.411C20.228 160.865 20.3856 160.328 20.5802 159.804L21.116 158.255C21.3218 157.756 21.4274 157.22 21.4268 156.68C21.3411 155.608 20.4248 154.794 19.589 154.103C18.6674 153.337 17.7137 152.335 17.7833 151.038C17.9025 150.028 18.3528 149.086 19.0639 148.359C19.7229 147.609 20.4891 146.95 21.0946 146.151C21.5616 145.594 21.826 144.896 21.8447 144.169C21.8082 143.723 21.6806 143.289 21.4697 142.894C20.9871 142.063 20.5697 141.196 20.2212 140.3C19.9533 139.379 20.0551 138.254 20.7945 137.621C21.1221 137.401 21.4903 137.248 21.8776 137.172C22.2649 137.095 22.6636 137.097 23.0503 137.177C23.7814 137.305 24.4761 137.59 25.0863 138.013C27.0849 139.261 28.1351 141.763 30.2729 142.744C31.1254 143.057 31.997 143.317 32.8823 143.521C33.3248 143.628 33.7401 143.826 34.1017 144.103C34.4633 144.38 34.7633 144.729 34.9826 145.128C35.706 146.768 34.12 148.664 34.5969 150.39C35.0201 151.922 36.4507 152.57 37.2009 153.963C37.5032 154.579 37.6026 155.275 37.4848 155.951C37.3569 157.096 37.0191 158.208 36.4882 159.23C35.8908 160.282 35.2306 161.296 34.5111 162.268L24.6738 167.98Z" fill="#38A3A5"/>
<path d="M30.3265 165.028C30.2927 165.025 30.2597 165.016 30.2295 165C30.1993 164.985 30.1725 164.963 30.1506 164.938C30.1287 164.912 30.1121 164.882 30.1018 164.849C30.0916 164.817 30.0878 164.783 30.0907 164.749C31.0284 154.606 26.8062 143.146 23.4896 139.711C23.4617 139.688 23.439 139.66 23.4228 139.627C23.4066 139.595 23.3974 139.56 23.3958 139.524C23.3941 139.488 23.4001 139.452 23.4133 139.418C23.4264 139.385 23.4465 139.354 23.4722 139.329C23.4979 139.304 23.5286 139.284 23.5624 139.271C23.5962 139.259 23.6322 139.253 23.6682 139.255C23.7042 139.258 23.7394 139.267 23.7714 139.284C23.8034 139.301 23.8315 139.324 23.854 139.352C27.2402 142.856 31.5535 154.51 30.6051 164.797C30.6024 164.831 30.593 164.864 30.5775 164.894C30.5619 164.924 30.5405 164.95 30.5145 164.972C30.4885 164.993 30.4585 165.009 30.4262 165.019C30.3939 165.028 30.36 165.031 30.3265 165.028Z" fill="white"/>
<path d="M29.3245 152.522C29.2998 152.528 29.2742 152.528 29.2495 152.522C26.8735 151.739 24.4194 151.216 21.9304 150.963C21.863 150.956 21.8011 150.923 21.758 150.871C21.7148 150.819 21.694 150.752 21.7 150.684C21.7019 150.65 21.7108 150.617 21.7261 150.587C21.7414 150.557 21.7628 150.53 21.789 150.508C21.8151 150.487 21.8455 150.471 21.8781 150.461C21.9107 150.452 21.9449 150.449 21.9786 150.454C24.5111 150.713 27.007 151.253 29.4209 152.061C29.4822 152.078 29.5349 152.117 29.5685 152.171C29.602 152.225 29.6138 152.29 29.6016 152.353C29.5894 152.415 29.5541 152.47 29.5027 152.508C29.4512 152.545 29.3876 152.562 29.3245 152.554V152.522Z" fill="white"/>
<path d="M123.021 49.803V112.765C123.021 113.478 123.492 114.196 124.441 114.743C125.503 115.281 126.678 115.562 127.87 115.562C129.061 115.562 130.236 115.281 131.299 114.743C132.247 114.207 132.719 113.478 132.719 112.765V49.803H123.021Z" fill="#B16668"/>
<path d="M159.991 80.7082L129.938 8.15499H125.753L95.6947 80.7136C95.4769 81.2383 95.3784 81.8049 95.4063 82.3723C95.4341 82.9398 95.5876 83.494 95.8558 83.9949C96.1239 84.4957 96.4999 84.9308 96.9567 85.2687C97.4135 85.6065 97.9396 85.8387 98.497 85.9484L98.9846 86.0502C99.9368 86.238 100.782 86.7796 101.351 87.5661C101.92 88.3526 102.169 89.3253 102.049 90.2884C101.97 90.9248 102.051 91.5708 102.286 92.1677C102.52 92.7645 102.9 93.2932 103.392 93.7055C103.883 94.1178 104.469 94.4006 105.098 94.5281C105.726 94.6556 106.377 94.6238 106.989 94.4355L108.468 93.9801C109.361 93.705 110.324 93.7649 111.176 94.1486C112.028 94.5322 112.712 95.2134 113.098 96.0644L114.593 99.3542C114.815 99.8456 115.139 100.285 115.543 100.642C115.947 101 116.421 101.269 116.936 101.431C117.451 101.594 117.994 101.646 118.53 101.584C119.066 101.523 119.583 101.349 120.047 101.074L125.877 97.6182C126.468 97.2658 127.144 97.0797 127.832 97.0797C128.521 97.0797 129.197 97.2658 129.788 97.6182L135.618 101.074C136.081 101.351 136.598 101.527 137.135 101.591C137.671 101.655 138.215 101.604 138.731 101.444C139.247 101.283 139.723 101.015 140.128 100.658C140.533 100.301 140.859 99.8618 141.083 99.3703L142.578 96.0751C142.965 95.2251 143.648 94.5451 144.5 94.1625C145.352 93.7799 146.314 93.7207 147.207 93.9962L148.691 94.4516C149.304 94.6402 149.954 94.6723 150.582 94.5448C151.211 94.4174 151.797 94.1345 152.288 93.722C152.779 93.3095 153.158 92.7806 153.392 92.1836C153.626 91.5866 153.706 90.9406 153.626 90.3045C153.507 89.3416 153.757 88.3695 154.326 87.5833C154.894 86.7972 155.739 86.2552 156.691 86.0663L157.184 85.9645C157.744 85.8562 158.274 85.6241 158.733 85.2851C159.193 84.9462 159.571 84.5089 159.84 84.0053C160.109 83.5016 160.262 82.9443 160.288 82.3739C160.314 81.8035 160.213 81.2344 159.991 80.7082Z" fill="#38A3A5"/>
<path opacity="0.3" d="M159.991 80.7082L129.938 8.15499H125.753L95.6947 80.7136C95.4769 81.2383 95.3784 81.8049 95.4063 82.3723C95.4341 82.9398 95.5876 83.494 95.8558 83.9949C96.1239 84.4957 96.4999 84.9308 96.9567 85.2687C97.4135 85.6065 97.9396 85.8387 98.497 85.9484L98.9846 86.0502C99.9368 86.238 100.782 86.7796 101.351 87.5661C101.92 88.3526 102.169 89.3253 102.049 90.2884C101.97 90.9248 102.051 91.5708 102.286 92.1677C102.52 92.7645 102.9 93.2932 103.392 93.7055C103.883 94.1178 104.469 94.4006 105.098 94.5281C105.726 94.6556 106.377 94.6238 106.989 94.4355L108.468 93.9801C109.361 93.705 110.324 93.7649 111.176 94.1486C112.028 94.5322 112.712 95.2134 113.098 96.0644L114.593 99.3542C114.815 99.8456 115.139 100.285 115.543 100.642C115.947 101 116.421 101.269 116.936 101.431C117.451 101.594 117.994 101.646 118.53 101.584C119.066 101.523 119.583 101.349 120.047 101.074L125.877 97.6182C126.468 97.2658 127.144 97.0797 127.832 97.0797C128.521 97.0797 129.197 97.2658 129.788 97.6182L135.618 101.074C136.081 101.351 136.598 101.527 137.135 101.591C137.671 101.655 138.215 101.604 138.731 101.444C139.247 101.283 139.723 101.015 140.128 100.658C140.533 100.301 140.859 99.8618 141.083 99.3703L142.578 96.0751C142.965 95.2251 143.648 94.5451 144.5 94.1625C145.352 93.7799 146.314 93.7207 147.207 93.9962L148.691 94.4516C149.304 94.6402 149.954 94.6723 150.582 94.5448C151.211 94.4174 151.797 94.1345 152.288 93.722C152.779 93.3095 153.158 92.7806 153.392 92.1836C153.626 91.5866 153.706 90.9406 153.626 90.3045C153.507 89.3416 153.757 88.3695 154.326 87.5833C154.894 86.7972 155.739 86.2552 156.691 86.0663L157.184 85.9645C157.744 85.8562 158.274 85.6241 158.733 85.2851C159.193 84.9462 159.571 84.5089 159.84 84.0053C160.109 83.5016 160.262 82.9443 160.288 82.3739C160.314 81.8035 160.213 81.2344 159.991 80.7082Z" fill="black"/>
<path opacity="0.1" d="M122.394 16.2617L125.753 8.63186H129.938L135.483 21.5555L153.62 65.3467C153.533 65.8063 153.303 66.2267 152.964 66.5487C152.624 66.8708 152.192 67.0782 151.729 67.1417C150.989 67.2621 150.325 67.6639 149.874 68.2631C149.424 68.8623 149.223 69.6124 149.313 70.3565L149.377 70.8923C149.435 71.3875 149.365 71.8893 149.173 72.3494C148.981 72.8095 148.673 73.2123 148.28 73.5188C147.887 73.8253 147.421 74.0252 146.928 74.0992C146.435 74.1731 145.931 74.1187 145.465 73.941L143.976 73.3784C143.283 73.1141 142.516 73.1251 141.831 73.4091C141.147 73.6931 140.597 74.2286 140.295 74.9055L138.452 79.0419C138.284 79.4164 138.039 79.7513 137.733 80.0244C137.427 80.2976 137.066 80.5029 136.675 80.6269C136.284 80.7508 135.871 80.7907 135.463 80.7437C135.056 80.6968 134.663 80.5642 134.31 80.3546L129.332 77.038C128.882 76.7695 128.367 76.6278 127.843 76.6278C127.318 76.6278 126.804 76.7695 126.353 77.038L120.797 80.3546C120.444 80.5651 120.051 80.6984 119.643 80.7458C119.236 80.7931 118.822 80.7535 118.431 80.6294C118.04 80.5054 117.679 80.2998 117.373 80.0261C117.067 79.7525 116.822 79.417 116.655 79.0419L114.812 74.9055C114.51 74.2286 113.96 73.6931 113.276 73.4091C112.591 73.1251 111.824 73.1141 111.131 73.3784L109.625 73.9464C109.159 74.1236 108.655 74.1778 108.162 74.1037C107.669 74.0297 107.203 73.8298 106.81 73.5235C106.416 73.2172 106.108 72.8147 105.915 72.3548C105.723 71.8949 105.651 71.3931 105.709 70.8977L105.773 70.3619C105.864 69.6183 105.664 68.8682 105.215 68.2688C104.765 67.6695 104.101 67.2675 103.362 67.147C103.03 67.1035 102.712 66.9842 102.433 66.7984C102.155 66.6126 101.922 66.3653 101.755 66.0754L122.394 16.2617Z" fill="black"/>
<path d="M153.283 59.6136L129.938 5.25629H125.753L101.824 59.6136C100.962 61.3604 101.455 63.4446 103.378 63.7608C104.118 63.8812 104.782 64.2832 105.231 64.8826C105.681 65.4819 105.881 66.232 105.789 66.9756L105.725 67.5114C105.668 68.0068 105.739 68.5086 105.932 68.9685C106.124 69.4284 106.432 69.8309 106.826 70.1372C107.219 70.4436 107.685 70.6434 108.178 70.7175C108.672 70.7915 109.175 70.7373 109.642 70.5601L111.131 69.9975C111.824 69.7322 112.593 69.7432 113.278 70.0285C113.963 70.3137 114.512 70.8512 114.812 71.5299L116.655 75.661C116.822 76.0361 117.067 76.3715 117.373 76.6452C117.679 76.9188 118.04 77.1245 118.431 77.2485C118.822 77.3726 119.236 77.4122 119.644 77.3648C120.051 77.3175 120.445 77.1842 120.797 76.9737L126.353 73.6517C126.804 73.3832 127.319 73.2415 127.843 73.2415C128.367 73.2415 128.882 73.3832 129.332 73.6517L134.31 76.9683C134.662 77.179 135.055 77.3126 135.463 77.3603C135.87 77.408 136.283 77.3688 136.675 77.2453C137.066 77.1218 137.427 76.9167 137.733 76.6436C138.039 76.3705 138.284 76.0356 138.452 75.661L140.295 71.5246C140.595 70.8458 141.144 70.3083 141.829 70.0231C142.514 69.7379 143.283 69.7268 143.976 69.9922L145.466 70.5548C145.931 70.7324 146.435 70.7868 146.928 70.7129C147.421 70.6389 147.887 70.439 148.28 70.1325C148.673 69.826 148.981 69.4232 149.173 68.9631C149.365 68.503 149.435 68.0012 149.377 67.506L149.313 66.9702C149.223 66.2261 149.424 65.476 149.874 64.8768C150.325 64.2777 150.989 63.8758 151.729 63.7554C153.653 63.4714 154.146 61.3604 153.283 59.6136Z" fill="#38A3A5"/>
<path opacity="0.2" d="M153.283 59.6136L129.938 5.25629H125.753L101.824 59.6136C100.962 61.3604 101.455 63.4446 103.378 63.7608C104.118 63.8812 104.782 64.2832 105.231 64.8826C105.681 65.4819 105.881 66.232 105.789 66.9756L105.725 67.5114C105.668 68.0068 105.739 68.5086 105.932 68.9685C106.124 69.4284 106.432 69.8309 106.826 70.1372C107.219 70.4436 107.685 70.6434 108.178 70.7175C108.672 70.7915 109.175 70.7373 109.642 70.5601L111.131 69.9975C111.824 69.7322 112.593 69.7432 113.278 70.0285C113.963 70.3137 114.512 70.8512 114.812 71.5299L116.655 75.661C116.822 76.0361 117.067 76.3715 117.373 76.6452C117.679 76.9188 118.04 77.1245 118.431 77.2485C118.822 77.3726 119.236 77.4122 119.644 77.3648C120.051 77.3175 120.445 77.1842 120.797 76.9737L126.353 73.6517C126.804 73.3832 127.319 73.2415 127.843 73.2415C128.367 73.2415 128.882 73.3832 129.332 73.6517L134.31 76.9683C134.662 77.179 135.055 77.3126 135.463 77.3603C135.87 77.408 136.283 77.3688 136.675 77.2453C137.066 77.1218 137.427 76.9167 137.733 76.6436C138.039 76.3705 138.284 76.0356 138.452 75.661L140.295 71.5246C140.595 70.8458 141.144 70.3083 141.829 70.0231C142.514 69.7379 143.283 69.7268 143.976 69.9922L145.466 70.5548C145.931 70.7324 146.435 70.7868 146.928 70.7129C147.421 70.6389 147.887 70.439 148.28 70.1325C148.673 69.826 148.981 69.4232 149.173 68.9631C149.365 68.503 149.435 68.0012 149.377 67.506L149.313 66.9702C149.223 66.2261 149.424 65.476 149.874 64.8768C150.325 64.2777 150.989 63.8758 151.729 63.7554C153.653 63.4714 154.146 61.3604 153.283 59.6136Z" fill="black"/>
<path opacity="0.1" d="M125.753 5.25629H129.938L146.95 44.8683C146.817 44.9821 146.673 45.0826 146.521 45.1684L146.392 45.2434C145.953 45.4882 145.595 45.8545 145.359 46.2984C145.123 46.7423 145.021 47.2448 145.064 47.7456C145.099 48.1632 145.033 48.5831 144.872 48.9702C144.711 49.3572 144.46 49.7 144.139 49.9697C143.819 50.2395 143.438 50.4285 143.029 50.5207C142.62 50.6129 142.195 50.6056 141.79 50.4996L140.777 50.2317C140.208 50.081 139.606 50.1265 139.066 50.3608C138.526 50.5952 138.082 51.0046 137.803 51.523L136.41 54.1216C136.083 54.7267 135.531 55.1784 134.873 55.379C134.215 55.5796 133.505 55.5128 132.895 55.1933L129.054 53.184C128.68 52.9887 128.265 52.8867 127.843 52.8867C127.421 52.8867 127.006 52.9887 126.632 53.184L122.79 55.1933C122.181 55.5128 121.471 55.5796 120.813 55.379C120.155 55.1784 119.602 54.7267 119.275 54.1216L117.882 51.523C117.604 51.0046 117.159 50.5952 116.62 50.3608C116.08 50.1265 115.477 50.081 114.909 50.2317L113.896 50.4996C113.49 50.6056 113.065 50.6129 112.657 50.5207C112.248 50.4285 111.867 50.2395 111.546 49.9697C111.226 49.7 110.974 49.3572 110.813 48.9702C110.653 48.5831 110.587 48.1632 110.622 47.7456C110.665 47.2455 110.563 46.7436 110.328 46.2999C110.094 45.8562 109.736 45.4894 109.299 45.2434L109.165 45.1684C108.89 45.0129 108.646 44.8076 108.447 44.5629L125.753 5.25629Z" fill="black"/>
<path d="M147.464 38.235L129.917 1.34492L129.783 1.12524C129.587 0.783394 129.305 0.499281 128.964 0.301677C128.624 0.104073 128.237 0 127.843 0C127.449 0 127.062 0.104073 126.722 0.301677C126.381 0.499281 126.099 0.783394 125.903 1.12524L125.764 1.35028L108.222 38.235C108.036 38.5349 107.914 38.8692 107.861 39.2177C107.808 39.5662 107.826 39.9219 107.914 40.2632C108.002 40.6046 108.158 40.9246 108.373 41.204C108.588 41.4834 108.858 41.7165 109.165 41.8892L109.299 41.9642C109.737 42.2098 110.095 42.5765 110.329 43.0203C110.564 43.4641 110.666 43.9663 110.622 44.4664C110.587 44.884 110.652 45.3039 110.813 45.6908C110.974 46.0777 111.225 46.4203 111.546 46.6898C111.867 46.9592 112.248 47.1476 112.657 47.239C113.066 47.3304 113.491 47.3222 113.896 47.2151L114.909 46.9526C115.477 46.8019 116.08 46.8474 116.62 47.0817C117.159 47.316 117.604 47.7255 117.882 48.2439L119.275 50.8425C119.604 51.4465 120.156 51.8973 120.814 52.0978C121.471 52.2982 122.181 52.2323 122.79 51.9141L126.632 49.9049C127.006 49.7096 127.421 49.6076 127.843 49.6076C128.265 49.6076 128.68 49.7096 129.054 49.9049L132.896 51.9141C133.505 52.2323 134.215 52.2982 134.872 52.0978C135.53 51.8973 136.082 51.4465 136.41 50.8425L137.804 48.2439C138.082 47.7255 138.527 47.316 139.066 47.0817C139.606 46.8474 140.209 46.8019 140.777 46.9526L141.79 47.2151C142.195 47.3222 142.62 47.3304 143.029 47.239C143.438 47.1476 143.819 46.9592 144.14 46.6898C144.461 46.4203 144.712 46.0777 144.873 45.6908C145.034 45.3039 145.099 44.884 145.064 44.4664C145.02 43.9656 145.122 43.4628 145.358 43.0188C145.594 42.5748 145.953 42.2085 146.393 41.9642L146.521 41.8892C146.828 41.7165 147.098 41.4834 147.313 41.204C147.528 40.9246 147.684 40.6046 147.772 40.2632C147.86 39.9219 147.878 39.5662 147.825 39.2177C147.772 38.8692 147.649 38.5349 147.464 38.235Z" fill="#38A3A5"/>
<path opacity="0.1" d="M147.464 38.235L129.917 1.34492L129.783 1.12524C129.587 0.783394 129.305 0.499281 128.964 0.301677C128.624 0.104073 128.237 0 127.843 0C127.449 0 127.062 0.104073 126.722 0.301677C126.381 0.499281 126.099 0.783394 125.903 1.12524L125.764 1.35028L108.222 38.235C108.036 38.5349 107.914 38.8692 107.861 39.2177C107.808 39.5662 107.826 39.9219 107.914 40.2632C108.002 40.6046 108.158 40.9246 108.373 41.204C108.588 41.4834 108.858 41.7165 109.165 41.8892L109.299 41.9642C109.737 42.2098 110.095 42.5765 110.329 43.0203C110.564 43.4641 110.666 43.9663 110.622 44.4664C110.587 44.884 110.652 45.3039 110.813 45.6908C110.974 46.0777 111.225 46.4203 111.546 46.6898C111.867 46.9592 112.248 47.1476 112.657 47.239C113.066 47.3304 113.491 47.3222 113.896 47.2151L114.909 46.9526C115.477 46.8019 116.08 46.8474 116.62 47.0817C117.159 47.316 117.604 47.7255 117.882 48.2439L119.275 50.8425C119.604 51.4465 120.156 51.8973 120.814 52.0978C121.471 52.2982 122.181 52.2323 122.79 51.9141L126.632 49.9049C127.006 49.7096 127.421 49.6076 127.843 49.6076C128.265 49.6076 128.68 49.7096 129.054 49.9049L132.896 51.9141C133.505 52.2323 134.215 52.2982 134.872 52.0978C135.53 51.8973 136.082 51.4465 136.41 50.8425L137.804 48.2439C138.082 47.7255 138.527 47.316 139.066 47.0817C139.606 46.8474 140.209 46.8019 140.777 46.9526L141.79 47.2151C142.195 47.3222 142.62 47.3304 143.029 47.239C143.438 47.1476 143.819 46.9592 144.14 46.6898C144.461 46.4203 144.712 46.0777 144.873 45.6908C145.034 45.3039 145.099 44.884 145.064 44.4664C145.02 43.9656 145.122 43.4628 145.358 43.0188C145.594 42.5748 145.953 42.2085 146.393 41.9642L146.521 41.8892C146.828 41.7165 147.098 41.4834 147.313 41.204C147.528 40.9246 147.684 40.6046 147.772 40.2632C147.86 39.9219 147.878 39.5662 147.825 39.2177C147.772 38.8692 147.649 38.5349 147.464 38.235Z" fill="black"/>
<path d="M125.501 114.609C125.469 113.841 125.141 113.116 124.586 112.584C124.032 112.053 123.293 111.756 122.525 111.756C121.757 111.756 121.018 112.053 120.464 112.584C119.909 113.116 119.581 113.841 119.549 114.609V114.775C119.59 115.02 119.69 115.252 119.842 115.45C119.993 115.648 120.19 115.806 120.417 115.911C121.07 116.241 121.793 116.413 122.525 116.413C123.257 116.413 123.98 116.241 124.633 115.911C124.86 115.806 125.057 115.648 125.209 115.45C125.36 115.252 125.46 115.02 125.501 114.775C125.504 114.748 125.504 114.721 125.501 114.694C125.504 114.666 125.504 114.637 125.501 114.609Z" fill="#37474F"/>
<path d="M124.628 115.911C124.854 115.806 125.052 115.648 125.203 115.45C125.354 115.252 125.455 115.02 125.496 114.775C125.499 114.748 125.499 114.721 125.496 114.694C125.499 114.666 125.499 114.637 125.496 114.609C125.482 114.088 125.331 113.581 125.06 113.137C124.788 112.693 124.404 112.329 123.948 112.08C123.948 112.106 125.432 113.95 124.344 115.177C123.599 116.028 121.027 116.184 119.897 115.514C120.056 115.67 120.237 115.804 120.433 115.911C121.084 116.237 121.802 116.407 122.53 116.407C123.259 116.407 123.977 116.237 124.628 115.911Z" fill="#263238"/>
<path d="M120.69 116.109C120.663 115.569 120.429 115.061 120.038 114.689C119.646 114.317 119.127 114.109 118.587 114.109C118.047 114.109 117.527 114.317 117.136 114.689C116.745 115.061 116.511 115.569 116.484 116.109V116.227C116.513 116.4 116.583 116.563 116.69 116.702C116.796 116.841 116.935 116.952 117.095 117.025C117.556 117.26 118.066 117.383 118.584 117.383C119.102 117.383 119.612 117.26 120.074 117.025C120.234 116.953 120.374 116.842 120.482 116.703C120.589 116.564 120.661 116.4 120.69 116.227V116.109Z" fill="#455A64"/>
<path d="M120.074 117.052C120.234 116.98 120.374 116.869 120.482 116.73C120.589 116.59 120.661 116.427 120.69 116.253V116.136C120.681 115.897 120.632 115.662 120.545 115.439C120.599 116.339 120.17 116.886 118.841 117.046C117.513 117.207 116.645 116.65 116.532 116.446C116.643 116.705 116.842 116.916 117.095 117.041C117.555 117.278 118.065 117.402 118.583 117.404C119.101 117.406 119.612 117.285 120.074 117.052Z" fill="#37474F"/>
<path d="M136.11 114.003C136.11 113.45 135.891 112.92 135.5 112.529C135.109 112.138 134.579 111.919 134.026 111.919C133.473 111.919 132.943 112.138 132.552 112.529C132.161 112.92 131.942 113.45 131.942 114.003C131.935 114.042 131.935 114.082 131.942 114.121C131.971 114.292 132.041 114.454 132.147 114.592C132.252 114.73 132.39 114.841 132.547 114.914C133.005 115.146 133.51 115.268 134.023 115.268C134.536 115.268 135.042 115.146 135.5 114.914C135.658 114.842 135.797 114.731 135.903 114.593C136.01 114.455 136.081 114.293 136.11 114.121C136.117 114.082 136.117 114.042 136.11 114.003Z" fill="#455A64"/>
<path d="M135.5 114.909C135.658 114.836 135.797 114.726 135.903 114.588C136.01 114.45 136.081 114.288 136.11 114.116C136.118 114.077 136.118 114.037 136.11 113.998C136.106 113.761 136.059 113.527 135.971 113.307C136.025 114.201 135.601 114.743 134.283 114.914C132.965 115.085 132.103 114.528 131.985 114.325C132.094 114.574 132.282 114.781 132.521 114.914C132.982 115.15 133.493 115.273 134.011 115.272C134.529 115.271 135.039 115.146 135.5 114.909Z" fill="#37474F"/>
<path d="M234.656 157.95L177.051 124.676H177.019C175.514 123.83 173.451 123.958 171.168 125.276C166.566 127.929 162.836 134.385 162.836 139.7C162.836 142.353 163.769 144.217 165.269 145.091L222.568 178.134L223.307 176.901C224.146 176.712 224.952 176.398 225.697 175.969C230.294 173.317 234.023 166.86 234.023 161.545C234.022 160.823 233.936 160.104 233.766 159.402L234.656 157.95Z" fill="#9A4A4D"/>
<path d="M228.574 158.421C223.972 161.1 220.242 167.53 220.242 172.851C220.242 178.171 223.993 180.314 228.574 177.673C233.155 175.031 236.901 168.564 236.901 163.249C236.901 157.934 233.193 155.764 228.574 158.421Z" fill="#B16668"/>
<path d="M196.833 127.709C191.368 130.833 186.347 133.249 179.184 137.262C173.595 140.397 168.971 143.215 167.316 147.25C166.507 149.232 165.88 165.73 165.242 173.911C167.278 175.663 170.45 176.167 172.813 175.599C174.217 171.313 175.701 166.941 176.955 162.702C178.026 159.021 177.989 157.248 178.283 154.328C178.283 154.328 180.737 153.417 185.753 151.113C190.227 149.034 201.827 144.41 205.186 139.931C208.546 135.451 208.631 133.41 209.387 128.556C204.538 128.411 201.628 127.945 196.833 127.709Z" fill="#37474F"/>
<path d="M182.972 148.402C186.428 146.076 192.113 142.047 195.831 139.422C193.874 137.234 192.712 134.449 192.536 131.519C198.714 131.926 201.682 132.124 207.876 132.687C207.367 134.123 207.844 134.83 206.954 136.319C204.275 140.702 201.596 142.921 196.624 145.841C195.397 146.569 193.302 147.636 191.186 148.648C189.069 149.661 187.071 150.47 185.753 151.086C180.738 153.412 178.284 154.301 178.284 154.301C177.989 157.221 178.042 158.995 176.955 162.676C176.858 162.992 176.757 163.313 176.66 163.635C177.158 161.352 177.148 157.875 176.837 154.028C176.671 151.97 179.516 150.727 182.972 148.402Z" fill="#263238"/>
<path d="M220.119 133.019C220.253 139.24 219.187 144.56 213.839 148.557C209.055 152.12 198.071 157.162 195.574 159.707C195.268 162.976 194.738 165.194 193.329 169.148C191.979 172.931 190.527 177.373 188.651 181.316C186.312 181.982 183.807 181.729 181.648 180.609C182.227 172.218 181 157.569 183.406 153.069C185.951 148.316 193.002 144.898 198.473 139.55C194.454 137.53 192.9 133.849 192.268 130.254C202.679 130.742 209.687 132.376 220.119 133.019Z" fill="#37474F"/>
<path d="M190.285 189.262C190.386 189.383 190.458 189.524 190.498 189.676C190.538 189.828 190.544 189.987 190.516 190.141C190.553 190.358 190.535 190.581 190.464 190.79C190.393 190.999 190.271 191.186 190.109 191.336C189.498 191.964 188.77 192.464 187.965 192.809C186.88 193.298 185.903 193.999 185.093 194.872C184.126 196.043 182.896 196.97 181.504 197.578C179.564 198.232 177.479 198.331 175.486 197.862C173.756 197.412 172.234 196.79 171.2 195.826C170.771 195.419 170.911 194.079 171.002 193.024C177.914 192.397 183.727 191.802 190.285 189.262Z" fill="#263238"/>
<path d="M181.82 175.213C180.673 175.283 181.166 177.533 181.284 179.382C181.391 180.963 181.605 184.317 180.587 185.753C179.253 187.644 177.448 189.477 175.261 190.184C173.075 190.891 170.943 191.464 170.766 193.399C170.637 194.92 172.545 195.767 174.624 196.501C176.703 197.235 181.134 197.214 182.848 195.585C184.563 193.956 186.004 192.595 187.403 191.888C188.573 191.391 189.566 190.55 190.248 189.477C190.591 187.333 189.589 186.197 189.68 184.274C189.937 182.004 190.429 179.766 191.148 177.598C191.609 176.231 191.373 176.092 190.891 175.953C190.762 176.274 190.698 176.457 190.596 176.724C189.466 177.678 187.553 177.919 186.17 177.796C184.954 177.689 182.704 177.228 181.809 176.237C181.804 175.915 181.825 175.578 181.82 175.213Z" fill="#38A3A5"/>
<path opacity="0.5" d="M181.82 175.213C180.673 175.283 181.166 177.533 181.284 179.382C181.391 180.963 181.605 184.317 180.587 185.753C179.253 187.644 177.448 189.477 175.261 190.184C173.075 190.891 170.943 191.464 170.766 193.399C170.637 194.92 172.545 195.767 174.624 196.501C176.703 197.235 181.134 197.214 182.848 195.585C184.563 193.956 186.004 192.595 187.403 191.888C188.573 191.391 189.566 190.55 190.248 189.477C190.591 187.333 189.589 186.197 189.68 184.274C189.937 182.004 190.429 179.766 191.148 177.598C191.609 176.231 191.373 176.092 190.891 175.953C190.762 176.274 190.698 176.457 190.596 176.724C189.466 177.678 187.553 177.919 186.17 177.796C184.954 177.689 182.704 177.228 181.809 176.237C181.804 175.915 181.825 175.578 181.82 175.213Z" fill="black"/>
<path d="M174.083 183.234C174.181 183.357 174.253 183.499 174.293 183.652C174.332 183.804 174.339 183.963 174.313 184.119C174.35 184.336 174.332 184.56 174.26 184.769C174.188 184.978 174.064 185.165 173.901 185.313C173.289 185.94 172.561 186.44 171.757 186.787C170.672 187.274 169.696 187.974 168.885 188.844C167.917 190.016 166.687 190.944 165.295 191.555C163.355 192.208 161.271 192.304 159.278 191.834C157.542 191.384 156.021 190.762 154.992 189.798C154.563 189.391 154.697 188.057 154.794 187.001C161.706 186.369 167.519 185.774 174.083 183.234Z" fill="#263238"/>
<path d="M165.558 169.196C164.417 169.261 164.963 171.511 165.087 173.354C165.194 174.935 165.414 178.294 164.396 179.73C163.056 181.616 161.25 183.454 159.07 184.156C156.889 184.858 154.751 185.442 154.569 187.371C154.44 188.898 156.348 189.744 158.427 190.473C160.506 191.202 164.937 191.186 166.657 189.557C168.377 187.928 169.807 186.567 171.211 185.865C172.381 185.37 173.372 184.529 174.051 183.454C174.394 181.311 173.397 180.17 173.488 178.251C173.735 175.978 174.222 173.736 174.94 171.565C175.401 170.198 175.171 170.059 174.688 169.92C174.56 170.241 174.495 170.418 174.394 170.686C173.263 171.645 171.232 171.913 169.85 171.79C168.634 171.682 166.394 171.179 165.499 170.182L165.558 169.196Z" fill="#38A3A5"/>
<path opacity="0.5" d="M165.558 169.196C164.417 169.261 164.963 171.511 165.087 173.354C165.194 174.935 165.414 178.294 164.396 179.73C163.056 181.616 161.25 183.454 159.07 184.156C156.889 184.858 154.751 185.442 154.569 187.371C154.44 188.898 156.348 189.744 158.427 190.473C160.506 191.202 164.937 191.186 166.657 189.557C168.377 187.928 169.807 186.567 171.211 185.865C172.381 185.37 173.372 184.529 174.051 183.454C174.394 181.311 173.397 180.17 173.488 178.251C173.735 175.978 174.222 173.736 174.94 171.565C175.401 170.198 175.171 170.059 174.688 169.92C174.56 170.241 174.495 170.418 174.394 170.686C173.263 171.645 171.232 171.913 169.85 171.79C168.634 171.682 166.394 171.179 165.499 170.182L165.558 169.196Z" fill="black"/>
<path d="M198.837 96.193C196.228 96.0162 193.693 97.3397 190.955 103.271C188.351 108.908 185.737 114.55 185.737 114.55L166.673 116.516L172.85 122.785C172.85 122.785 190.344 123.932 192.075 123.519C193.806 123.106 200.112 109.117 200.112 109.117L198.837 96.193Z" fill="#37474F"/>
<path d="M208.546 96.0162C213.304 96.6002 214.257 96.7288 216.942 97.3289C218.78 99.9222 223.5 129.675 220.017 136.068C220.017 136.068 203.59 139.341 191.823 130.886L195.076 121.338L194.813 116.768C193.656 115.37 192.767 113.769 192.193 112.047C191.459 109.529 191.92 106.754 194.599 101.99C197.278 97.2271 198.837 96.1984 198.837 96.1984L201.248 96.1555L208.546 96.0162Z" fill="#455A64"/>
<path d="M157.467 113.607C157.482 113.697 157.478 113.789 157.457 113.878C157.436 113.966 157.397 114.05 157.343 114.124C157.29 114.197 157.222 114.26 157.144 114.307C157.066 114.355 156.979 114.386 156.889 114.4C156.799 114.413 156.707 114.409 156.618 114.387C156.53 114.366 156.447 114.327 156.373 114.273C156.3 114.219 156.238 114.151 156.191 114.073C156.143 113.995 156.112 113.908 156.098 113.818C156.085 113.728 156.089 113.636 156.111 113.548C156.132 113.459 156.171 113.376 156.225 113.303C156.279 113.229 156.347 113.167 156.425 113.12C156.503 113.073 156.59 113.042 156.68 113.028C156.861 113 157.046 113.046 157.193 113.154C157.341 113.263 157.44 113.425 157.467 113.607Z" fill="#263238"/>
<path d="M154.799 111.244C154.82 111.379 154.8 111.517 154.742 111.641C154.684 111.765 154.591 111.869 154.474 111.94C154.357 112.01 154.222 112.045 154.085 112.039C153.949 112.033 153.817 111.986 153.707 111.905C153.597 111.824 153.513 111.713 153.466 111.584C153.42 111.456 153.412 111.316 153.445 111.183C153.477 111.051 153.549 110.931 153.65 110.838C153.75 110.746 153.876 110.686 154.012 110.665C154.193 110.637 154.377 110.683 154.525 110.791C154.673 110.9 154.771 111.063 154.799 111.244Z" fill="#263238"/>
<path d="M152.029 108.115C152.05 108.25 152.03 108.388 151.972 108.511C151.914 108.635 151.821 108.738 151.704 108.809C151.588 108.88 151.453 108.915 151.316 108.909C151.18 108.903 151.048 108.857 150.938 108.777C150.828 108.696 150.744 108.585 150.697 108.457C150.65 108.329 150.642 108.19 150.674 108.057C150.705 107.924 150.776 107.804 150.876 107.711C150.976 107.619 151.101 107.558 151.236 107.536C151.418 107.508 151.603 107.553 151.752 107.662C151.9 107.77 152 107.933 152.029 108.115Z" fill="#263238"/>
<path d="M217.392 133.855C211.878 126.986 206.14 129.209 203.359 127.586C200.578 125.962 199.635 123.782 198.194 121.901C197.122 120.492 192.391 115.471 189.085 118.097C188.164 118.825 184.263 121.954 183.133 122.871C182.002 123.787 181.096 125.55 180.507 128.582C178.128 140.809 186.755 145.964 188.437 146.623C190.119 147.282 191.529 147.014 194.095 149.752C196.662 152.49 200.085 162.156 206.419 164.915C209.301 166.174 211.3 166.019 212.736 164.888C213.807 164.063 217.74 160.875 218.667 160.131C220.344 158.775 221.244 156.075 221.882 152.753C223.055 146.58 222.905 140.729 217.392 133.855Z" fill="#38A3A5"/>
<path opacity="0.2" d="M217.392 133.855C211.878 126.986 206.14 129.209 203.359 127.586C200.578 125.962 199.635 123.782 198.194 121.901C197.122 120.492 192.391 115.471 189.085 118.097C188.164 118.825 184.263 121.954 183.133 122.871C182.002 123.787 181.096 125.55 180.507 128.582C178.128 140.809 186.755 145.964 188.437 146.623C190.119 147.282 191.529 147.014 194.095 149.752C196.662 152.49 200.085 162.156 206.419 164.915C209.301 166.174 211.3 166.019 212.736 164.888C213.807 164.063 217.74 160.875 218.667 160.131C220.344 158.775 221.244 156.075 221.882 152.753C223.055 146.58 222.905 140.729 217.392 133.855Z" fill="black"/>
<path d="M206.381 164.915C209.264 166.174 211.262 166.019 212.698 164.888C213.77 164.063 217.703 160.875 218.63 160.131C220.307 158.775 221.207 156.075 221.844 152.753C222.712 148.3 222.862 144.008 220.81 139.384L198.692 157.125C200.712 160.297 203.155 163.506 206.381 164.915Z" fill="#38A3A5"/>
<path opacity="0.3" d="M206.381 164.915C209.264 166.174 211.262 166.019 212.698 164.888C213.77 164.063 217.703 160.875 218.63 160.131C220.307 158.775 221.207 156.075 221.844 152.753C222.712 148.3 222.862 144.008 220.81 139.384L198.692 157.125C200.712 160.297 203.155 163.506 206.381 164.915Z" fill="black"/>
<path opacity="0.15" d="M204.366 163.742C204.992 164.207 205.668 164.601 206.381 164.915C209.264 166.174 211.262 166.019 212.698 164.888C213.77 164.063 217.703 160.875 218.63 160.131C220.307 158.775 221.207 156.075 221.844 152.753C222.071 151.615 222.239 150.467 222.348 149.313L204.366 163.742Z" fill="black"/>
<path d="M215.972 157.468C214.772 163.635 212.693 167.675 206.381 164.915C200.069 162.156 196.651 152.49 194.058 149.752C191.464 147.014 190.077 147.287 188.399 146.623C186.722 145.959 178.091 140.809 180.47 128.582C182.849 116.355 190.848 124.735 192.289 126.616C193.731 128.497 194.668 130.677 197.455 132.301C200.241 133.924 205.974 131.701 211.487 138.575C217.001 145.45 217.172 151.3 215.972 157.468Z" fill="#38A3A5"/>
<path opacity="0.35" d="M215.972 157.468C214.772 163.635 212.693 167.675 206.381 164.915C200.069 162.156 196.651 152.49 194.058 149.752C191.464 147.014 190.077 147.287 188.399 146.623C186.722 145.959 178.091 140.809 180.47 128.582C182.849 116.355 190.848 124.735 192.289 126.616C193.731 128.497 194.668 130.677 197.455 132.301C200.241 133.924 205.974 131.701 211.487 138.575C217.001 145.45 217.172 151.3 215.972 157.468Z" fill="black"/>
<path d="M205.535 153.647L207.11 145.535C207.394 144.083 207.078 142.465 206.408 141.913C205.738 141.361 204.956 142.101 204.677 143.553L203.097 151.665C202.813 153.117 203.129 154.74 203.804 155.287C204.479 155.833 205.229 155.094 205.535 153.647Z" fill="#37474F"/>
<path d="M159.868 113.103L160.645 109.117L191.186 133.394L190.2 138.457L159.868 113.103Z" fill="#38A3A5"/>
<path opacity="0.35" d="M159.868 113.103L160.645 109.117L191.186 133.394L190.2 138.457L159.868 113.103Z" fill="white"/>
<path d="M159.284 113.585L160.061 109.604L190.602 133.881L189.616 138.945L159.284 113.585Z" fill="#38A3A5"/>
<path d="M190.741 141.345C192.857 143.071 194.904 142.754 195.317 140.649C195.729 138.543 194.341 135.441 192.225 133.715C190.109 131.99 188.067 132.306 187.655 134.412C187.242 136.518 188.63 139.625 190.741 141.345Z" fill="#263238"/>
<path d="M160.8 107.697C160.088 106.089 151.777 101.369 150.856 100.849C150.762 100.774 150.649 100.727 150.53 100.712C150.411 100.696 150.29 100.714 150.181 100.763C150.068 100.838 149.586 101.176 149.457 101.299C149.099 101.712 148.868 102.22 148.793 102.762C148.707 103.196 148.445 104.857 149.286 105.768C150.127 106.679 157.757 114.925 158.807 114.764C159.396 114.673 160.189 114.378 161.068 115.096L161.207 114.368L161.856 111.056L162.552 110.66C161.668 109.915 161.197 108.586 160.8 107.697Z" fill="#455A64"/>
<path d="M161.856 111.029C160.972 110.311 160.5 108.988 160.104 108.099C159.391 106.491 151.081 101.765 150.159 101.246C149.238 100.726 148.879 102.317 148.793 102.735C148.707 103.153 148.445 104.83 149.286 105.741C150.127 106.652 157.757 114.898 158.807 114.737C159.396 114.646 160.189 114.351 161.068 115.069L161.856 111.029Z" fill="#37474F"/>
<path d="M159.889 105.945C159.91 106.08 159.89 106.218 159.832 106.342C159.774 106.466 159.681 106.57 159.564 106.64C159.447 106.711 159.312 106.746 159.175 106.74C159.039 106.734 158.907 106.687 158.797 106.606C158.687 106.525 158.603 106.414 158.556 106.285C158.51 106.156 158.502 106.017 158.535 105.884C158.568 105.752 158.639 105.631 158.74 105.539C158.841 105.447 158.967 105.387 159.102 105.366C159.283 105.338 159.468 105.384 159.615 105.492C159.763 105.601 159.862 105.763 159.889 105.945Z" fill="#263238"/>
<path d="M156.921 103.86C156.942 103.996 156.922 104.134 156.864 104.258C156.806 104.381 156.713 104.485 156.596 104.556C156.479 104.627 156.344 104.662 156.207 104.655C156.07 104.649 155.939 104.603 155.828 104.522C155.718 104.441 155.635 104.329 155.588 104.201C155.541 104.072 155.534 103.933 155.566 103.8C155.599 103.667 155.67 103.547 155.771 103.455C155.872 103.363 155.998 103.302 156.133 103.282C156.314 103.254 156.499 103.299 156.647 103.408C156.795 103.516 156.893 103.679 156.921 103.86Z" fill="#263238"/>
<path d="M153.77 101.964C153.791 102.099 153.771 102.236 153.713 102.36C153.655 102.484 153.562 102.587 153.446 102.658C153.329 102.729 153.194 102.764 153.058 102.758C152.921 102.752 152.79 102.706 152.68 102.626C152.569 102.545 152.485 102.434 152.438 102.306C152.391 102.178 152.383 102.039 152.415 101.906C152.447 101.773 152.517 101.653 152.617 101.56C152.717 101.468 152.843 101.407 152.977 101.385C153.068 101.37 153.16 101.373 153.249 101.394C153.338 101.415 153.422 101.453 153.496 101.507C153.57 101.561 153.632 101.629 153.679 101.708C153.726 101.786 153.757 101.873 153.77 101.964Z" fill="#263238"/>
<path d="M203.311 92.8764L205.486 92.5442C208.479 92.0882 211.169 90.4636 212.966 88.0268C214.763 85.5899 215.521 82.5399 215.072 79.5456C214.824 77.9186 214.259 76.3563 213.408 74.9479C212.557 73.5395 211.436 72.3126 210.111 71.3374C208.785 70.3621 207.28 69.6576 205.682 69.2641C204.085 68.8705 202.425 68.7957 200.798 69.0438C197.515 69.5421 194.565 71.3231 192.595 73.9955C190.625 76.6679 189.796 80.0132 190.291 83.2962C190.749 86.2921 192.378 88.9836 194.819 90.7798C197.26 92.576 200.314 93.3301 203.311 92.8764Z" fill="#263238"/>
<path d="M214.643 71.7818C213.277 74.2893 210.893 73.5499 208.214 72.1032C205.535 70.6566 203.627 69.0438 204.999 66.5362C206.37 64.0287 209.628 63.166 212.291 64.6181C214.954 66.0701 216.01 69.2742 214.643 71.7818Z" fill="#263238"/>
<path d="M204.951 69.0438C204.768 69.142 204.569 69.2033 204.363 69.2242C204.157 69.2452 203.949 69.2253 203.75 69.1659C203.552 69.1064 203.367 69.0085 203.207 68.8777C203.047 68.7469 202.914 68.5858 202.815 68.4035C202.717 68.2213 202.656 68.0215 202.635 67.8156C202.614 67.6097 202.634 67.4016 202.693 67.2033C202.753 67.0051 202.851 66.8204 202.982 66.66C203.112 66.4996 203.273 66.3665 203.456 66.2684L204.951 69.0438Z" fill="#263238"/>
<path d="M211.252 83.039C210.919 82.7975 210.534 82.6386 210.128 82.5755C209.721 82.5124 209.306 82.547 208.916 82.6763C208.526 82.8057 208.172 83.0261 207.884 83.3193C207.596 83.6125 207.382 83.9701 207.26 84.3625C207.26 84.3625 204.415 84.8179 200.348 83.2051C198.768 82.5912 197.355 81.6133 196.224 80.3509C195.093 79.0885 194.275 77.5772 193.838 75.9396C192.622 76.8826 191.411 80.3868 192.429 87.2987C193.297 93.155 195.381 94.3659 196.388 94.666C197.396 94.966 199.207 94.4838 200.964 93.9587L201.377 96.9056C201.95 98.7756 208.455 99.3114 209.81 96.1662L208.867 88.5364C208.867 88.5364 210.41 89.4205 211.546 87.6791C212.618 86.0235 212.543 84.0624 211.252 83.039Z" fill="#FFA8A7"/>
<path d="M198.033 84.8018C198.049 84.947 198.108 85.0843 198.201 85.1965C198.295 85.3087 198.42 85.3909 198.56 85.4328C198.699 85.4748 198.849 85.4747 198.989 85.4325C199.128 85.3903 199.253 85.3079 199.346 85.1955C199.44 85.0832 199.498 84.9458 199.514 84.8006C199.53 84.6553 199.503 84.5086 199.436 84.3787C199.369 84.2488 199.265 84.1414 199.138 84.0699C199.01 83.9984 198.865 83.966 198.719 83.9767C198.62 83.9854 198.523 84.0137 198.435 84.06C198.346 84.1063 198.268 84.1697 198.204 84.2464C198.14 84.3231 198.093 84.4117 198.063 84.507C198.034 84.6023 198.024 84.7025 198.033 84.8018Z" fill="#263238"/>
<path d="M199.223 90.0098L197.578 90.7975C197.623 90.9079 197.691 91.008 197.775 91.0921C197.86 91.1761 197.961 91.2423 198.072 91.2867C198.183 91.3312 198.302 91.353 198.421 91.3508C198.54 91.3487 198.658 91.3227 198.767 91.2743C198.995 91.1664 199.17 90.9728 199.256 90.7359C199.341 90.4991 199.329 90.238 199.223 90.0098Z" fill="#F28F8F"/>
<path d="M192.413 83.1408L193.779 81.9192C193.703 81.8264 193.61 81.7498 193.504 81.6942C193.398 81.6385 193.282 81.6049 193.163 81.5954C193.044 81.5859 192.924 81.6006 192.811 81.6388C192.697 81.677 192.593 81.7377 192.504 81.8174C192.322 81.9845 192.211 82.2148 192.194 82.461C192.177 82.7071 192.256 82.9505 192.413 83.1408Z" fill="#263238"/>
<path d="M192.627 84.8393C192.643 84.9845 192.702 85.1218 192.795 85.234C192.889 85.3462 193.013 85.4284 193.153 85.4704C193.293 85.5123 193.442 85.5122 193.582 85.47C193.722 85.4278 193.847 85.3454 193.94 85.233C194.033 85.1207 194.092 84.9833 194.108 84.8381C194.123 84.6929 194.096 84.5461 194.029 84.4162C193.963 84.2863 193.859 84.1789 193.732 84.1074C193.604 84.036 193.459 84.0035 193.313 84.0142C193.113 84.0332 192.928 84.1307 192.8 84.2853C192.671 84.4399 192.609 84.6391 192.627 84.8393Z" fill="#263238"/>
<path d="M195.997 84.2446L196.64 89.0507L194.207 88.6167L195.997 84.2446Z" fill="#F28F8F"/>
<path d="M200.964 93.9587C202.818 93.4765 206.563 91.8798 206.981 90.267C206.839 91.0803 206.448 91.8292 205.861 92.4102C204.827 93.5515 201.13 95.1536 201.13 95.1536L200.964 93.9587Z" fill="#F28F8F"/>
<path d="M203.927 132.408C201.682 133.774 199.174 133.635 196.962 134.015C194.749 134.396 194.77 135.216 195.761 135.928C196.753 136.641 198.708 136.705 198.708 136.705C196.944 137.912 195.049 138.916 193.061 139.7C189.793 140.986 191.062 142.535 193.64 143.949C196.217 145.364 198.708 144.592 202.132 142.76C204.17 141.636 206.005 140.178 207.56 138.447L203.927 132.408Z" fill="#FFA8A7"/>
<path d="M215.399 97.2271C220.708 97.2271 221.785 100.169 223.286 102.767C224.786 105.366 227.406 117.652 228.194 120.985C228.981 124.317 228.456 125.855 226.281 127.114C224.304 128.256 207.56 138.902 207.56 138.902C206.36 138.368 205.384 137.432 204.8 136.255C204.215 135.108 203.852 133.861 203.729 132.58L218.812 121.36C218.812 121.36 214.188 109.465 213.989 108.929C213.572 107.82 210.989 102.585 215.399 97.2271Z" fill="#37474F"/>
<path d="M164.16 122.367C162.322 121.22 161.245 120.01 160.945 117.738C160.613 115.225 160.875 113.451 161.872 113.071C162.868 112.69 164.074 113.36 165.183 114.207C166.448 115.171 166.667 116.484 166.839 118.043C166.912 118.96 167.214 119.845 167.718 120.615L170.932 123.321C170.932 123.321 167.787 124.634 164.16 122.367Z" fill="#FFA8A7"/>
<path opacity="0.3" d="M199.549 115.316C199.549 115.316 201.248 118.209 205.684 117.738C209.864 117.298 211.166 115.241 211.718 113.875C211.718 113.875 211.718 118.322 206.065 119.056C200.787 119.731 199.549 115.316 199.549 115.316Z" fill="#263238"/>
<path d="M25.0329 156.878L82.6319 123.605H82.664C84.1696 122.758 86.2378 122.887 88.5204 124.205C93.1176 126.857 96.8468 133.314 96.8468 138.629C96.8468 141.281 95.9198 143.146 94.4142 144.019L37.1153 177.062L36.3812 175.83C35.5436 175.647 34.7381 175.34 33.9916 174.919C29.389 172.266 25.6598 165.81 25.6598 160.495C25.6602 159.772 25.7484 159.053 25.9223 158.352L25.0329 156.878Z" fill="#9A4A4D"/>
<path d="M31.0928 157.35C35.69 160.029 39.4192 166.458 39.4192 171.779C39.4192 177.099 35.6686 179.243 31.0928 176.601C26.5171 173.96 22.7611 167.492 22.7611 162.177C22.7611 156.862 26.4903 154.692 31.0928 157.35Z" fill="#B16668"/>
<path d="M63.6643 96.6484C68.1276 96.7556 70.8173 98.7166 71.905 102.301C72.9927 105.886 70.6512 122.271 70.8334 123.894C71.0155 125.518 75.9717 129.697 75.9717 129.697L71.1924 133.539L64.3823 129.322L63.6643 96.6484Z" fill="#38A3A5"/>
<path opacity="0.4" d="M63.6643 96.6484C68.1276 96.7556 70.8173 98.7166 71.905 102.301C72.9927 105.886 70.6512 122.271 70.8334 123.894C71.0155 125.518 75.9717 129.697 75.9717 129.697L71.1924 133.539L64.3823 129.322L63.6643 96.6484Z" fill="black"/>
<path d="M62.0996 127.655C67.7577 130.415 73.3515 132.381 78.5435 136.11C83.7354 139.84 89.131 141.377 91.0438 145.289C91.9868 147.218 93.7228 163.635 94.8694 171.757C92.9512 173.644 89.8168 174.356 87.4271 173.944C85.7393 169.727 83.9765 165.494 82.4441 161.347C81.1153 157.746 81.051 155.989 80.5634 153.079C80.5634 153.079 78.0559 152.329 72.9014 150.336C68.3042 148.557 56.4308 144.71 52.7713 140.456C49.1117 136.202 48.9081 134.198 47.8365 129.375C52.6641 128.941 57.331 128.207 62.0996 127.655Z" fill="#37474F"/>
<path d="M75.5002 147.469C71.8943 145.38 66.772 142.036 62.9142 139.663C65.1324 136.807 67.0988 134.128 67.9561 130.554C61.8158 131.369 55.7612 132.462 49.6155 133.431C50.221 134.83 49.787 135.575 50.7729 137C53.7198 141.201 56.5756 143.231 61.7033 145.819C62.9785 146.468 65.1378 147.389 67.3239 148.262C69.51 149.136 71.546 149.811 72.9016 150.336C78.056 152.329 80.5636 153.079 80.5636 153.079C81.0512 155.973 81.0994 157.746 82.4443 161.347C82.5568 161.658 82.68 161.968 82.7979 162.284C82.1549 160.039 81.9299 156.567 81.9888 152.71C82.021 150.615 79.0848 149.564 75.5002 147.469Z" fill="#263238"/>
<path d="M37.4206 134.562C37.6938 140.783 39.1137 146.017 44.7075 149.639C49.7173 152.854 61.0067 157.184 63.6643 159.557C64.2001 162.799 64.8645 164.98 66.5255 168.832C68.1329 172.524 69.8635 176.869 71.996 180.668C74.5679 181.091 76.6254 180.85 78.9347 179.5C77.8041 171.168 78.0667 156.46 75.3662 152.136C72.5158 147.561 65.261 144.635 59.4475 139.641C63.2142 137.468 66.3141 134.305 68.4115 130.495C58.0544 131.69 47.7884 133.239 37.4206 134.562Z" fill="#37474F"/>
<path d="M70.887 188.726C70.7952 188.853 70.7323 188.998 70.7026 189.152C70.673 189.306 70.6774 189.464 70.7155 189.616C70.6917 189.836 70.724 190.058 70.8092 190.263C70.8945 190.467 71.0299 190.646 71.2031 190.784C71.8502 191.365 72.6034 191.816 73.4213 192.113C74.5365 192.53 75.5581 193.163 76.4272 193.977C77.4656 195.084 78.7506 195.931 80.1778 196.447C82.155 196.97 84.2386 196.931 86.1949 196.335C87.8987 195.767 89.3776 195.054 90.342 194.02C90.7439 193.586 90.5188 192.263 90.342 191.213C83.4408 191.036 77.6006 190.827 70.887 188.726Z" fill="#263238"/>
<path d="M78.4097 174.153C79.5563 174.153 79.2134 176.424 79.208 178.273C79.208 179.88 79.208 183.218 80.3225 184.585C81.7799 186.385 83.7034 188.094 85.927 188.657C88.1506 189.219 90.3206 189.653 90.626 191.566C90.8564 193.083 89.0186 194.052 86.9825 194.915C84.9465 195.778 80.5529 196.056 78.7151 194.545C76.8773 193.034 75.3663 191.764 73.925 191.159C72.7253 190.739 71.681 189.966 70.9298 188.941C70.4476 186.798 71.3692 185.619 71.1495 183.706C70.7501 181.455 70.118 179.252 69.2635 177.132C68.7277 175.803 68.9367 175.642 69.4082 175.476L69.7511 176.221C70.9406 177.099 72.8695 177.217 74.2411 177.003C75.4467 176.821 77.6649 176.215 78.49 175.165C78.474 174.849 78.4311 174.512 78.4097 174.153Z" fill="#38A3A5"/>
<path opacity="0.5" d="M78.4097 174.153C79.5563 174.153 79.2134 176.424 79.208 178.273C79.208 179.88 79.208 183.218 80.3225 184.585C81.7799 186.385 83.7034 188.094 85.927 188.657C88.1506 189.219 90.3206 189.653 90.626 191.566C90.8564 193.083 89.0186 194.052 86.9825 194.915C84.9465 195.778 80.5529 196.056 78.7151 194.545C76.8773 193.034 75.3663 191.764 73.925 191.159C72.7253 190.739 71.681 189.966 70.9298 188.941C70.4476 186.798 71.3692 185.619 71.1495 183.706C70.7501 181.455 70.118 179.252 69.2635 177.132C68.7277 175.803 68.9367 175.642 69.4082 175.476L69.7511 176.221C70.9406 177.099 72.8695 177.217 74.2411 177.003C75.4467 176.821 77.6649 176.215 78.49 175.165C78.474 174.849 78.4311 174.512 78.4097 174.153Z" fill="black"/>
<path d="M86.6557 181.648C86.5664 181.776 86.5054 181.922 86.4768 182.075C86.4482 182.229 86.4525 182.386 86.4896 182.538C86.4658 182.758 86.4981 182.98 86.5833 183.185C86.6686 183.389 86.804 183.568 86.9772 183.706C87.623 184.29 88.3764 184.743 89.1954 185.04C90.312 185.454 91.3342 186.088 92.2013 186.905C93.2422 188.007 94.5266 188.851 95.9519 189.369C97.9308 189.892 100.016 189.853 101.974 189.257C103.673 188.694 105.152 187.976 106.116 186.942C106.518 186.508 106.293 185.185 106.116 184.135C99.2149 183.963 93.3747 183.749 86.6557 181.648Z" fill="#263238"/>
<path d="M94.2372 167.075C95.3838 167.075 94.9873 169.346 94.982 171.195C94.982 172.802 94.982 176.14 96.0911 177.512C97.5539 179.307 99.4774 181.022 101.701 181.579C103.925 182.136 106.095 182.575 106.4 184.494C106.63 186.005 104.793 186.974 102.757 187.842C100.72 188.71 96.3269 188.978 94.4837 187.467C92.6405 185.956 91.1403 184.692 89.699 184.081C88.4985 183.663 87.4537 182.889 86.7038 181.863C86.2162 179.72 87.1432 178.541 86.9235 176.633C86.5256 174.38 85.8917 172.174 85.0321 170.054C84.4963 168.725 84.7106 168.564 85.1821 168.398L85.525 169.143C86.7145 170.027 88.7399 170.161 90.133 169.946C91.3332 169.759 93.5407 169.111 94.3658 168.06L94.2372 167.075Z" fill="#38A3A5"/>
<path opacity="0.5" d="M94.2372 167.075C95.3838 167.075 94.9873 169.346 94.982 171.195C94.982 172.802 94.982 176.14 96.0911 177.512C97.5539 179.307 99.4774 181.022 101.701 181.579C103.925 182.136 106.095 182.575 106.4 184.494C106.63 186.005 104.793 186.974 102.757 187.842C100.72 188.71 96.3269 188.978 94.4837 187.467C92.6405 185.956 91.1403 184.692 89.699 184.081C88.4985 183.663 87.4537 182.889 86.7038 181.863C86.2162 179.72 87.1432 178.541 86.9235 176.633C86.5256 174.38 85.8917 172.174 85.0321 170.054C84.4963 168.725 84.7106 168.564 85.1821 168.398L85.525 169.143C86.7145 170.027 88.7399 170.161 90.133 169.946C91.3332 169.759 93.5407 169.111 94.3658 168.06L94.2372 167.075Z" fill="black"/>
<path d="M54.7807 96.1876C51.4667 96.1749 48.1628 96.5544 44.938 97.3182C42.9609 97.9129 42.334 100.045 41.0534 102.617C39.8479 105.039 37.9993 110.349 37.4367 119.35C36.9545 127.002 36.8474 136.566 36.8474 136.566C40.598 140.665 63.1661 136.748 67.8008 130.956C67.8008 130.956 67.5757 129.702 67.4311 127.918C67.1792 124.939 66.8363 123.24 67.4311 120.224C68.3902 115.337 69.3064 110.37 69.4511 107.756C69.7993 101.396 68.3151 97.0396 62.9839 96.5574L54.7807 96.1876Z" fill="#38A3A5"/>
<path opacity="0.3" d="M54.7807 96.1876C51.4667 96.1749 48.1628 96.5544 44.938 97.3182C42.9609 97.9129 42.334 100.045 41.0534 102.617C39.8479 105.039 37.9993 110.349 37.4367 119.35C36.9545 127.002 36.8474 136.566 36.8474 136.566C40.598 140.665 63.1661 136.748 67.8008 130.956C67.8008 130.956 67.5757 129.702 67.4311 127.918C67.1792 124.939 66.8363 123.24 67.4311 120.224C68.3902 115.337 69.3064 110.37 69.4511 107.756C69.7993 101.396 68.3151 97.0396 62.9839 96.5574L54.7807 96.1876Z" fill="black"/>
<path d="M70.8098 79.5544C71.1872 75.301 68.2959 71.5694 64.352 71.2195C60.4082 70.8696 56.9051 74.0339 56.5278 78.2873C56.1504 82.5407 59.0416 86.2724 62.9855 86.6223C66.9294 86.9722 70.4324 83.8078 70.8098 79.5544Z" fill="#263238"/>
<path d="M49.0315 82.4228C48.6832 78.4257 48.6993 76.6362 49.7441 75.736C50.0768 75.4545 50.4692 75.2523 50.8915 75.1447C51.3138 75.037 51.7551 75.0267 52.182 75.1145V82.2675L52.7178 87.438L52.4178 91.9012C52.0089 91.8526 51.6228 91.6873 51.3054 91.4251C50.988 91.1628 50.7529 90.8147 50.6282 90.4224C50.1727 89.2758 49.4333 84.834 49.1547 83.114H49.1065C49.0851 82.8854 49.0636 82.6604 49.0422 82.4389L49.0315 82.4228Z" fill="#263238"/>
<path d="M52.8892 83.832C52.4016 84.0677 51.8176 83.114 51.2818 82.4657C50.746 81.8174 48.9617 80.8261 47.8526 82.7122C46.7435 84.5982 48.2652 87.4433 49.6958 88.0381C52.1659 89.0614 52.6909 87.4647 52.6909 87.4647L52.0748 96.6484C52.0748 96.6484 52.6106 101.615 60.2244 104.273C62.6248 102.162 61.9014 97.1146 60.4065 96.6056L60.5994 94.3498C61.7167 94.6306 62.861 94.7905 64.0125 94.8267C65.9039 94.7035 67.2273 93.3318 67.956 91.36C69.1562 88.1934 69.9546 85.5412 69.6384 79.4813C69.2794 72.5158 61.1674 71.2674 56.5219 73.6464C51.8765 76.0253 52.8892 83.832 52.8892 83.832Z" fill="#FFA8A7"/>
<path d="M60.4227 96.5788C60.4227 96.5788 60.4227 97.6504 58.1884 97.929C55.9541 98.2076 53.0768 97.6825 52.091 96.6217C52.091 96.6217 51.6784 99.3864 54.5289 101.519C56.2312 102.801 58.1734 103.728 60.2405 104.246C61.2727 103.284 61.9471 101.999 62.1534 100.603C62.357 98.4702 60.4227 96.5788 60.4227 96.5788Z" fill="#37474F"/>
<path d="M52.8304 84.5875C52.6 84.5875 51.8392 83.0176 51.3087 82.4443C50.5693 81.6406 52.1928 75.1198 52.1928 75.1198C52.1928 75.1198 51.6034 72.5426 53.3341 71.0209C55.204 69.376 58.2581 70.035 60.487 70.2172C63.375 70.4476 66.1773 70.753 68.8885 69.451C69.0511 69.342 69.2349 69.2684 69.4278 69.2352C69.6208 69.202 69.8186 69.2098 70.0083 69.2581C71.246 69.8314 69.81 72.1408 69.5314 72.8587C70.0759 72.8281 70.6002 72.6421 71.0424 72.3229C71.3853 72.1086 71.8407 71.7871 71.8997 72.4354C72.114 74.9644 70.2923 77.0112 67.9454 77.7078C66.338 78.1953 64.5752 77.9971 62.9089 77.7078C61.7623 77.4988 60.6264 77.172 59.4797 77.0112C58.5206 76.8723 57.5692 76.6845 56.6293 76.4486C55.772 76.2557 55.5148 77.0755 54.845 79.3205C54.2503 81.2709 53.6073 84.6411 52.8304 84.5875Z" fill="#263238"/>
<path d="M52.1393 75.6342L49.4602 73.8714C49.5649 73.6881 49.7058 73.5279 49.8744 73.4008C50.0429 73.2738 50.2356 73.1823 50.4407 73.1322C50.6458 73.0821 50.8589 73.0742 51.0671 73.1092C51.2753 73.1442 51.4742 73.2212 51.6517 73.3356C52.0157 73.5803 52.2701 73.9571 52.3612 74.3861C52.4522 74.8152 52.3726 75.2628 52.1393 75.6342Z" fill="#263238"/>
<path d="M60.6155 94.3231C60.6155 94.3231 57.2078 93.1336 55.7933 92.2281C54.9737 91.7053 54.3312 90.947 53.9501 90.0527C54.0958 90.9251 54.4146 91.7594 54.8878 92.5067C55.8362 93.9641 60.4923 95.4322 60.4923 95.4322L60.6155 94.3231Z" fill="#F28F8F"/>
<path d="M61.1996 83.8695C61.1676 84.1104 61.0412 84.3287 60.8483 84.4764C60.6554 84.6241 60.4117 84.6891 60.1708 84.6571C59.9847 84.6367 59.8089 84.561 59.6662 84.4398C59.5235 84.3186 59.4203 84.1574 59.37 83.977C59.3196 83.7967 59.3245 83.6054 59.3838 83.4278C59.4432 83.2502 59.5544 83.0944 59.7031 82.9806C59.8518 82.8667 60.0312 82.8 60.2181 82.789C60.405 82.778 60.591 82.8233 60.752 82.9189C60.913 83.0146 61.0417 83.1562 61.1214 83.3256C61.2012 83.4951 61.2284 83.6845 61.1996 83.8695Z" fill="#263238"/>
<path d="M59.6726 80.6547L57.8723 81.6298C57.7452 81.383 57.7189 81.0965 57.7988 80.8307C57.8788 80.5648 58.0588 80.3404 58.3009 80.2046C58.4199 80.1407 58.5505 80.1017 58.685 80.0898C58.8195 80.078 58.955 80.0936 59.0832 80.1356C59.2115 80.1777 59.3299 80.2454 59.4312 80.3347C59.5325 80.4239 59.6146 80.5328 59.6726 80.6547Z" fill="#263238"/>
<path d="M60.5352 89.3133L62.6409 90.4921C62.5696 90.6318 62.4713 90.756 62.3516 90.8574C62.2319 90.9588 62.0932 91.0354 61.9437 91.0827C61.7941 91.1301 61.6366 91.1473 61.4804 91.1332C61.3241 91.1192 61.1722 91.0743 61.0335 91.0011C60.7465 90.8405 60.5337 90.5741 60.4406 90.2587C60.3474 89.9433 60.3814 89.604 60.5352 89.3133Z" fill="#F28F8F"/>
<path d="M68.3687 81.9192L66.5524 80.9279C66.6107 80.8064 66.6932 80.698 66.7949 80.6095C66.8965 80.5209 67.0152 80.4541 67.1436 80.4129C67.272 80.3718 67.4074 80.3573 67.5416 80.3703C67.6758 80.3833 67.8059 80.4236 67.924 80.4886C68.1703 80.6217 68.3548 80.8459 68.4379 81.1133C68.521 81.3806 68.4962 81.6699 68.3687 81.9192Z" fill="#263238"/>
<path d="M67.7846 84.2714C67.7524 84.4317 67.6739 84.5791 67.5588 84.6952C67.4437 84.8114 67.2971 84.8912 67.137 84.9249C66.977 84.9585 66.8106 84.9445 66.6585 84.8845C66.5064 84.8245 66.3752 84.7212 66.2812 84.5875C66.1872 84.4537 66.1345 84.2952 66.1296 84.1318C66.1247 83.9683 66.1679 83.807 66.2538 83.6679C66.3397 83.5287 66.4645 83.4178 66.6127 83.3489C66.761 83.28 66.9263 83.2561 67.088 83.2801C67.1991 83.2989 67.3054 83.3395 67.4007 83.3996C67.496 83.4597 67.5784 83.5382 67.6432 83.6303C67.708 83.7225 67.7538 83.8267 67.7781 83.9367C67.8024 84.0467 67.8046 84.1605 67.7846 84.2714Z" fill="#263238"/>
<path d="M63.4982 83.2694L63.0159 88.3006L65.7593 87.8077L63.4982 83.2694Z" fill="#F28F8F"/>
<path d="M60.2405 104.246C57.4909 102.816 55.1564 100.701 53.4626 98.1058C52.862 96.9271 52.4498 95.6615 52.241 94.3552C51.0783 94.2856 47.7992 94.5106 46.1542 95.5179C45.8263 95.6984 45.5455 95.9535 45.3342 96.2625C45.1229 96.5714 44.9872 96.9257 44.938 97.2968L47.3062 97.0717C48.249 97.2999 49.1189 97.7625 49.8352 98.4166C50.5371 99.1453 51.6516 101.096 54.7592 102.842C56.4382 103.766 58.3241 104.249 60.2405 104.246Z" fill="#38A3A5"/>
<path opacity="0.4" d="M60.2405 104.246C57.4909 102.816 55.1564 100.701 53.4626 98.1058C52.862 96.9271 52.4498 95.6615 52.241 94.3552C51.0783 94.2856 47.7992 94.5106 46.1542 95.5179C45.8263 95.6984 45.5455 95.9535 45.3342 96.2625C45.1229 96.5714 44.9872 96.9257 44.938 97.2968L47.3062 97.0717C48.249 97.2999 49.1189 97.7625 49.8352 98.4166C50.5371 99.1453 51.6516 101.096 54.7592 102.842C56.4382 103.766 58.3241 104.249 60.2405 104.246Z" fill="black"/>
<path d="M60.2406 104.246C61.5452 103.517 62.5169 102.311 62.9517 100.881C63.3649 99.4503 63.2857 97.9219 62.7267 96.5413C62.5221 96.1171 62.2222 95.7459 61.8504 95.4569C61.4786 95.1678 61.045 94.9686 60.5835 94.8749L60.4334 96.5788C60.8777 97.2561 61.155 98.0292 61.2425 98.8345C61.3604 100.051 61.5586 102.403 60.2406 104.246Z" fill="#38A3A5"/>
<path opacity="0.4" d="M60.2406 104.246C61.5452 103.517 62.5169 102.311 62.9517 100.881C63.3649 99.4503 63.2857 97.9219 62.7267 96.5413C62.5221 96.1171 62.2222 95.7459 61.8504 95.4569C61.4786 95.1678 61.045 94.9686 60.5835 94.8749L60.4334 96.5788C60.8777 97.2561 61.155 98.0292 61.2425 98.8345C61.3604 100.051 61.5586 102.403 60.2406 104.246Z" fill="black"/>
<path d="M59.1207 118.552H59.0885C59.0551 118.547 59.023 118.535 58.9941 118.517C58.9652 118.5 58.9401 118.477 58.9202 118.449C58.9003 118.422 58.886 118.391 58.8781 118.358C58.8702 118.325 58.8689 118.291 58.8742 118.257C59.5333 113.853 59.5676 109.378 58.976 104.964C58.9656 104.929 58.9628 104.892 58.9678 104.856C58.9728 104.82 58.9855 104.785 59.005 104.754C59.0245 104.723 59.0504 104.697 59.0809 104.676C59.1115 104.656 59.1459 104.643 59.1821 104.637C59.2182 104.631 59.2552 104.633 59.2905 104.643C59.3257 104.653 59.3586 104.67 59.3867 104.693C59.4149 104.716 59.4378 104.745 59.4538 104.778C59.4698 104.811 59.4787 104.847 59.4797 104.884C60.0809 109.352 60.0484 113.884 59.3832 118.343C59.3717 118.404 59.3389 118.458 59.2907 118.496C59.2426 118.535 59.1822 118.554 59.1207 118.552Z" fill="#455A64"/>
<path d="M58.7831 117.261C58.7904 117.164 58.8261 117.071 58.8855 116.994C58.945 116.917 59.0258 116.859 59.1178 116.827C59.2099 116.796 59.3092 116.792 59.4035 116.816C59.4978 116.84 59.583 116.891 59.6485 116.963C59.714 117.035 59.757 117.125 59.7722 117.221C59.7873 117.317 59.774 117.415 59.7338 117.504C59.6936 117.593 59.6283 117.668 59.546 117.72C59.4637 117.772 59.368 117.798 59.2707 117.797C59.2031 117.795 59.1366 117.779 59.0752 117.751C59.0138 117.723 58.9587 117.682 58.9132 117.632C58.8677 117.582 58.8327 117.524 58.8104 117.46C58.788 117.396 58.7787 117.328 58.7831 117.261Z" fill="#455A64"/>
<path d="M62.0837 121.338C62.05 121.334 62.0174 121.324 61.988 121.307C61.9585 121.29 61.9327 121.267 61.9122 121.24C61.8917 121.213 61.8768 121.183 61.8686 121.15C61.8603 121.117 61.8587 121.082 61.864 121.049C62.5969 115.495 62.3411 109.855 61.1085 104.391C61.0921 104.325 61.1021 104.256 61.1361 104.198C61.1702 104.14 61.2257 104.098 61.2907 104.08C61.3234 104.071 61.3576 104.069 61.3912 104.073C61.4248 104.078 61.4573 104.088 61.4867 104.105C61.516 104.122 61.5418 104.145 61.5624 104.172C61.583 104.199 61.5981 104.229 61.6068 104.262C62.8555 109.792 63.1149 115.499 62.373 121.119C62.3624 121.185 62.3264 121.246 62.2725 121.287C62.2186 121.328 62.1509 121.346 62.0837 121.338Z" fill="#455A64"/>
<path d="M61.714 120.068C61.7161 119.97 61.7474 119.874 61.8039 119.794C61.8604 119.713 61.9396 119.651 62.0315 119.615C62.1233 119.579 62.2237 119.571 62.3199 119.593C62.4161 119.614 62.5038 119.663 62.572 119.735C62.6402 119.806 62.6857 119.896 62.7028 119.993C62.72 120.09 62.708 120.19 62.6683 120.28C62.6287 120.37 62.5632 120.446 62.4801 120.499C62.397 120.552 62.3001 120.58 62.2015 120.577C62.1361 120.576 62.0716 120.562 62.0117 120.535C61.9517 120.509 61.8976 120.471 61.8523 120.424C61.807 120.377 61.7715 120.321 61.7478 120.26C61.724 120.199 61.7125 120.134 61.714 120.068Z" fill="#455A64"/>
<path d="M73.823 129.975C75.05 128.877 76.427 128.122 78.4363 129.252C80.9814 130.683 82.4173 131.995 81.6511 134.026C81.1153 135.419 79.7705 139.095 77.8416 140.086C75.9127 141.077 73.8391 140.086 72.955 139.411C72.071 138.736 73.823 129.975 73.823 129.975Z" fill="#F28F8F"/>
<path d="M104.225 106.92C100.808 108.23 97.5824 109.993 94.6338 112.16C95.303 109.585 96.1995 107.075 97.3128 104.659C95.5445 107.432 94.0172 110.352 92.7477 113.387C89.9669 115.637 81.8173 122.806 76.6736 130.077C71.8942 133.356 69.033 144.721 69.033 144.721C69.451 146.103 71.9424 146.521 72.7837 145.466C74.4447 137.67 78.7418 131.101 78.7418 131.101C78.7418 131.101 86.1841 121.076 92.528 115.514C96.1694 112.336 100.131 109.544 104.348 107.182L104.225 106.92Z" fill="#B16668"/>
<path d="M44.938 97.3182C40.5123 97.6182 37.6136 100.817 37.0831 105.891C36.5902 110.504 37.9511 124.939 39.0602 130.72C40.4373 137.863 41.6696 139.079 44.6273 139.491C46.8616 139.802 64.9235 141.163 67.5597 140.959C70.1958 140.756 73.9143 142.031 75.7521 140.959C77.5899 139.888 78.1847 137.659 79.4545 135.816C80.7244 133.973 78.7526 131.127 78.7526 131.127L77.4345 132.526C77.0113 133.013 76.2718 133.447 75.6289 132.826C74.9859 132.204 75.3181 131.647 75.7628 131.127L76.6791 130.104C76.1433 129.531 74.4072 129.252 73.1374 130.506C71.7872 131.84 70.6405 132.917 67.8222 133.131C65.0039 133.346 49.0691 130.083 49.0691 130.083L47.4617 111.635C47.4617 111.635 47.4724 99.5632 44.938 97.3182Z" fill="#FFA8A7"/>
<path d="M45.6934 97.2271C45.6934 97.2271 43.068 95.9894 39.6067 99.29C36.1454 102.591 36.14 106.711 36.4722 110.997C36.8044 115.284 37.9564 128.143 38.9423 132.429C39.9281 136.716 40.5925 139.025 42.4893 139.599C44.386 140.172 59.26 140.627 59.26 140.627C59.26 140.627 62.1908 137.455 60.3637 132.204L49.5083 129.659C49.5083 129.659 48.0724 109.626 47.8634 106.411C47.6544 103.196 47.6759 98.3898 45.6934 97.2271Z" fill="#38A3A5"/>
<path opacity="0.4" d="M45.6934 97.2271C45.6934 97.2271 43.068 95.9894 39.6067 99.29C36.1454 102.591 36.14 106.711 36.4722 110.997C36.8044 115.284 37.9564 128.143 38.9423 132.429C39.9281 136.716 40.5925 139.025 42.4893 139.599C44.386 140.172 59.26 140.627 59.26 140.627C59.26 140.627 62.6891 136.828 60.3637 132.204L49.5083 129.659C49.5083 129.659 48.0724 109.626 47.8634 106.411C47.6544 103.196 47.6759 98.3898 45.6934 97.2271Z" fill="black"/>
<path d="M60.3851 132.194C60.3851 132.194 61.939 136.914 59.2599 140.627C61.2756 140.872 63.3058 140.978 65.336 140.943C65.9735 139.738 66.361 138.416 66.4752 137.057C66.5893 135.698 66.4278 134.33 66.0004 133.035C64.1522 132.615 62.2752 132.334 60.3851 132.194Z" fill="#38A3A5"/>
<path opacity="0.45" d="M60.3851 132.194C60.3851 132.194 61.939 136.914 59.2599 140.627C61.2756 140.872 63.3058 140.978 65.336 140.943C65.9735 139.738 66.361 138.416 66.4752 137.057C66.5893 135.698 66.4278 134.33 66.0004 133.035C64.1522 132.615 62.2752 132.334 60.3851 132.194Z" fill="black"/>
<path d="M98.5666 107.852C98.5988 109.09 99.5097 110.831 100.554 111.437C100.73 111.533 100.927 111.583 101.128 111.583C101.328 111.583 101.525 111.533 101.701 111.437L105.12 109.669C105.329 109.559 105.502 109.392 105.618 109.187C105.734 108.981 105.788 108.747 105.773 108.511C105.612 107.209 105.04 105.993 104.139 105.039C103.953 104.864 103.716 104.753 103.463 104.721C103.21 104.689 102.953 104.739 102.73 104.862L99.2043 106.781C99.01 106.884 98.8478 107.038 98.7354 107.227C98.6229 107.416 98.5646 107.632 98.5666 107.852Z" fill="#38A3A5"/>
<path opacity="0.6" d="M98.5666 107.852C98.5988 109.09 99.5097 110.831 100.554 111.437C100.73 111.533 100.927 111.583 101.128 111.583C101.328 111.583 101.525 111.533 101.701 111.437L105.12 109.669C105.329 109.559 105.502 109.392 105.618 109.187C105.734 108.981 105.788 108.747 105.773 108.511C105.612 107.209 105.04 105.993 104.139 105.039C103.953 104.864 103.716 104.753 103.463 104.721C103.21 104.689 102.953 104.739 102.73 104.862L99.2043 106.781C99.01 106.884 98.8478 107.038 98.7354 107.227C98.6229 107.416 98.5646 107.632 98.5666 107.852Z" fill="white"/>
<path d="M104.139 105.05C104.013 104.927 103.858 104.836 103.689 104.787C103.185 104.648 103.153 106.014 103.791 107.316C104.428 108.618 105.398 109.411 105.73 108.924C105.766 108.797 105.781 108.664 105.773 108.533C105.614 107.227 105.042 106.006 104.139 105.05Z" fill="#38A3A5"/>
<path opacity="0.75" d="M104.139 105.05C104.013 104.927 103.858 104.836 103.689 104.787C103.185 104.648 103.153 106.014 103.791 107.316C104.428 108.618 105.398 109.411 105.73 108.924C105.766 108.797 105.781 108.664 105.773 108.533C105.614 107.227 105.042 106.006 104.139 105.05Z" fill="white"/>
<path d="M104.691 107.29C106.78 106.121 108.04 105.484 108.04 105.484C106.818 105.891 105.618 106.33 104.444 106.791C104.427 106.89 104.442 106.991 104.486 107.081C104.531 107.17 104.602 107.243 104.691 107.29Z" fill="#B16668"/>
<path d="M122.367 197.503L142.561 185.903C143.306 185.479 144.33 185.544 145.46 186.197C146.659 186.979 147.658 188.033 148.374 189.273C149.089 190.513 149.503 191.905 149.58 193.334C149.58 194.647 149.12 195.569 148.375 196.013L128.33 207.522L127.966 206.912C127.552 206.82 127.154 206.665 126.787 206.451C125.587 205.669 124.588 204.616 123.871 203.376C123.154 202.136 122.74 200.744 122.662 199.314C122.662 198.953 122.705 198.593 122.79 198.242L122.367 197.503Z" fill="#B16668"/>
<path d="M125.367 197.739C126.568 198.521 127.566 199.576 128.282 200.817C128.998 202.058 129.411 203.45 129.488 204.881C129.488 207.506 127.645 208.573 125.367 207.26C124.165 206.476 123.165 205.419 122.449 204.175C121.733 202.931 121.321 201.535 121.247 200.102C121.247 197.492 123.09 196.426 125.367 197.739Z" fill="#9A4A4D"/>
<path d="M147.164 205.524L113.124 185.903C112.38 185.479 111.356 185.544 110.226 186.197C109.026 186.979 108.028 188.033 107.312 189.273C106.596 190.513 106.183 191.905 106.105 193.334C106.105 194.647 106.566 195.569 107.311 196.013L141.201 215.538L141.565 214.927C141.981 214.835 142.38 214.68 142.749 214.466C143.948 213.684 144.947 212.631 145.662 211.391C146.378 210.151 146.792 208.759 146.869 207.33C146.87 206.968 146.827 206.609 146.741 206.258L147.164 205.524Z" fill="#9A4A4D"/>
<path d="M144.163 205.76C142.964 206.542 141.966 207.595 141.25 208.835C140.534 210.075 140.121 211.467 140.043 212.897C140.043 215.527 141.892 216.588 144.163 215.276C145.364 214.494 146.363 213.441 147.08 212.201C147.797 210.96 148.211 209.569 148.289 208.139C148.289 205.508 146.441 204.442 144.163 205.76Z" fill="#B16668"/>
<path d="M108.554 205.508L122.399 197.524C123.144 197.106 124.162 197.165 125.293 197.819C126.493 198.6 127.492 199.654 128.209 200.894C128.926 202.134 129.34 203.526 129.418 204.956C129.418 206.269 128.957 207.19 128.213 207.635L114.518 215.522L114.153 214.911C113.738 214.82 113.339 214.666 112.969 214.456C111.769 213.673 110.77 212.619 110.054 211.378C109.338 210.137 108.925 208.744 108.849 207.313C108.848 206.952 108.891 206.593 108.977 206.242L108.554 205.508Z" fill="#B16668"/>
<path d="M111.565 205.744C112.765 206.525 113.765 207.579 114.481 208.819C115.198 210.059 115.613 211.45 115.691 212.88C115.691 215.511 113.842 216.578 111.57 215.259C110.37 214.478 109.371 213.424 108.654 212.184C107.937 210.944 107.523 209.553 107.445 208.123C107.445 205.497 109.293 204.431 111.565 205.744Z" fill="#9A4A4D"/>
<path d="M127.998 203.316C121.119 203.316 110.644 199.432 109.915 187.205C109.186 174.978 116.511 169.85 116.511 169.85C116.511 169.85 117.309 174.763 119.87 176.114C119.87 176.114 116.993 161.647 124.692 156.525C124.692 156.525 124.183 164.063 127.259 164.722C130.334 165.381 131.502 152.399 128.797 146.125C128.797 146.125 133.244 148.021 135.971 155.148C138.698 162.274 137.653 173.51 137.653 173.51C138.72 172.683 139.589 171.629 140.198 170.424C140.806 169.219 141.137 167.893 141.168 166.544C141.168 166.544 146.66 177.164 145.932 187.049C145.203 196.935 137.236 203.316 127.998 203.316Z" fill="#38A3A5"/>
<path opacity="0.8" d="M127.934 197.455C121.606 197.455 117.186 188.71 123.337 179.987C123.337 179.987 123.696 185.881 126.878 185.951C130.061 186.021 130.383 174.747 129.991 172.202C129.991 172.202 135.746 179.403 135.746 186.99C135.746 192.44 133.887 197.46 127.934 197.455Z" fill="white"/>
<path d="M69.3759 24.2077C68.7519 26.6088 67.4675 28.7869 65.6683 30.4949C63.8691 32.2029 61.6272 33.3725 59.197 33.8709C56.7668 34.3693 54.2455 34.1766 51.9193 33.3146C49.593 32.4527 47.5549 30.956 46.0363 28.9943C44.5176 27.0327 43.5791 24.6847 43.3273 22.2167C43.0755 19.7487 43.5205 17.2595 44.6117 15.0316C45.703 12.8037 47.3969 10.9263 49.5011 9.61228C51.6054 8.29831 54.0358 7.60041 56.5166 7.59778C56.8059 7.59778 57.0899 7.59778 57.3739 7.62993C55.8369 8.19776 54.4522 9.11352 53.328 10.3056C52.2039 11.4976 51.3709 12.9336 50.8941 14.5012C50.4173 16.0688 50.3097 17.7255 50.5797 19.3415C50.8497 20.9576 51.49 22.4893 52.4505 23.8168C53.411 25.1442 54.6657 26.2314 56.1162 26.9933C57.5668 27.7551 59.1741 28.171 60.8121 28.2083C62.4502 28.2457 64.0747 27.9035 65.5585 27.2085C67.0423 26.5135 68.3452 25.4847 69.3652 24.2024L69.3759 24.2077Z" fill="#38A3A5"/>
</svg>
