<svg width="10" height="16" viewBox="0 0 10 16" fill="none" xmlns="http://www.w3.org/2000/svg">
<mask id="mask0_186_523" style="mask-type:alpha" maskUnits="userSpaceOnUse" x="-11" y="-3" width="21" height="22">
<rect x="9.5198" y="18.1318" width="20.2641" height="20.2641" transform="rotate(-180 9.5198 18.1318)" fill="#D9D9D9"/>
</mask>
<g mask="url(#mask0_186_523)">
<path d="M1.81528 0.31646L8.92881 7.40888C9.01325 7.49332 9.07305 7.58479 9.10823 7.68329C9.14341 7.7818 9.161 7.88734 9.161 7.99992C9.161 8.1125 9.14341 8.21804 9.10823 8.31654C9.07305 8.41505 9.01324 8.50652 8.92881 8.59095L1.81528 15.7045C1.61827 15.9015 1.37201 16 1.07649 16C0.78097 16 0.527669 15.8945 0.316584 15.6834C0.105501 15.4723 -4.14818e-05 15.226 -4.14572e-05 14.9446C-4.14326e-05 14.6631 0.105501 14.4169 0.316585 14.2058L6.52245 7.99992L0.316586 1.79405C0.119574 1.59704 0.0210688 1.35429 0.0210688 1.06581C0.0210688 0.777327 0.126611 0.527544 0.337695 0.31646C0.548778 0.105376 0.795044 -0.000165963 1.07649 -0.000165938C1.35793 -0.000165914 1.6042 0.105376 1.81528 0.31646Z" fill="white"/>
</g>
</svg>
